<svg xmlns="http://www.w3.org/2000/svg" xmlns:xlink="http://www.w3.org/1999/xlink" width="700" zoomAndPan="magnify" viewBox="0 0 525 60" height="80" preserveAspectRatio="xMidYMid meet" version="1.0"><defs><g/><clipPath id="8659c65454"><path d="M 422 6 L 427 6 L 427 19 L 422 19 Z M 422 6 " clip-rule="nonzero"/></clipPath><clipPath id="0968c3b357"><path d="M 416.371094 -5.234375 L 486.367188 25.632812 L 475.171875 51.023438 L 405.175781 20.15625 Z M 416.371094 -5.234375 " clip-rule="nonzero"/></clipPath><clipPath id="ac6505a09a"><path d="M 416.371094 -5.234375 L 486.367188 25.632812 L 475.171875 51.023438 L 405.175781 20.15625 Z M 416.371094 -5.234375 " clip-rule="nonzero"/></clipPath><clipPath id="629218f637"><path d="M 436 6 L 444 6 L 444 21 L 436 21 Z M 436 6 " clip-rule="nonzero"/></clipPath><clipPath id="3db0d704df"><path d="M 416.371094 -5.234375 L 486.367188 25.632812 L 475.171875 51.023438 L 405.175781 20.15625 Z M 416.371094 -5.234375 " clip-rule="nonzero"/></clipPath><clipPath id="f1db890aaf"><path d="M 416.371094 -5.234375 L 486.367188 25.632812 L 475.171875 51.023438 L 405.175781 20.15625 Z M 416.371094 -5.234375 " clip-rule="nonzero"/></clipPath><clipPath id="8fb65e9b18"><path d="M 450 16 L 461 16 L 461 27 L 450 27 Z M 450 16 " clip-rule="nonzero"/></clipPath><clipPath id="9eff4108d3"><path d="M 416.371094 -5.234375 L 486.367188 25.632812 L 475.171875 51.023438 L 405.175781 20.15625 Z M 416.371094 -5.234375 " clip-rule="nonzero"/></clipPath><clipPath id="2615fcc237"><path d="M 416.371094 -5.234375 L 486.367188 25.632812 L 475.171875 51.023438 L 405.175781 20.15625 Z M 416.371094 -5.234375 " clip-rule="nonzero"/></clipPath><clipPath id="df3144e3aa"><path d="M 461 30 L 472 30 L 472 37 L 461 37 Z M 461 30 " clip-rule="nonzero"/></clipPath><clipPath id="fc7ac387fa"><path d="M 416.371094 -5.234375 L 486.367188 25.632812 L 475.171875 51.023438 L 405.175781 20.15625 Z M 416.371094 -5.234375 " clip-rule="nonzero"/></clipPath><clipPath id="3ebae326e9"><path d="M 416.371094 -5.234375 L 486.367188 25.632812 L 475.171875 51.023438 L 405.175781 20.15625 Z M 416.371094 -5.234375 " clip-rule="nonzero"/></clipPath><clipPath id="af2e9620b2"><path d="M 407 14 L 416 14 L 416 22 L 407 22 Z M 407 14 " clip-rule="nonzero"/></clipPath><clipPath id="cbd1da4861"><path d="M 416.371094 -5.234375 L 486.367188 25.632812 L 475.171875 51.023438 L 405.175781 20.15625 Z M 416.371094 -5.234375 " clip-rule="nonzero"/></clipPath><clipPath id="82b344ab1f"><path d="M 416.371094 -5.234375 L 486.367188 25.632812 L 475.171875 51.023438 L 405.175781 20.15625 Z M 416.371094 -5.234375 " clip-rule="nonzero"/></clipPath><clipPath id="08d1d3907b"><path d="M 466 44 L 477 44 L 477 50 L 466 50 Z M 466 44 " clip-rule="nonzero"/></clipPath><clipPath id="d3bebafaab"><path d="M 416.371094 -5.234375 L 486.367188 25.632812 L 475.171875 51.023438 L 405.175781 20.15625 Z M 416.371094 -5.234375 " clip-rule="nonzero"/></clipPath><clipPath id="b7879e5182"><path d="M 416.371094 -5.234375 L 486.367188 25.632812 L 475.171875 51.023438 L 405.175781 20.15625 Z M 416.371094 -5.234375 " clip-rule="nonzero"/></clipPath></defs><g fill="#373737" fill-opacity="1"><g transform="translate(71.28289, 50.378311)"><g/></g></g><g fill="#373737" fill-opacity="1"><g transform="translate(80.033573, 50.378311)"><g><path d="M 7.125 0 L 0.90625 0 L 10.375 -27.46875 L 17.859375 -27.46875 L 27.328125 0 L 21.109375 0 L 19.078125 -6.265625 L 9.15625 -6.265625 Z M 10.640625 -10.796875 L 17.609375 -10.796875 L 14.234375 -21.1875 L 14.015625 -21.1875 Z M 10.640625 -10.796875 "/></g></g></g><g fill="#373737" fill-opacity="1"><g transform="translate(108.269948, 50.378311)"><g><path d="M 9.875 0.328125 C 8.3125 0.328125 6.894531 -0.0703125 5.625 -0.875 C 4.363281 -1.6875 3.363281 -2.878906 2.625 -4.453125 C 1.882812 -6.035156 1.515625 -7.972656 1.515625 -10.265625 C 1.515625 -12.628906 1.894531 -14.59375 2.65625 -16.15625 C 3.425781 -17.726562 4.441406 -18.90625 5.703125 -19.6875 C 6.972656 -20.476562 8.359375 -20.875 9.859375 -20.875 C 11.015625 -20.875 11.976562 -20.675781 12.75 -20.28125 C 13.519531 -19.894531 14.144531 -19.414062 14.625 -18.84375 C 15.101562 -18.269531 15.46875 -17.703125 15.71875 -17.140625 L 15.890625 -17.140625 L 15.890625 -27.46875 L 21.59375 -27.46875 L 21.59375 0 L 15.953125 0 L 15.953125 -3.296875 L 15.71875 -3.296875 C 15.457031 -2.722656 15.082031 -2.15625 14.59375 -1.59375 C 14.101562 -1.039062 13.46875 -0.582031 12.6875 -0.21875 C 11.914062 0.144531 10.976562 0.328125 9.875 0.328125 Z M 11.6875 -4.21875 C 13.0625 -4.21875 14.125 -4.769531 14.875 -5.875 C 15.632812 -6.988281 16.015625 -8.460938 16.015625 -10.296875 C 16.015625 -12.140625 15.640625 -13.601562 14.890625 -14.6875 C 14.140625 -15.78125 13.070312 -16.328125 11.6875 -16.328125 C 10.269531 -16.328125 9.191406 -15.769531 8.453125 -14.65625 C 7.710938 -13.539062 7.34375 -12.085938 7.34375 -10.296875 C 7.34375 -8.503906 7.710938 -7.039062 8.453125 -5.90625 C 9.203125 -4.78125 10.28125 -4.21875 11.6875 -4.21875 Z M 11.6875 -4.21875 "/></g></g></g><g fill="#373737" fill-opacity="1"><g transform="translate(132.256119, 50.378311)"><g><path d="M 9.875 0.328125 C 8.3125 0.328125 6.894531 -0.0703125 5.625 -0.875 C 4.363281 -1.6875 3.363281 -2.878906 2.625 -4.453125 C 1.882812 -6.035156 1.515625 -7.972656 1.515625 -10.265625 C 1.515625 -12.628906 1.894531 -14.59375 2.65625 -16.15625 C 3.425781 -17.726562 4.441406 -18.90625 5.703125 -19.6875 C 6.972656 -20.476562 8.359375 -20.875 9.859375 -20.875 C 11.015625 -20.875 11.976562 -20.675781 12.75 -20.28125 C 13.519531 -19.894531 14.144531 -19.414062 14.625 -18.84375 C 15.101562 -18.269531 15.46875 -17.703125 15.71875 -17.140625 L 15.890625 -17.140625 L 15.890625 -27.46875 L 21.59375 -27.46875 L 21.59375 0 L 15.953125 0 L 15.953125 -3.296875 L 15.71875 -3.296875 C 15.457031 -2.722656 15.082031 -2.15625 14.59375 -1.59375 C 14.101562 -1.039062 13.46875 -0.582031 12.6875 -0.21875 C 11.914062 0.144531 10.976562 0.328125 9.875 0.328125 Z M 11.6875 -4.21875 C 13.0625 -4.21875 14.125 -4.769531 14.875 -5.875 C 15.632812 -6.988281 16.015625 -8.460938 16.015625 -10.296875 C 16.015625 -12.140625 15.640625 -13.601562 14.890625 -14.6875 C 14.140625 -15.78125 13.070312 -16.328125 11.6875 -16.328125 C 10.269531 -16.328125 9.191406 -15.769531 8.453125 -14.65625 C 7.710938 -13.539062 7.34375 -12.085938 7.34375 -10.296875 C 7.34375 -8.503906 7.710938 -7.039062 8.453125 -5.90625 C 9.203125 -4.78125 10.28125 -4.21875 11.6875 -4.21875 Z M 11.6875 -4.21875 "/></g></g></g><g fill="#373737" fill-opacity="1"><g transform="translate(156.24229, 50.378311)"><g/></g></g><g fill="#373737" fill-opacity="1"><g transform="translate(164.997441, 50.378311)"><g><path d="M 1.34375 -22.671875 L 1.34375 -27.46875 L 23.90625 -27.46875 L 23.90625 -22.671875 L 15.484375 -22.671875 L 15.484375 0 L 9.75 0 L 9.75 -22.671875 Z M 1.34375 -22.671875 "/></g></g></g><g fill="#373737" fill-opacity="1"><g transform="translate(190.230522, 50.378311)"><g><path d="M 11.671875 0.40625 C 9.554688 0.40625 7.734375 -0.0234375 6.203125 -0.890625 C 4.679688 -1.753906 3.507812 -2.976562 2.6875 -4.5625 C 1.863281 -6.15625 1.453125 -8.035156 1.453125 -10.203125 C 1.453125 -12.328125 1.863281 -14.1875 2.6875 -15.78125 C 3.507812 -17.382812 4.664062 -18.632812 6.15625 -19.53125 C 7.65625 -20.425781 9.414062 -20.875 11.4375 -20.875 C 13.25 -20.875 14.882812 -20.488281 16.34375 -19.71875 C 17.8125 -18.945312 18.972656 -17.785156 19.828125 -16.234375 C 20.691406 -14.679688 21.125 -12.738281 21.125 -10.40625 L 21.125 -8.84375 L 7.09375 -8.84375 L 7.09375 -8.828125 C 7.09375 -7.285156 7.507812 -6.070312 8.34375 -5.1875 C 9.1875 -4.300781 10.328125 -3.859375 11.765625 -3.859375 C 12.722656 -3.859375 13.546875 -4.054688 14.234375 -4.453125 C 14.929688 -4.859375 15.425781 -5.457031 15.71875 -6.25 L 21 -5.90625 C 20.59375 -3.988281 19.570312 -2.457031 17.9375 -1.3125 C 16.300781 -0.164062 14.210938 0.40625 11.671875 0.40625 Z M 7.09375 -12.375 L 15.75 -12.375 C 15.738281 -13.601562 15.34375 -14.613281 14.5625 -15.40625 C 13.78125 -16.207031 12.769531 -16.609375 11.53125 -16.609375 C 10.257812 -16.609375 9.21875 -16.195312 8.40625 -15.375 C 7.59375 -14.550781 7.15625 -13.550781 7.09375 -12.375 Z M 7.09375 -12.375 "/></g></g></g><g fill="#373737" fill-opacity="1"><g transform="translate(212.795488, 50.378311)"><g><path d="M 8.15625 0.390625 C 6.1875 0.390625 4.550781 -0.125 3.25 -1.15625 C 1.957031 -2.1875 1.3125 -3.71875 1.3125 -5.75 C 1.3125 -7.289062 1.671875 -8.5 2.390625 -9.375 C 3.117188 -10.25 4.070312 -10.890625 5.25 -11.296875 C 6.425781 -11.703125 7.691406 -11.96875 9.046875 -12.09375 C 10.835938 -12.269531 12.117188 -12.457031 12.890625 -12.65625 C 13.660156 -12.851562 14.046875 -13.285156 14.046875 -13.953125 L 14.046875 -14.03125 C 14.046875 -14.875 13.78125 -15.53125 13.25 -16 C 12.71875 -16.46875 11.960938 -16.703125 10.984375 -16.703125 C 9.953125 -16.703125 9.132812 -16.476562 8.53125 -16.03125 C 7.925781 -15.582031 7.523438 -15.015625 7.328125 -14.328125 L 2.03125 -14.75 C 2.425781 -16.625 3.40625 -18.113281 4.96875 -19.21875 C 6.53125 -20.320312 8.546875 -20.875 11.015625 -20.875 C 12.535156 -20.875 13.960938 -20.628906 15.296875 -20.140625 C 16.628906 -19.660156 17.703125 -18.90625 18.515625 -17.875 C 19.335938 -16.851562 19.75 -15.523438 19.75 -13.890625 L 19.75 0 L 14.34375 0 L 14.34375 -2.859375 L 14.171875 -2.859375 C 13.671875 -1.898438 12.921875 -1.117188 11.921875 -0.515625 C 10.929688 0.0859375 9.675781 0.390625 8.15625 0.390625 Z M 9.796875 -3.546875 C 11.046875 -3.546875 12.070312 -3.910156 12.875 -4.640625 C 13.675781 -5.367188 14.078125 -6.273438 14.078125 -7.359375 L 14.078125 -9.546875 C 13.859375 -9.398438 13.515625 -9.265625 13.046875 -9.140625 C 12.578125 -9.023438 12.078125 -8.925781 11.546875 -8.84375 C 11.015625 -8.757812 10.535156 -8.6875 10.109375 -8.625 C 9.109375 -8.476562 8.300781 -8.191406 7.6875 -7.765625 C 7.070312 -7.347656 6.765625 -6.738281 6.765625 -5.9375 C 6.765625 -5.15625 7.046875 -4.5625 7.609375 -4.15625 C 8.179688 -3.75 8.910156 -3.546875 9.796875 -3.546875 Z M 9.796875 -3.546875 "/></g></g></g><g fill="#373737" fill-opacity="1"><g transform="translate(234.703486, 50.378311)"><g><path d="M 2.28125 0 L 2.28125 -20.59375 L 7.71875 -20.59375 L 7.71875 -16.96875 L 7.96875 -16.96875 C 8.394531 -18.175781 9.109375 -19.128906 10.109375 -19.828125 C 11.117188 -20.523438 12.316406 -20.875 13.703125 -20.875 C 15.117188 -20.875 16.320312 -20.519531 17.3125 -19.8125 C 18.300781 -19.113281 18.960938 -18.164062 19.296875 -16.96875 L 19.515625 -16.96875 C 19.929688 -18.144531 20.691406 -19.085938 21.796875 -19.796875 C 22.898438 -20.515625 24.207031 -20.875 25.71875 -20.875 C 27.644531 -20.875 29.207031 -20.257812 30.40625 -19.03125 C 31.613281 -17.8125 32.21875 -16.085938 32.21875 -13.859375 L 32.21875 0 L 26.515625 0 L 26.515625 -12.734375 C 26.515625 -13.867188 26.207031 -14.722656 25.59375 -15.296875 C 24.988281 -15.867188 24.234375 -16.15625 23.328125 -16.15625 C 22.285156 -16.15625 21.472656 -15.820312 20.890625 -15.15625 C 20.304688 -14.5 20.015625 -13.640625 20.015625 -12.578125 L 20.015625 0 L 14.484375 0 L 14.484375 -12.84375 C 14.484375 -13.851562 14.191406 -14.65625 13.609375 -15.25 C 13.035156 -15.851562 12.28125 -16.15625 11.34375 -16.15625 C 10.394531 -16.15625 9.597656 -15.804688 8.953125 -15.109375 C 8.316406 -14.421875 8 -13.503906 8 -12.359375 L 8 0 Z M 2.28125 0 "/></g></g></g><g fill="#373737" fill-opacity="1"><g transform="translate(269.134176, 50.378311)"><g/></g></g><g fill="#373737" fill-opacity="1"><g transform="translate(277.889317, 50.378311)"><g><path d="M 2.390625 -27.46875 L 9.546875 -27.46875 L 17.109375 -9.015625 L 17.4375 -9.015625 L 25 -27.46875 L 32.15625 -27.46875 L 32.15625 0 L 26.53125 0 L 26.53125 -17.875 L 26.296875 -17.875 L 19.1875 -0.140625 L 15.359375 -0.140625 L 8.25 -17.9375 L 8.015625 -17.9375 L 8.015625 0 L 2.390625 0 Z M 2.390625 -27.46875 "/></g></g></g><g fill="#373737" fill-opacity="1"><g transform="translate(312.775847, 50.378311)"><g><path d="M 11.671875 0.40625 C 9.554688 0.40625 7.734375 -0.0234375 6.203125 -0.890625 C 4.679688 -1.753906 3.507812 -2.976562 2.6875 -4.5625 C 1.863281 -6.15625 1.453125 -8.035156 1.453125 -10.203125 C 1.453125 -12.328125 1.863281 -14.1875 2.6875 -15.78125 C 3.507812 -17.382812 4.664062 -18.632812 6.15625 -19.53125 C 7.65625 -20.425781 9.414062 -20.875 11.4375 -20.875 C 13.25 -20.875 14.882812 -20.488281 16.34375 -19.71875 C 17.8125 -18.945312 18.972656 -17.785156 19.828125 -16.234375 C 20.691406 -14.679688 21.125 -12.738281 21.125 -10.40625 L 21.125 -8.84375 L 7.09375 -8.84375 L 7.09375 -8.828125 C 7.09375 -7.285156 7.507812 -6.070312 8.34375 -5.1875 C 9.1875 -4.300781 10.328125 -3.859375 11.765625 -3.859375 C 12.722656 -3.859375 13.546875 -4.054688 14.234375 -4.453125 C 14.929688 -4.859375 15.425781 -5.457031 15.71875 -6.25 L 21 -5.90625 C 20.59375 -3.988281 19.570312 -2.457031 17.9375 -1.3125 C 16.300781 -0.164062 14.210938 0.40625 11.671875 0.40625 Z M 7.09375 -12.375 L 15.75 -12.375 C 15.738281 -13.601562 15.34375 -14.613281 14.5625 -15.40625 C 13.78125 -16.207031 12.769531 -16.609375 11.53125 -16.609375 C 10.257812 -16.609375 9.21875 -16.195312 8.40625 -15.375 C 7.59375 -14.550781 7.15625 -13.550781 7.09375 -12.375 Z M 7.09375 -12.375 "/></g></g></g><g fill="#373737" fill-opacity="1"><g transform="translate(335.340823, 50.378311)"><g><path d="M 2.28125 0 L 2.28125 -20.59375 L 7.71875 -20.59375 L 7.71875 -16.96875 L 7.96875 -16.96875 C 8.394531 -18.175781 9.109375 -19.128906 10.109375 -19.828125 C 11.117188 -20.523438 12.316406 -20.875 13.703125 -20.875 C 15.117188 -20.875 16.320312 -20.519531 17.3125 -19.8125 C 18.300781 -19.113281 18.960938 -18.164062 19.296875 -16.96875 L 19.515625 -16.96875 C 19.929688 -18.144531 20.691406 -19.085938 21.796875 -19.796875 C 22.898438 -20.515625 24.207031 -20.875 25.71875 -20.875 C 27.644531 -20.875 29.207031 -20.257812 30.40625 -19.03125 C 31.613281 -17.8125 32.21875 -16.085938 32.21875 -13.859375 L 32.21875 0 L 26.515625 0 L 26.515625 -12.734375 C 26.515625 -13.867188 26.207031 -14.722656 25.59375 -15.296875 C 24.988281 -15.867188 24.234375 -16.15625 23.328125 -16.15625 C 22.285156 -16.15625 21.472656 -15.820312 20.890625 -15.15625 C 20.304688 -14.5 20.015625 -13.640625 20.015625 -12.578125 L 20.015625 0 L 14.484375 0 L 14.484375 -12.84375 C 14.484375 -13.851562 14.191406 -14.65625 13.609375 -15.25 C 13.035156 -15.851562 12.28125 -16.15625 11.34375 -16.15625 C 10.394531 -16.15625 9.597656 -15.804688 8.953125 -15.109375 C 8.316406 -14.421875 8 -13.503906 8 -12.359375 L 8 0 Z M 2.28125 0 "/></g></g></g><g fill="#373737" fill-opacity="1"><g transform="translate(369.771493, 50.378311)"><g><path d="M 2.390625 0 L 2.390625 -27.46875 L 8.09375 -27.46875 L 8.09375 -17.140625 L 8.28125 -17.140625 C 8.53125 -17.703125 8.890625 -18.269531 9.359375 -18.84375 C 9.835938 -19.414062 10.46875 -19.894531 11.25 -20.28125 C 12.03125 -20.675781 12.992188 -20.875 14.140625 -20.875 C 15.648438 -20.875 17.035156 -20.476562 18.296875 -19.6875 C 19.554688 -18.90625 20.566406 -17.726562 21.328125 -16.15625 C 22.097656 -14.59375 22.484375 -12.628906 22.484375 -10.265625 C 22.484375 -7.972656 22.109375 -6.035156 21.359375 -4.453125 C 20.617188 -2.878906 19.617188 -1.6875 18.359375 -0.875 C 17.097656 -0.0703125 15.6875 0.328125 14.125 0.328125 C 13.007812 0.328125 12.066406 0.144531 11.296875 -0.21875 C 10.523438 -0.582031 9.894531 -1.039062 9.40625 -1.59375 C 8.914062 -2.15625 8.539062 -2.722656 8.28125 -3.296875 L 8.015625 -3.296875 L 8.015625 0 Z M 7.984375 -10.296875 C 7.984375 -8.460938 8.359375 -6.988281 9.109375 -5.875 C 9.867188 -4.769531 10.9375 -4.21875 12.3125 -4.21875 C 13.71875 -4.21875 14.789062 -4.78125 15.53125 -5.90625 C 16.269531 -7.039062 16.640625 -8.503906 16.640625 -10.296875 C 16.640625 -12.085938 16.269531 -13.539062 15.53125 -14.65625 C 14.800781 -15.769531 13.726562 -16.328125 12.3125 -16.328125 C 10.925781 -16.328125 9.859375 -15.78125 9.109375 -14.6875 C 8.359375 -13.601562 7.984375 -12.140625 7.984375 -10.296875 Z M 7.984375 -10.296875 "/></g></g></g><g fill="#373737" fill-opacity="1"><g transform="translate(393.757654, 50.378311)"><g><path d="M 11.671875 0.40625 C 9.554688 0.40625 7.734375 -0.0234375 6.203125 -0.890625 C 4.679688 -1.753906 3.507812 -2.976562 2.6875 -4.5625 C 1.863281 -6.15625 1.453125 -8.035156 1.453125 -10.203125 C 1.453125 -12.328125 1.863281 -14.1875 2.6875 -15.78125 C 3.507812 -17.382812 4.664062 -18.632812 6.15625 -19.53125 C 7.65625 -20.425781 9.414062 -20.875 11.4375 -20.875 C 13.25 -20.875 14.882812 -20.488281 16.34375 -19.71875 C 17.8125 -18.945312 18.972656 -17.785156 19.828125 -16.234375 C 20.691406 -14.679688 21.125 -12.738281 21.125 -10.40625 L 21.125 -8.84375 L 7.09375 -8.84375 L 7.09375 -8.828125 C 7.09375 -7.285156 7.507812 -6.070312 8.34375 -5.1875 C 9.1875 -4.300781 10.328125 -3.859375 11.765625 -3.859375 C 12.722656 -3.859375 13.546875 -4.054688 14.234375 -4.453125 C 14.929688 -4.859375 15.425781 -5.457031 15.71875 -6.25 L 21 -5.90625 C 20.59375 -3.988281 19.570312 -2.457031 17.9375 -1.3125 C 16.300781 -0.164062 14.210938 0.40625 11.671875 0.40625 Z M 7.09375 -12.375 L 15.75 -12.375 C 15.738281 -13.601562 15.34375 -14.613281 14.5625 -15.40625 C 13.78125 -16.207031 12.769531 -16.609375 11.53125 -16.609375 C 10.257812 -16.609375 9.21875 -16.195312 8.40625 -15.375 C 7.59375 -14.550781 7.15625 -13.550781 7.09375 -12.375 Z M 7.09375 -12.375 "/></g></g></g><g fill="#373737" fill-opacity="1"><g transform="translate(416.32263, 50.378311)"><g><path d="M 2.28125 0 L 2.28125 -20.59375 L 7.8125 -20.59375 L 7.8125 -17 L 8.03125 -17 C 8.40625 -18.28125 9.03125 -19.25 9.90625 -19.90625 C 10.789062 -20.5625 11.816406 -20.890625 12.984375 -20.890625 C 13.535156 -20.890625 14.046875 -20.820312 14.515625 -20.6875 C 14.992188 -20.550781 15.421875 -20.367188 15.796875 -20.140625 L 14.078125 -15.421875 C 13.804688 -15.554688 13.515625 -15.671875 13.203125 -15.765625 C 12.890625 -15.859375 12.535156 -15.90625 12.140625 -15.90625 C 10.984375 -15.90625 10.003906 -15.507812 9.203125 -14.71875 C 8.398438 -13.9375 8 -12.914062 8 -11.65625 L 8 0 Z M 2.28125 0 "/></g></g></g><g fill="#373737" fill-opacity="1"><g transform="translate(432.505604, 50.378311)"><g><path d="M 19.421875 -14.71875 L 14.1875 -14.40625 C 14.039062 -15.0625 13.675781 -15.625 13.09375 -16.09375 C 12.519531 -16.570312 11.738281 -16.8125 10.75 -16.8125 C 9.863281 -16.8125 9.113281 -16.625 8.5 -16.25 C 7.882812 -15.882812 7.582031 -15.394531 7.59375 -14.78125 C 7.582031 -14.289062 7.773438 -13.875 8.171875 -13.53125 C 8.566406 -13.1875 9.242188 -12.914062 10.203125 -12.71875 L 13.9375 -11.96875 C 17.894531 -11.15625 19.878906 -9.296875 19.890625 -6.390625 C 19.890625 -5.035156 19.492188 -3.847656 18.703125 -2.828125 C 17.910156 -1.804688 16.828125 -1.007812 15.453125 -0.4375 C 14.078125 0.125 12.5 0.40625 10.71875 0.40625 C 7.988281 0.40625 5.8125 -0.160156 4.1875 -1.296875 C 2.570312 -2.441406 1.632812 -4 1.375 -5.96875 L 6.984375 -6.265625 C 7.160156 -5.421875 7.570312 -4.785156 8.21875 -4.359375 C 8.875 -3.929688 9.710938 -3.71875 10.734375 -3.71875 C 11.734375 -3.71875 12.535156 -3.910156 13.140625 -4.296875 C 13.753906 -4.691406 14.066406 -5.195312 14.078125 -5.8125 C 14.054688 -6.820312 13.175781 -7.503906 11.4375 -7.859375 L 7.875 -8.5625 C 3.882812 -9.363281 1.898438 -11.328125 1.921875 -14.453125 C 1.910156 -16.441406 2.703125 -18.007812 4.296875 -19.15625 C 5.890625 -20.300781 8.003906 -20.875 10.640625 -20.875 C 13.242188 -20.875 15.296875 -20.320312 16.796875 -19.21875 C 18.296875 -18.113281 19.171875 -16.613281 19.421875 -14.71875 Z M 19.421875 -14.71875 "/></g></g></g><g clip-path="url(#8659c65454)"><g clip-path="url(#0968c3b357)"><g clip-path="url(#ac6505a09a)"><path fill="#5e17eb" d="M 426.167969 16.632812 C 426.355469 16.371094 426.4375 16.019531 426.347656 15.613281 C 426.246094 15.175781 426.144531 14.738281 426.042969 14.304688 C 425.8125 11.832031 425.308594 9.359375 424.609375 6.949219 C 424.273438 5.824219 422.523438 6.179688 422.464844 7.253906 C 422.394531 7.414062 422.324219 7.628906 422.347656 7.859375 C 422.375 8.457031 422.433594 9.046875 422.515625 9.644531 C 421.632812 12.53125 422.304688 15.785156 424.15625 18.140625 C 424.894531 19.074219 426.199219 18.453125 426.195312 17.351562 C 426.203125 17.109375 426.179688 16.882812 426.167969 16.632812 Z M 426.167969 16.632812 " fill-opacity="1" fill-rule="nonzero"/></g></g></g><g clip-path="url(#629218f637)"><g clip-path="url(#3db0d704df)"><g clip-path="url(#f1db890aaf)"><path fill="#5e17eb" d="M 443.640625 10.0625 C 443.851562 9.695312 443.742188 9.328125 443.519531 9.058594 C 443.589844 8.84375 443.660156 8.632812 443.738281 8.398438 C 444.195312 7.082031 442.324219 6.210938 441.75 7.519531 C 441.261719 8.625 440.78125 9.707031 440.296875 10.8125 C 439.289062 12.152344 438.480469 13.652344 437.792969 15.210938 C 437.605469 15.46875 437.425781 15.707031 437.238281 15.964844 C 437.164062 16.082031 437.300781 16.214844 437.398438 16.160156 C 437.078125 16.996094 436.800781 17.851562 436.53125 18.683594 C 436.265625 19.570312 437.5 20.601562 438.09375 19.640625 C 438.109375 19.601562 438.160156 19.546875 438.175781 19.507812 C 438.519531 19.511719 438.871094 19.324219 439.070312 18.925781 C 439.351562 18.339844 439.625 17.726562 439.90625 17.140625 C 440.308594 17.171875 440.75 17 440.921875 16.5625 C 441.539062 15.050781 442.074219 13.503906 442.589844 11.945312 C 442.9375 11.320312 443.289062 10.691406 443.640625 10.0625 Z M 443.640625 10.0625 " fill-opacity="1" fill-rule="nonzero"/></g></g></g><g clip-path="url(#8fb65e9b18)"><g clip-path="url(#9eff4108d3)"><g clip-path="url(#2615fcc237)"><path fill="#5e17eb" d="M 459.472656 17.046875 C 456.457031 19.210938 453.664062 21.546875 450.929688 24.03125 C 450.6875 24.242188 450.949219 24.652344 451.230469 24.457031 C 451.335938 24.382812 451.453125 24.285156 451.578125 24.21875 C 451.519531 24.632812 451.671875 25.066406 451.964844 25.34375 C 452.210938 26.015625 453.214844 26.457031 453.890625 25.753906 C 455.253906 24.328125 456.691406 22.957031 457.992188 21.453125 C 458.671875 20.800781 459.34375 20.167969 460.035156 19.542969 C 460.351562 19.265625 460.464844 18.902344 460.4375 18.570312 C 460.523438 18.488281 460.582031 18.414062 460.667969 18.332031 C 461.34375 17.578125 460.253906 16.488281 459.472656 17.046875 Z M 459.472656 17.046875 " fill-opacity="1" fill-rule="nonzero"/></g></g></g><g clip-path="url(#df3144e3aa)"><g clip-path="url(#fc7ac387fa)"><g clip-path="url(#3ebae326e9)"><path fill="#5e17eb" d="M 469.957031 33.644531 C 469.949219 33.496094 469.945312 33.34375 469.878906 33.21875 C 470.28125 33.078125 470.453125 32.691406 470.4375 32.339844 C 470.523438 32.304688 470.613281 32.273438 470.671875 32.25 C 471.777344 31.855469 471.363281 29.964844 470.171875 30.21875 C 468.3125 30.597656 466.550781 31.261719 464.933594 32.210938 C 464.375 32.476562 463.816406 32.746094 463.296875 33.03125 C 463.296875 33.03125 463.269531 33.042969 463.269531 33.042969 C 463.199219 33.085938 463.140625 33.105469 463.074219 33.152344 C 462.5625 33.414062 462.085938 33.71875 461.664062 34.070312 C 461.433594 34.261719 461.546875 34.777344 461.90625 34.6875 C 461.984375 34.675781 462.042969 34.652344 462.125 34.636719 C 462.007812 35.175781 462.335938 35.710938 462.886719 35.855469 C 463.132812 36.183594 463.535156 36.382812 464.027344 36.210938 C 465.804688 35.625 467.628906 35.207031 469.472656 34.96875 C 470.089844 34.851562 470.296875 34.039062 469.957031 33.644531 Z M 469.957031 33.644531 " fill-opacity="1" fill-rule="nonzero"/></g></g></g><g clip-path="url(#af2e9620b2)"><g clip-path="url(#cbd1da4861)"><g clip-path="url(#82b344ab1f)"><path fill="#5e17eb" d="M 415.398438 19.777344 C 414.917969 19.367188 414.4375 18.960938 413.957031 18.554688 C 413.082031 16.921875 411.90625 15.644531 410.3125 14.648438 C 409.796875 14.324219 409.152344 14.503906 409.011719 15.152344 C 408.964844 15.375 408.964844 15.59375 408.976562 15.792969 C 408.074219 15.226562 406.875 16.335938 407.570312 17.253906 C 408.933594 19.050781 410.605469 20.59375 412.605469 21.671875 C 413.140625 21.957031 413.628906 21.683594 413.886719 21.261719 C 414.050781 21.332031 414.1875 21.417969 414.351562 21.488281 C 415.398438 22 416.257812 20.496094 415.398438 19.777344 Z M 415.398438 19.777344 " fill-opacity="1" fill-rule="nonzero"/></g></g></g><g clip-path="url(#08d1d3907b)"><g clip-path="url(#d3bebafaab)"><g clip-path="url(#b7879e5182)"><path fill="#5e17eb" d="M 475.851562 47.828125 C 475.414062 47.488281 474.894531 47.285156 474.355469 47.117188 C 474.363281 47.097656 474.371094 47.078125 474.378906 47.058594 C 474.699219 47.003906 474.929688 46.8125 475.039062 46.566406 C 475.140625 46.5625 475.238281 46.554688 475.339844 46.550781 C 476.308594 46.515625 476.285156 45.015625 475.367188 44.878906 C 473.453125 44.546875 471.535156 44.507812 469.640625 44.699219 C 469.148438 44.652344 468.671875 44.613281 468.171875 44.585938 C 467.957031 44.566406 467.785156 44.734375 467.753906 44.917969 C 467.65625 44.921875 467.554688 44.925781 467.457031 44.933594 C 466.625 44.980469 466.476562 46.210938 467.09375 46.53125 C 466.996094 46.976562 467.199219 47.507812 467.777344 47.640625 C 468.460938 47.820312 469.128906 47.917969 469.800781 47.945312 C 470.457031 48.066406 471.117188 48.183594 471.765625 48.324219 C 472.949219 48.578125 474.230469 49.117188 475.472656 49.027344 C 476.050781 48.992188 476.3125 48.175781 475.851562 47.828125 Z M 475.851562 47.828125 " fill-opacity="1" fill-rule="nonzero"/></g></g></g></svg>