<svg xmlns="http://www.w3.org/2000/svg" xmlns:xlink="http://www.w3.org/1999/xlink" width="700" zoomAndPan="magnify" viewBox="0 0 525 60" height="80" preserveAspectRatio="xMidYMid meet" version="1.0"><defs><g/><clipPath id="2323c1960c"><path d="M 136 38 L 269.964844 38 L 269.964844 51.492188 L 136 51.492188 Z M 136 38 " clip-rule="nonzero"/></clipPath></defs><g fill="#373737" fill-opacity="1"><g transform="translate(132.63188, 32.934517)"><g><path d="M 2.390625 0 L 2.390625 -27.46875 L 8.1875 -27.46875 L 8.1875 -15.359375 L 8.5625 -15.359375 L 18.4375 -27.46875 L 25.40625 -27.46875 L 15.203125 -15.171875 L 25.515625 0 L 18.578125 0 L 11.046875 -11.296875 L 8.1875 -7.8125 L 8.1875 0 Z M 2.390625 0 "/></g></g></g><g fill="#373737" fill-opacity="1"><g transform="translate(158.669411, 32.934517)"><g><path d="M 8.15625 0.390625 C 6.1875 0.390625 4.550781 -0.125 3.25 -1.15625 C 1.957031 -2.1875 1.3125 -3.71875 1.3125 -5.75 C 1.3125 -7.289062 1.671875 -8.5 2.390625 -9.375 C 3.117188 -10.25 4.070312 -10.890625 5.25 -11.296875 C 6.425781 -11.703125 7.691406 -11.96875 9.046875 -12.09375 C 10.835938 -12.269531 12.117188 -12.457031 12.890625 -12.65625 C 13.660156 -12.851562 14.046875 -13.285156 14.046875 -13.953125 L 14.046875 -14.03125 C 14.046875 -14.875 13.78125 -15.53125 13.25 -16 C 12.71875 -16.46875 11.960938 -16.703125 10.984375 -16.703125 C 9.953125 -16.703125 9.132812 -16.476562 8.53125 -16.03125 C 7.925781 -15.582031 7.523438 -15.015625 7.328125 -14.328125 L 2.03125 -14.75 C 2.425781 -16.625 3.40625 -18.113281 4.96875 -19.21875 C 6.53125 -20.320312 8.546875 -20.875 11.015625 -20.875 C 12.535156 -20.875 13.960938 -20.628906 15.296875 -20.140625 C 16.628906 -19.660156 17.703125 -18.90625 18.515625 -17.875 C 19.335938 -16.851562 19.75 -15.523438 19.75 -13.890625 L 19.75 0 L 14.34375 0 L 14.34375 -2.859375 L 14.171875 -2.859375 C 13.671875 -1.898438 12.921875 -1.117188 11.921875 -0.515625 C 10.929688 0.0859375 9.675781 0.390625 8.15625 0.390625 Z M 9.796875 -3.546875 C 11.046875 -3.546875 12.070312 -3.910156 12.875 -4.640625 C 13.675781 -5.367188 14.078125 -6.273438 14.078125 -7.359375 L 14.078125 -9.546875 C 13.859375 -9.398438 13.515625 -9.265625 13.046875 -9.140625 C 12.578125 -9.023438 12.078125 -8.925781 11.546875 -8.84375 C 11.015625 -8.757812 10.535156 -8.6875 10.109375 -8.625 C 9.109375 -8.476562 8.300781 -8.191406 7.6875 -7.765625 C 7.070312 -7.347656 6.765625 -6.738281 6.765625 -5.9375 C 6.765625 -5.15625 7.046875 -4.5625 7.609375 -4.15625 C 8.179688 -3.75 8.910156 -3.546875 9.796875 -3.546875 Z M 9.796875 -3.546875 "/></g></g></g><g fill="#373737" fill-opacity="1"><g transform="translate(180.577409, 32.934517)"><g><path d="M 8 -11.90625 L 8 0 L 2.28125 0 L 2.28125 -20.59375 L 7.71875 -20.59375 L 7.71875 -16.96875 L 7.96875 -16.96875 C 8.425781 -18.164062 9.191406 -19.113281 10.265625 -19.8125 C 11.335938 -20.519531 12.632812 -20.875 14.15625 -20.875 C 16.300781 -20.875 18.019531 -20.179688 19.3125 -18.796875 C 20.613281 -17.410156 21.265625 -15.515625 21.265625 -13.109375 L 21.265625 0 L 15.5625 0 L 15.5625 -12.09375 C 15.5625 -13.351562 15.234375 -14.335938 14.578125 -15.046875 C 13.929688 -15.765625 13.035156 -16.125 11.890625 -16.125 C 10.742188 -16.125 9.804688 -15.753906 9.078125 -15.015625 C 8.359375 -14.273438 8 -13.238281 8 -11.90625 Z M 8 -11.90625 "/></g></g></g><g fill="#373737" fill-opacity="1"><g transform="translate(204.054095, 32.934517)"><g><path d="M 2.390625 0 L 2.390625 -27.46875 L 8.09375 -27.46875 L 8.09375 -17.140625 L 8.28125 -17.140625 C 8.53125 -17.703125 8.890625 -18.269531 9.359375 -18.84375 C 9.835938 -19.414062 10.46875 -19.894531 11.25 -20.28125 C 12.03125 -20.675781 12.992188 -20.875 14.140625 -20.875 C 15.648438 -20.875 17.035156 -20.476562 18.296875 -19.6875 C 19.554688 -18.90625 20.566406 -17.726562 21.328125 -16.15625 C 22.097656 -14.59375 22.484375 -12.628906 22.484375 -10.265625 C 22.484375 -7.972656 22.109375 -6.035156 21.359375 -4.453125 C 20.617188 -2.878906 19.617188 -1.6875 18.359375 -0.875 C 17.097656 -0.0703125 15.6875 0.328125 14.125 0.328125 C 13.007812 0.328125 12.066406 0.144531 11.296875 -0.21875 C 10.523438 -0.582031 9.894531 -1.039062 9.40625 -1.59375 C 8.914062 -2.15625 8.539062 -2.722656 8.28125 -3.296875 L 8.015625 -3.296875 L 8.015625 0 Z M 7.984375 -10.296875 C 7.984375 -8.460938 8.359375 -6.988281 9.109375 -5.875 C 9.867188 -4.769531 10.9375 -4.21875 12.3125 -4.21875 C 13.71875 -4.21875 14.789062 -4.78125 15.53125 -5.90625 C 16.269531 -7.039062 16.640625 -8.503906 16.640625 -10.296875 C 16.640625 -12.085938 16.269531 -13.539062 15.53125 -14.65625 C 14.800781 -15.769531 13.726562 -16.328125 12.3125 -16.328125 C 10.925781 -16.328125 9.859375 -15.78125 9.109375 -14.6875 C 8.359375 -13.601562 7.984375 -12.140625 7.984375 -10.296875 Z M 7.984375 -10.296875 "/></g></g></g><g fill="#373737" fill-opacity="1"><g transform="translate(228.040266, 32.934517)"><g><path d="M 8.15625 0.390625 C 6.1875 0.390625 4.550781 -0.125 3.25 -1.15625 C 1.957031 -2.1875 1.3125 -3.71875 1.3125 -5.75 C 1.3125 -7.289062 1.671875 -8.5 2.390625 -9.375 C 3.117188 -10.25 4.070312 -10.890625 5.25 -11.296875 C 6.425781 -11.703125 7.691406 -11.96875 9.046875 -12.09375 C 10.835938 -12.269531 12.117188 -12.457031 12.890625 -12.65625 C 13.660156 -12.851562 14.046875 -13.285156 14.046875 -13.953125 L 14.046875 -14.03125 C 14.046875 -14.875 13.78125 -15.53125 13.25 -16 C 12.71875 -16.46875 11.960938 -16.703125 10.984375 -16.703125 C 9.953125 -16.703125 9.132812 -16.476562 8.53125 -16.03125 C 7.925781 -15.582031 7.523438 -15.015625 7.328125 -14.328125 L 2.03125 -14.75 C 2.425781 -16.625 3.40625 -18.113281 4.96875 -19.21875 C 6.53125 -20.320312 8.546875 -20.875 11.015625 -20.875 C 12.535156 -20.875 13.960938 -20.628906 15.296875 -20.140625 C 16.628906 -19.660156 17.703125 -18.90625 18.515625 -17.875 C 19.335938 -16.851562 19.75 -15.523438 19.75 -13.890625 L 19.75 0 L 14.34375 0 L 14.34375 -2.859375 L 14.171875 -2.859375 C 13.671875 -1.898438 12.921875 -1.117188 11.921875 -0.515625 C 10.929688 0.0859375 9.675781 0.390625 8.15625 0.390625 Z M 9.796875 -3.546875 C 11.046875 -3.546875 12.070312 -3.910156 12.875 -4.640625 C 13.675781 -5.367188 14.078125 -6.273438 14.078125 -7.359375 L 14.078125 -9.546875 C 13.859375 -9.398438 13.515625 -9.265625 13.046875 -9.140625 C 12.578125 -9.023438 12.078125 -8.925781 11.546875 -8.84375 C 11.015625 -8.757812 10.535156 -8.6875 10.109375 -8.625 C 9.109375 -8.476562 8.300781 -8.191406 7.6875 -7.765625 C 7.070312 -7.347656 6.765625 -6.738281 6.765625 -5.9375 C 6.765625 -5.15625 7.046875 -4.5625 7.609375 -4.15625 C 8.179688 -3.75 8.910156 -3.546875 9.796875 -3.546875 Z M 9.796875 -3.546875 "/></g></g></g><g fill="#373737" fill-opacity="1"><g transform="translate(249.948264, 32.934517)"><g><path d="M 8 -11.90625 L 8 0 L 2.28125 0 L 2.28125 -20.59375 L 7.71875 -20.59375 L 7.71875 -16.96875 L 7.96875 -16.96875 C 8.425781 -18.164062 9.191406 -19.113281 10.265625 -19.8125 C 11.335938 -20.519531 12.632812 -20.875 14.15625 -20.875 C 16.300781 -20.875 18.019531 -20.179688 19.3125 -18.796875 C 20.613281 -17.410156 21.265625 -15.515625 21.265625 -13.109375 L 21.265625 0 L 15.5625 0 L 15.5625 -12.09375 C 15.5625 -13.351562 15.234375 -14.335938 14.578125 -15.046875 C 13.929688 -15.765625 13.035156 -16.125 11.890625 -16.125 C 10.742188 -16.125 9.804688 -15.753906 9.078125 -15.015625 C 8.359375 -14.273438 8 -13.238281 8 -11.90625 Z M 8 -11.90625 "/></g></g></g><g fill="#373737" fill-opacity="1"><g transform="translate(273.42495, 32.934517)"><g/></g></g><g fill="#373737" fill-opacity="1"><g transform="translate(282.180101, 32.934517)"><g><path d="M 2.390625 0 L 2.390625 -27.46875 L 13.390625 -27.46875 C 16.421875 -27.46875 18.695312 -26.804688 20.21875 -25.484375 C 21.738281 -24.171875 22.5 -22.484375 22.5 -20.421875 C 22.5 -18.804688 22.03125 -17.5 21.09375 -16.5 C 20.15625 -15.5 18.972656 -14.84375 17.546875 -14.53125 L 17.546875 -14.25 C 18.585938 -14.207031 19.566406 -13.910156 20.484375 -13.359375 C 21.398438 -12.816406 22.144531 -12.054688 22.71875 -11.078125 C 23.289062 -10.109375 23.578125 -8.945312 23.578125 -7.59375 C 23.578125 -6.132812 23.21875 -4.832031 22.5 -3.6875 C 21.78125 -2.539062 20.71875 -1.640625 19.3125 -0.984375 C 17.90625 -0.328125 16.175781 0 14.125 0 Z M 8.1875 -4.75 L 12.921875 -4.75 C 14.554688 -4.75 15.738281 -5.0625 16.46875 -5.6875 C 17.207031 -6.3125 17.578125 -7.140625 17.578125 -8.171875 C 17.578125 -9.304688 17.171875 -10.234375 16.359375 -10.953125 C 15.554688 -11.679688 14.457031 -12.046875 13.0625 -12.046875 L 8.1875 -12.046875 Z M 8.1875 -15.96875 L 12.5 -15.96875 C 13.6875 -15.96875 14.671875 -16.28125 15.453125 -16.90625 C 16.242188 -17.53125 16.640625 -18.378906 16.640625 -19.453125 C 16.640625 -20.453125 16.285156 -21.253906 15.578125 -21.859375 C 14.878906 -22.460938 13.890625 -22.765625 12.609375 -22.765625 L 8.1875 -22.765625 Z M 8.1875 -15.96875 "/></g></g></g><g fill="#373737" fill-opacity="1"><g transform="translate(307.131627, 32.934517)"><g><path d="M 11.59375 0.40625 C 9.507812 0.40625 7.707031 -0.0351562 6.1875 -0.921875 C 4.675781 -1.816406 3.507812 -3.0625 2.6875 -4.65625 C 1.863281 -6.25 1.453125 -8.101562 1.453125 -10.21875 C 1.453125 -12.34375 1.863281 -14.203125 2.6875 -15.796875 C 3.507812 -17.398438 4.675781 -18.644531 6.1875 -19.53125 C 7.707031 -20.425781 9.507812 -20.875 11.59375 -20.875 C 13.675781 -20.875 15.472656 -20.425781 16.984375 -19.53125 C 18.503906 -18.644531 19.671875 -17.398438 20.484375 -15.796875 C 21.304688 -14.203125 21.71875 -12.34375 21.71875 -10.21875 C 21.71875 -8.101562 21.304688 -6.25 20.484375 -4.65625 C 19.671875 -3.0625 18.503906 -1.816406 16.984375 -0.921875 C 15.472656 -0.0351562 13.675781 0.40625 11.59375 0.40625 Z M 11.609375 -4.015625 C 13.023438 -4.015625 14.097656 -4.601562 14.828125 -5.78125 C 15.554688 -6.96875 15.921875 -8.460938 15.921875 -10.265625 C 15.921875 -12.054688 15.554688 -13.546875 14.828125 -14.734375 C 14.097656 -15.921875 13.023438 -16.515625 11.609375 -16.515625 C 10.171875 -16.515625 9.082031 -15.921875 8.34375 -14.734375 C 7.613281 -13.546875 7.25 -12.054688 7.25 -10.265625 C 7.25 -8.460938 7.613281 -6.96875 8.34375 -5.78125 C 9.082031 -4.601562 10.171875 -4.015625 11.609375 -4.015625 Z M 11.609375 -4.015625 "/></g></g></g><g fill="#373737" fill-opacity="1"><g transform="translate(330.299946, 32.934517)"><g><path d="M 8.15625 0.390625 C 6.1875 0.390625 4.550781 -0.125 3.25 -1.15625 C 1.957031 -2.1875 1.3125 -3.71875 1.3125 -5.75 C 1.3125 -7.289062 1.671875 -8.5 2.390625 -9.375 C 3.117188 -10.25 4.070312 -10.890625 5.25 -11.296875 C 6.425781 -11.703125 7.691406 -11.96875 9.046875 -12.09375 C 10.835938 -12.269531 12.117188 -12.457031 12.890625 -12.65625 C 13.660156 -12.851562 14.046875 -13.285156 14.046875 -13.953125 L 14.046875 -14.03125 C 14.046875 -14.875 13.78125 -15.53125 13.25 -16 C 12.71875 -16.46875 11.960938 -16.703125 10.984375 -16.703125 C 9.953125 -16.703125 9.132812 -16.476562 8.53125 -16.03125 C 7.925781 -15.582031 7.523438 -15.015625 7.328125 -14.328125 L 2.03125 -14.75 C 2.425781 -16.625 3.40625 -18.113281 4.96875 -19.21875 C 6.53125 -20.320312 8.546875 -20.875 11.015625 -20.875 C 12.535156 -20.875 13.960938 -20.628906 15.296875 -20.140625 C 16.628906 -19.660156 17.703125 -18.90625 18.515625 -17.875 C 19.335938 -16.851562 19.75 -15.523438 19.75 -13.890625 L 19.75 0 L 14.34375 0 L 14.34375 -2.859375 L 14.171875 -2.859375 C 13.671875 -1.898438 12.921875 -1.117188 11.921875 -0.515625 C 10.929688 0.0859375 9.675781 0.390625 8.15625 0.390625 Z M 9.796875 -3.546875 C 11.046875 -3.546875 12.070312 -3.910156 12.875 -4.640625 C 13.675781 -5.367188 14.078125 -6.273438 14.078125 -7.359375 L 14.078125 -9.546875 C 13.859375 -9.398438 13.515625 -9.265625 13.046875 -9.140625 C 12.578125 -9.023438 12.078125 -8.925781 11.546875 -8.84375 C 11.015625 -8.757812 10.535156 -8.6875 10.109375 -8.625 C 9.109375 -8.476562 8.300781 -8.191406 7.6875 -7.765625 C 7.070312 -7.347656 6.765625 -6.738281 6.765625 -5.9375 C 6.765625 -5.15625 7.046875 -4.5625 7.609375 -4.15625 C 8.179688 -3.75 8.910156 -3.546875 9.796875 -3.546875 Z M 9.796875 -3.546875 "/></g></g></g><g fill="#373737" fill-opacity="1"><g transform="translate(352.207934, 32.934517)"><g><path d="M 2.28125 0 L 2.28125 -20.59375 L 7.8125 -20.59375 L 7.8125 -17 L 8.03125 -17 C 8.40625 -18.28125 9.03125 -19.25 9.90625 -19.90625 C 10.789062 -20.5625 11.816406 -20.890625 12.984375 -20.890625 C 13.535156 -20.890625 14.046875 -20.820312 14.515625 -20.6875 C 14.992188 -20.550781 15.421875 -20.367188 15.796875 -20.140625 L 14.078125 -15.421875 C 13.804688 -15.554688 13.515625 -15.671875 13.203125 -15.765625 C 12.890625 -15.859375 12.535156 -15.90625 12.140625 -15.90625 C 10.984375 -15.90625 10.003906 -15.507812 9.203125 -14.71875 C 8.398438 -13.9375 8 -12.914062 8 -11.65625 L 8 0 Z M 2.28125 0 "/></g></g></g><g fill="#373737" fill-opacity="1"><g transform="translate(368.390889, 32.934517)"><g><path d="M 9.875 0.328125 C 8.3125 0.328125 6.894531 -0.0703125 5.625 -0.875 C 4.363281 -1.6875 3.363281 -2.878906 2.625 -4.453125 C 1.882812 -6.035156 1.515625 -7.972656 1.515625 -10.265625 C 1.515625 -12.628906 1.894531 -14.59375 2.65625 -16.15625 C 3.425781 -17.726562 4.441406 -18.90625 5.703125 -19.6875 C 6.972656 -20.476562 8.359375 -20.875 9.859375 -20.875 C 11.015625 -20.875 11.976562 -20.675781 12.75 -20.28125 C 13.519531 -19.894531 14.144531 -19.414062 14.625 -18.84375 C 15.101562 -18.269531 15.46875 -17.703125 15.71875 -17.140625 L 15.890625 -17.140625 L 15.890625 -27.46875 L 21.59375 -27.46875 L 21.59375 0 L 15.953125 0 L 15.953125 -3.296875 L 15.71875 -3.296875 C 15.457031 -2.722656 15.082031 -2.15625 14.59375 -1.59375 C 14.101562 -1.039062 13.46875 -0.582031 12.6875 -0.21875 C 11.914062 0.144531 10.976562 0.328125 9.875 0.328125 Z M 11.6875 -4.21875 C 13.0625 -4.21875 14.125 -4.769531 14.875 -5.875 C 15.632812 -6.988281 16.015625 -8.460938 16.015625 -10.296875 C 16.015625 -12.140625 15.640625 -13.601562 14.890625 -14.6875 C 14.140625 -15.78125 13.070312 -16.328125 11.6875 -16.328125 C 10.269531 -16.328125 9.191406 -15.769531 8.453125 -14.65625 C 7.710938 -13.539062 7.34375 -12.085938 7.34375 -10.296875 C 7.34375 -8.503906 7.710938 -7.039062 8.453125 -5.90625 C 9.203125 -4.78125 10.28125 -4.21875 11.6875 -4.21875 Z M 11.6875 -4.21875 "/></g></g></g><g clip-path="url(#2323c1960c)"><path fill="#5e17eb" d="M 267.945312 39.09375 C 259.578125 40.546875 251.546875 43.589844 243.050781 44.367188 C 241.277344 44.53125 239.484375 44.585938 237.703125 44.511719 C 235.867188 44.433594 233.90625 44.28125 232.199219 43.5625 C 230.953125 43.035156 229.871094 42.191406 228.769531 41.417969 C 227.464844 40.503906 226.132812 39.667969 224.605469 39.183594 C 221.40625 38.179688 218.039062 39.558594 215.171875 40.921875 C 213.632812 41.65625 212.117188 42.429688 210.507812 43 C 209.816406 43.246094 209.070312 43.441406 208.503906 43.519531 C 207.683594 43.632812 207.109375 43.625 206.429688 43.441406 C 206.410156 43.4375 206.148438 43.34375 206.136719 43.339844 C 206.035156 43.296875 205.933594 43.25 205.835938 43.199219 C 205.566406 43.070312 205.3125 42.917969 205.0625 42.761719 C 204.519531 42.429688 204.003906 42.054688 203.460938 41.71875 C 202.164062 40.921875 200.675781 40.515625 199.152344 40.628906 C 195.730469 40.886719 192.71875 42.976562 189.949219 44.820312 C 188.628906 45.695312 187.300781 46.5625 185.875 47.257812 C 185.199219 47.582031 184.5 47.828125 183.773438 48 C 183.601562 48.039062 183.429688 48.070312 183.253906 48.101562 C 183.242188 48.105469 182.898438 48.132812 182.914062 48.140625 C 182.8125 48.140625 182.707031 48.132812 182.605469 48.125 C 182.5625 48.121094 182.519531 48.113281 182.476562 48.109375 C 182.460938 48.101562 182.4375 48.09375 182.40625 48.085938 C 182.375 48.074219 182.308594 48.042969 182.261719 48.019531 C 182.210938 47.984375 182.160156 47.945312 182.113281 47.90625 C 182.386719 48.128906 182.160156 47.902344 182.011719 47.734375 C 181.976562 47.652344 181.8125 47.371094 181.777344 47.289062 C 181.664062 47.035156 181.574219 46.769531 181.484375 46.503906 C 181.109375 45.429688 180.75 44.320312 180.039062 43.410156 C 178.066406 40.878906 174.8125 40.613281 171.917969 41.398438 C 169.054688 42.175781 166.449219 43.8125 163.910156 45.296875 C 162.816406 45.9375 161.707031 46.554688 160.609375 47.179688 C 160.355469 47.324219 160.097656 47.46875 159.839844 47.605469 C 159.816406 47.617188 159.679688 47.683594 159.617188 47.714844 C 159.539062 47.75 159.460938 47.785156 159.378906 47.820312 C 159.199219 47.894531 159.015625 47.960938 158.828125 48.015625 C 158.617188 47.402344 158.617188 46.738281 158.597656 46.097656 C 158.546875 44.675781 158.378906 43.25 157.855469 41.917969 C 157.0625 39.898438 155.367188 38.488281 153.203125 38.238281 C 151.097656 37.992188 148.914062 38.71875 147.035156 39.617188 C 143.371094 41.367188 139.960938 43.832031 136.988281 46.59375 C 135.882812 47.617188 137.425781 49.359375 138.546875 48.34375 C 141.621094 45.550781 145.167969 43.046875 149.089844 41.613281 C 150.015625 41.277344 150.984375 41.046875 151.96875 40.996094 C 152.054688 40.992188 152.496094 41.003906 152.453125 40.996094 C 152.613281 41.011719 152.777344 41.03125 152.9375 41.058594 C 153.019531 41.070312 153.101562 41.085938 153.183594 41.101562 C 153.023438 41.070312 153.289062 41.140625 153.316406 41.148438 C 153.425781 41.183594 153.835938 41.378906 153.800781 41.351562 C 154.472656 41.746094 154.773438 42.246094 155.023438 42.859375 C 155.117188 43.085938 155.191406 43.320312 155.261719 43.558594 C 155.265625 43.566406 155.265625 43.574219 155.269531 43.582031 C 155.273438 43.605469 155.28125 43.640625 155.292969 43.691406 C 155.324219 43.828125 155.347656 43.964844 155.375 44.101562 C 155.492188 44.761719 155.546875 45.425781 155.550781 46.089844 C 155.5625 47.5625 155.621094 49.222656 156.683594 50.363281 C 157.546875 51.289062 158.839844 51.304688 159.964844 50.953125 C 161.128906 50.589844 162.207031 49.871094 163.25 49.261719 C 164.316406 48.636719 165.394531 48.03125 166.460938 47.402344 C 167.699219 46.667969 168.949219 45.957031 170.246094 45.339844 C 170.871094 45.046875 171.511719 44.796875 172.164062 44.578125 C 172.484375 44.472656 172.8125 44.378906 173.140625 44.296875 C 173.609375 44.179688 173.671875 44.175781 174.007812 44.132812 C 174.316406 44.097656 174.628906 44.085938 174.941406 44.089844 C 174.964844 44.089844 175.265625 44.109375 175.246094 44.101562 C 175.355469 44.117188 175.464844 44.136719 175.570312 44.15625 C 175.71875 44.183594 175.859375 44.222656 176.003906 44.257812 C 176.046875 44.269531 176.078125 44.28125 176.101562 44.285156 C 176.125 44.292969 176.148438 44.304688 176.179688 44.316406 C 176.320312 44.375 176.453125 44.441406 176.585938 44.511719 C 176.671875 44.558594 176.753906 44.605469 176.835938 44.65625 C 176.855469 44.671875 176.875 44.6875 176.898438 44.703125 C 177.089844 44.847656 177.273438 45.007812 177.445312 45.179688 C 177.390625 45.132812 177.570312 45.34375 177.597656 45.382812 C 177.671875 45.488281 177.742188 45.605469 177.808594 45.71875 C 177.816406 45.730469 177.820312 45.742188 177.828125 45.75 C 177.835938 45.769531 177.847656 45.796875 177.863281 45.828125 C 177.917969 45.949219 177.96875 46.070312 178.019531 46.195312 C 178.136719 46.480469 178.238281 46.777344 178.335938 47.070312 C 178.6875 48.117188 179.011719 49.21875 179.769531 50.054688 C 180.839844 51.234375 182.363281 51.492188 183.878906 51.273438 C 187.136719 50.800781 189.941406 48.75 192.621094 46.984375 C 193.273438 46.554688 193.933594 46.132812 194.605469 45.734375 C 194.9375 45.539062 195.273438 45.351562 195.617188 45.167969 C 195.972656 44.976562 196.371094 44.785156 196.585938 44.691406 C 197.277344 44.398438 197.996094 44.171875 198.726562 44.007812 C 199.316406 43.875 199.960938 43.875 200.523438 44.003906 C 200.675781 44.039062 200.824219 44.085938 200.972656 44.136719 C 200.652344 44.03125 201.109375 44.203125 201.136719 44.214844 C 201.40625 44.339844 201.667969 44.488281 201.921875 44.640625 C 202.472656 44.96875 202.988281 45.347656 203.53125 45.691406 C 204.863281 46.53125 206.316406 46.933594 207.886719 46.890625 C 211.363281 46.800781 214.472656 44.832031 217.554688 43.464844 C 218.292969 43.136719 219.042969 42.84375 219.808594 42.601562 C 220.613281 42.347656 221.121094 42.273438 222 42.191406 C 222.171875 42.175781 222.34375 42.171875 222.515625 42.171875 C 222.550781 42.171875 222.578125 42.167969 222.601562 42.167969 C 222.632812 42.171875 222.675781 42.179688 222.75 42.1875 C 223.070312 42.21875 223.386719 42.292969 223.699219 42.375 C 223.722656 42.382812 223.746094 42.386719 223.765625 42.390625 C 223.792969 42.402344 223.832031 42.417969 223.898438 42.441406 C 224.050781 42.496094 224.195312 42.5625 224.34375 42.625 C 224.691406 42.773438 225.023438 42.957031 225.351562 43.144531 C 225.355469 43.144531 225.648438 43.324219 225.632812 43.308594 C 225.742188 43.382812 225.855469 43.457031 225.96875 43.53125 C 226.246094 43.714844 226.523438 43.910156 226.796875 44.101562 C 227.398438 44.527344 227.996094 44.957031 228.609375 45.363281 C 230.152344 46.378906 231.671875 47.089844 233.484375 47.457031 C 237.503906 48.269531 241.644531 48.171875 245.691406 47.632812 C 253.546875 46.59375 261.1875 44.089844 268.570312 41.296875 C 269.792969 40.835938 269.21875 38.875 267.945312 39.09375 Z M 267.945312 39.09375 " fill-opacity="1" fill-rule="nonzero"/></g></svg>