<svg xmlns="http://www.w3.org/2000/svg" xmlns:xlink="http://www.w3.org/1999/xlink" width="700" zoomAndPan="magnify" viewBox="0 0 525 60" height="80" preserveAspectRatio="xMidYMid meet" version="1.0"><defs><g/><clipPath id="5e0d148968"><path d="M 386.390625 3.042969 L 489.890625 3.042969 L 489.890625 54.023438 L 386.390625 54.023438 Z M 386.390625 3.042969 " clip-rule="nonzero"/></clipPath></defs><g clip-path="url(#5e0d148968)"><path fill="#5e17eb" d="M 432.96875 3.042969 C 432.640625 3.042969 432.308594 3.046875 431.980469 3.054688 C 430.980469 3.074219 429.972656 3.125 428.960938 3.277344 L 429.054688 3.917969 C 430.023438 3.773438 431.007812 3.726562 431.992188 3.710938 C 433.292969 3.6875 434.597656 3.726562 435.898438 3.796875 C 439.230469 3.980469 442.550781 4.371094 445.851562 4.878906 C 449.730469 5.476562 453.582031 6.25 457.386719 7.199219 C 461.320312 8.183594 465.207031 9.351562 468.992188 10.796875 C 472.511719 12.136719 475.949219 13.707031 479.136719 15.695312 C 481.84375 17.386719 484.394531 19.382812 486.296875 21.910156 C 487.125 23.011719 487.816406 24.21875 488.289062 25.503906 C 488.75 26.753906 488.996094 28.089844 488.996094 29.421875 C 489 30.871094 488.71875 32.320312 488.238281 33.695312 C 487.664062 35.351562 486.8125 36.90625 485.816406 38.359375 C 483.785156 41.332031 481.058594 43.800781 477.996094 45.707031 C 474.929688 47.617188 471.542969 48.988281 468.0625 49.996094 C 461.542969 51.886719 454.707031 52.527344 447.894531 52.769531 C 437.847656 53.121094 427.757812 52.902344 417.851562 51.371094 C 411.195312 50.339844 404.570312 48.773438 398.621094 45.75 C 396.511719 44.679688 394.503906 43.425781 392.75 41.882812 C 391.339844 40.644531 390.089844 39.226562 389.191406 37.613281 C 388.421875 36.230469 387.910156 34.699219 387.761719 33.140625 C 387.613281 31.621094 387.8125 30.0625 388.285156 28.59375 C 388.800781 26.984375 389.640625 25.476562 390.664062 24.101562 C 391.84375 22.511719 393.269531 21.105469 394.824219 19.847656 C 398.6875 16.71875 403.277344 14.535156 408.039062 12.945312 C 414.117188 10.914062 420.515625 9.886719 426.9375 9.558594 C 434.8125 9.15625 442.734375 9.832031 450.496094 11.296875 L 450.785156 9.742188 C 442.914062 8.28125 434.867188 7.628906 426.855469 8.0625 C 420.328125 8.417969 413.800781 9.492188 407.582031 11.589844 C 402.710938 13.226562 397.980469 15.507812 393.953125 18.78125 C 392.332031 20.097656 390.832031 21.59375 389.574219 23.292969 C 388.480469 24.769531 387.578125 26.414062 387.011719 28.191406 C 386.492188 29.816406 386.28125 31.554688 386.449219 33.269531 C 386.625 35.03125 387.195312 36.726562 388.058594 38.25 C 389.058594 40.015625 390.402344 41.542969 391.90625 42.847656 C 393.773438 44.46875 395.875 45.777344 398.054688 46.871094 C 404.195312 49.953125 410.949219 51.535156 417.671875 52.542969 C 427.6875 54.050781 437.847656 54.238281 447.933594 53.847656 C 454.789062 53.585938 461.707031 52.90625 468.34375 50.960938 C 471.890625 49.921875 475.355469 48.503906 478.507812 46.527344 C 481.667969 44.550781 484.476562 41.976562 486.582031 38.882812 C 487.609375 37.375 488.496094 35.742188 489.097656 33.992188 C 489.605469 32.53125 489.894531 30.980469 489.890625 29.417969 C 489.882812 27.976562 489.613281 26.542969 489.113281 25.195312 C 488.601562 23.820312 487.863281 22.542969 486.984375 21.390625 C 484.976562 18.75 482.339844 16.699219 479.574219 14.992188 C 476.320312 12.976562 472.828125 11.394531 469.269531 10.054688 C 465.445312 8.613281 461.527344 7.449219 457.566406 6.472656 C 453.734375 5.53125 449.859375 4.769531 445.957031 4.179688 C 442.636719 3.683594 439.292969 3.300781 435.933594 3.128906 C 434.949219 3.078125 433.960938 3.046875 432.96875 3.042969 " fill-opacity="1" fill-rule="nonzero"/></g><g fill="#373737" fill-opacity="1"><g transform="translate(31.606123, 43.500001)"><g><path d="M 26.625 -17.84375 L 20.75 -17.84375 C 20.519531 -19.351562 19.875 -20.539062 18.8125 -21.40625 C 17.75 -22.269531 16.421875 -22.703125 14.828125 -22.703125 C 12.703125 -22.703125 11 -21.921875 9.71875 -20.359375 C 8.4375 -18.804688 7.796875 -16.597656 7.796875 -13.734375 C 7.796875 -10.796875 8.441406 -8.566406 9.734375 -7.046875 C 11.023438 -5.523438 12.710938 -4.765625 14.796875 -4.765625 C 16.335938 -4.765625 17.644531 -5.164062 18.71875 -5.96875 C 19.789062 -6.78125 20.46875 -7.921875 20.75 -9.390625 L 26.625 -9.359375 C 26.414062 -7.679688 25.8125 -6.097656 24.8125 -4.609375 C 23.820312 -3.128906 22.472656 -1.925781 20.765625 -1 C 19.066406 -0.0820312 17.046875 0.375 14.703125 0.375 C 12.253906 0.375 10.066406 -0.175781 8.140625 -1.28125 C 6.210938 -2.394531 4.691406 -4 3.578125 -6.09375 C 2.460938 -8.195312 1.90625 -10.742188 1.90625 -13.734375 C 1.90625 -16.722656 2.46875 -19.269531 3.59375 -21.375 C 4.71875 -23.476562 6.242188 -25.082031 8.171875 -26.1875 C 10.109375 -27.289062 12.285156 -27.84375 14.703125 -27.84375 C 16.816406 -27.84375 18.722656 -27.453125 20.421875 -26.671875 C 22.128906 -25.890625 23.523438 -24.753906 24.609375 -23.265625 C 25.703125 -21.773438 26.375 -19.96875 26.625 -17.84375 Z M 26.625 -17.84375 "/></g></g></g><g fill="#373737" fill-opacity="1"><g transform="translate(60.005036, 43.500001)"><g><path d="M 2.28125 0 L 2.28125 -20.59375 L 7.8125 -20.59375 L 7.8125 -17 L 8.03125 -17 C 8.40625 -18.28125 9.03125 -19.25 9.90625 -19.90625 C 10.789062 -20.5625 11.816406 -20.890625 12.984375 -20.890625 C 13.535156 -20.890625 14.046875 -20.820312 14.515625 -20.6875 C 14.992188 -20.550781 15.421875 -20.367188 15.796875 -20.140625 L 14.078125 -15.421875 C 13.804688 -15.554688 13.515625 -15.671875 13.203125 -15.765625 C 12.890625 -15.859375 12.535156 -15.90625 12.140625 -15.90625 C 10.984375 -15.90625 10.003906 -15.507812 9.203125 -14.71875 C 8.398438 -13.9375 8 -12.914062 8 -11.65625 L 8 0 Z M 2.28125 0 "/></g></g></g><g fill="#373737" fill-opacity="1"><g transform="translate(76.188927, 43.500001)"><g><path d="M 11.671875 0.40625 C 9.554688 0.40625 7.734375 -0.0234375 6.203125 -0.890625 C 4.679688 -1.753906 3.507812 -2.976562 2.6875 -4.5625 C 1.863281 -6.15625 1.453125 -8.035156 1.453125 -10.203125 C 1.453125 -12.328125 1.863281 -14.1875 2.6875 -15.78125 C 3.507812 -17.382812 4.664062 -18.632812 6.15625 -19.53125 C 7.65625 -20.425781 9.414062 -20.875 11.4375 -20.875 C 13.25 -20.875 14.882812 -20.488281 16.34375 -19.71875 C 17.8125 -18.945312 18.972656 -17.785156 19.828125 -16.234375 C 20.691406 -14.679688 21.125 -12.738281 21.125 -10.40625 L 21.125 -8.84375 L 7.09375 -8.84375 L 7.09375 -8.828125 C 7.09375 -7.285156 7.507812 -6.070312 8.34375 -5.1875 C 9.1875 -4.300781 10.328125 -3.859375 11.765625 -3.859375 C 12.722656 -3.859375 13.546875 -4.054688 14.234375 -4.453125 C 14.929688 -4.859375 15.425781 -5.457031 15.71875 -6.25 L 21 -5.90625 C 20.59375 -3.988281 19.570312 -2.457031 17.9375 -1.3125 C 16.300781 -0.164062 14.210938 0.40625 11.671875 0.40625 Z M 7.09375 -12.375 L 15.75 -12.375 C 15.738281 -13.601562 15.34375 -14.613281 14.5625 -15.40625 C 13.78125 -16.207031 12.769531 -16.609375 11.53125 -16.609375 C 10.257812 -16.609375 9.21875 -16.195312 8.40625 -15.375 C 7.59375 -14.550781 7.15625 -13.550781 7.09375 -12.375 Z M 7.09375 -12.375 "/></g></g></g><g fill="#373737" fill-opacity="1"><g transform="translate(98.755199, 43.500001)"><g><path d="M 8.15625 0.390625 C 6.1875 0.390625 4.550781 -0.125 3.25 -1.15625 C 1.957031 -2.1875 1.3125 -3.71875 1.3125 -5.75 C 1.3125 -7.289062 1.671875 -8.5 2.390625 -9.375 C 3.117188 -10.25 4.070312 -10.890625 5.25 -11.296875 C 6.425781 -11.703125 7.691406 -11.96875 9.046875 -12.09375 C 10.835938 -12.269531 12.117188 -12.457031 12.890625 -12.65625 C 13.660156 -12.851562 14.046875 -13.285156 14.046875 -13.953125 L 14.046875 -14.03125 C 14.046875 -14.875 13.78125 -15.53125 13.25 -16 C 12.71875 -16.46875 11.960938 -16.703125 10.984375 -16.703125 C 9.953125 -16.703125 9.132812 -16.476562 8.53125 -16.03125 C 7.925781 -15.582031 7.523438 -15.015625 7.328125 -14.328125 L 2.03125 -14.75 C 2.425781 -16.625 3.40625 -18.113281 4.96875 -19.21875 C 6.53125 -20.320312 8.546875 -20.875 11.015625 -20.875 C 12.535156 -20.875 13.960938 -20.628906 15.296875 -20.140625 C 16.628906 -19.660156 17.703125 -18.90625 18.515625 -17.875 C 19.335938 -16.851562 19.75 -15.523438 19.75 -13.890625 L 19.75 0 L 14.34375 0 L 14.34375 -2.859375 L 14.171875 -2.859375 C 13.671875 -1.898438 12.921875 -1.117188 11.921875 -0.515625 C 10.929688 0.0859375 9.675781 0.390625 8.15625 0.390625 Z M 9.796875 -3.546875 C 11.046875 -3.546875 12.070312 -3.910156 12.875 -4.640625 C 13.675781 -5.367188 14.078125 -6.273438 14.078125 -7.359375 L 14.078125 -9.546875 C 13.859375 -9.398438 13.515625 -9.265625 13.046875 -9.140625 C 12.578125 -9.023438 12.078125 -8.925781 11.546875 -8.84375 C 11.015625 -8.757812 10.535156 -8.6875 10.109375 -8.625 C 9.109375 -8.476562 8.300781 -8.191406 7.6875 -7.765625 C 7.070312 -7.347656 6.765625 -6.738281 6.765625 -5.9375 C 6.765625 -5.15625 7.046875 -4.5625 7.609375 -4.15625 C 8.179688 -3.75 8.910156 -3.546875 9.796875 -3.546875 Z M 9.796875 -3.546875 "/></g></g></g><g fill="#373737" fill-opacity="1"><g transform="translate(120.664466, 43.500001)"><g><path d="M 13.234375 -20.59375 L 13.234375 -16.3125 L 9.359375 -16.3125 L 9.359375 -6.328125 C 9.359375 -5.546875 9.535156 -5.015625 9.890625 -4.734375 C 10.253906 -4.453125 10.722656 -4.3125 11.296875 -4.3125 C 11.554688 -4.3125 11.820312 -4.335938 12.09375 -4.390625 C 12.363281 -4.441406 12.570312 -4.476562 12.71875 -4.5 L 13.609375 -0.25 C 13.328125 -0.164062 12.925781 -0.0664062 12.40625 0.046875 C 11.882812 0.171875 11.253906 0.25 10.515625 0.28125 C 8.441406 0.375 6.773438 -0.0703125 5.515625 -1.0625 C 4.265625 -2.050781 3.640625 -3.554688 3.640625 -5.578125 L 3.640625 -16.3125 L 0.828125 -16.3125 L 0.828125 -20.59375 L 3.640625 -20.59375 L 3.640625 -25.53125 L 9.359375 -25.53125 L 9.359375 -20.59375 Z M 13.234375 -20.59375 "/></g></g></g><g fill="#373737" fill-opacity="1"><g transform="translate(135.333216, 43.500001)"><g><path d="M 11.671875 0.40625 C 9.554688 0.40625 7.734375 -0.0234375 6.203125 -0.890625 C 4.679688 -1.753906 3.507812 -2.976562 2.6875 -4.5625 C 1.863281 -6.15625 1.453125 -8.035156 1.453125 -10.203125 C 1.453125 -12.328125 1.863281 -14.1875 2.6875 -15.78125 C 3.507812 -17.382812 4.664062 -18.632812 6.15625 -19.53125 C 7.65625 -20.425781 9.414062 -20.875 11.4375 -20.875 C 13.25 -20.875 14.882812 -20.488281 16.34375 -19.71875 C 17.8125 -18.945312 18.972656 -17.785156 19.828125 -16.234375 C 20.691406 -14.679688 21.125 -12.738281 21.125 -10.40625 L 21.125 -8.84375 L 7.09375 -8.84375 L 7.09375 -8.828125 C 7.09375 -7.285156 7.507812 -6.070312 8.34375 -5.1875 C 9.1875 -4.300781 10.328125 -3.859375 11.765625 -3.859375 C 12.722656 -3.859375 13.546875 -4.054688 14.234375 -4.453125 C 14.929688 -4.859375 15.425781 -5.457031 15.71875 -6.25 L 21 -5.90625 C 20.59375 -3.988281 19.570312 -2.457031 17.9375 -1.3125 C 16.300781 -0.164062 14.210938 0.40625 11.671875 0.40625 Z M 7.09375 -12.375 L 15.75 -12.375 C 15.738281 -13.601562 15.34375 -14.613281 14.5625 -15.40625 C 13.78125 -16.207031 12.769531 -16.609375 11.53125 -16.609375 C 10.257812 -16.609375 9.21875 -16.195312 8.40625 -15.375 C 7.59375 -14.550781 7.15625 -13.550781 7.09375 -12.375 Z M 7.09375 -12.375 "/></g></g></g><g fill="#373737" fill-opacity="1"><g transform="translate(157.899488, 43.500001)"><g/></g></g><g fill="#373737" fill-opacity="1"><g transform="translate(166.655144, 43.500001)"><g><path d="M 8.15625 0.390625 C 6.1875 0.390625 4.550781 -0.125 3.25 -1.15625 C 1.957031 -2.1875 1.3125 -3.71875 1.3125 -5.75 C 1.3125 -7.289062 1.671875 -8.5 2.390625 -9.375 C 3.117188 -10.25 4.070312 -10.890625 5.25 -11.296875 C 6.425781 -11.703125 7.691406 -11.96875 9.046875 -12.09375 C 10.835938 -12.269531 12.117188 -12.457031 12.890625 -12.65625 C 13.660156 -12.851562 14.046875 -13.285156 14.046875 -13.953125 L 14.046875 -14.03125 C 14.046875 -14.875 13.78125 -15.53125 13.25 -16 C 12.71875 -16.46875 11.960938 -16.703125 10.984375 -16.703125 C 9.953125 -16.703125 9.132812 -16.476562 8.53125 -16.03125 C 7.925781 -15.582031 7.523438 -15.015625 7.328125 -14.328125 L 2.03125 -14.75 C 2.425781 -16.625 3.40625 -18.113281 4.96875 -19.21875 C 6.53125 -20.320312 8.546875 -20.875 11.015625 -20.875 C 12.535156 -20.875 13.960938 -20.628906 15.296875 -20.140625 C 16.628906 -19.660156 17.703125 -18.90625 18.515625 -17.875 C 19.335938 -16.851562 19.75 -15.523438 19.75 -13.890625 L 19.75 0 L 14.34375 0 L 14.34375 -2.859375 L 14.171875 -2.859375 C 13.671875 -1.898438 12.921875 -1.117188 11.921875 -0.515625 C 10.929688 0.0859375 9.675781 0.390625 8.15625 0.390625 Z M 9.796875 -3.546875 C 11.046875 -3.546875 12.070312 -3.910156 12.875 -4.640625 C 13.675781 -5.367188 14.078125 -6.273438 14.078125 -7.359375 L 14.078125 -9.546875 C 13.859375 -9.398438 13.515625 -9.265625 13.046875 -9.140625 C 12.578125 -9.023438 12.078125 -8.925781 11.546875 -8.84375 C 11.015625 -8.757812 10.535156 -8.6875 10.109375 -8.625 C 9.109375 -8.476562 8.300781 -8.191406 7.6875 -7.765625 C 7.070312 -7.347656 6.765625 -6.738281 6.765625 -5.9375 C 6.765625 -5.15625 7.046875 -4.5625 7.609375 -4.15625 C 8.179688 -3.75 8.910156 -3.546875 9.796875 -3.546875 Z M 9.796875 -3.546875 "/></g></g></g><g fill="#373737" fill-opacity="1"><g transform="translate(188.564411, 43.500001)"><g><path d="M 8 -11.90625 L 8 0 L 2.28125 0 L 2.28125 -20.59375 L 7.71875 -20.59375 L 7.71875 -16.96875 L 7.96875 -16.96875 C 8.425781 -18.164062 9.191406 -19.113281 10.265625 -19.8125 C 11.335938 -20.519531 12.632812 -20.875 14.15625 -20.875 C 16.300781 -20.875 18.019531 -20.179688 19.3125 -18.796875 C 20.613281 -17.410156 21.265625 -15.515625 21.265625 -13.109375 L 21.265625 0 L 15.5625 0 L 15.5625 -12.09375 C 15.5625 -13.351562 15.234375 -14.335938 14.578125 -15.046875 C 13.929688 -15.765625 13.035156 -16.125 11.890625 -16.125 C 10.742188 -16.125 9.804688 -15.753906 9.078125 -15.015625 C 8.359375 -14.273438 8 -13.238281 8 -11.90625 Z M 8 -11.90625 "/></g></g></g><g fill="#373737" fill-opacity="1"><g transform="translate(212.042457, 43.500001)"><g><path d="M 9.875 0.328125 C 8.3125 0.328125 6.894531 -0.0703125 5.625 -0.875 C 4.363281 -1.6875 3.363281 -2.878906 2.625 -4.453125 C 1.882812 -6.035156 1.515625 -7.972656 1.515625 -10.265625 C 1.515625 -12.628906 1.894531 -14.59375 2.65625 -16.15625 C 3.425781 -17.726562 4.441406 -18.90625 5.703125 -19.6875 C 6.972656 -20.476562 8.359375 -20.875 9.859375 -20.875 C 11.015625 -20.875 11.976562 -20.675781 12.75 -20.28125 C 13.519531 -19.894531 14.144531 -19.414062 14.625 -18.84375 C 15.101562 -18.269531 15.46875 -17.703125 15.71875 -17.140625 L 15.890625 -17.140625 L 15.890625 -27.46875 L 21.59375 -27.46875 L 21.59375 0 L 15.953125 0 L 15.953125 -3.296875 L 15.71875 -3.296875 C 15.457031 -2.722656 15.082031 -2.15625 14.59375 -1.59375 C 14.101562 -1.039062 13.46875 -0.582031 12.6875 -0.21875 C 11.914062 0.144531 10.976562 0.328125 9.875 0.328125 Z M 11.6875 -4.21875 C 13.0625 -4.21875 14.125 -4.769531 14.875 -5.875 C 15.632812 -6.988281 16.015625 -8.460938 16.015625 -10.296875 C 16.015625 -12.140625 15.640625 -13.601562 14.890625 -14.6875 C 14.140625 -15.78125 13.070312 -16.328125 11.6875 -16.328125 C 10.269531 -16.328125 9.191406 -15.769531 8.453125 -14.65625 C 7.710938 -13.539062 7.34375 -12.085938 7.34375 -10.296875 C 7.34375 -8.503906 7.710938 -7.039062 8.453125 -5.90625 C 9.203125 -4.78125 10.28125 -4.21875 11.6875 -4.21875 Z M 11.6875 -4.21875 "/></g></g></g><g fill="#373737" fill-opacity="1"><g transform="translate(236.030004, 43.500001)"><g/></g></g><g fill="#373737" fill-opacity="1"><g transform="translate(244.78565, 43.500001)"><g><path d="M 7.125 0 L 0.90625 0 L 10.375 -27.46875 L 17.859375 -27.46875 L 27.328125 0 L 21.109375 0 L 19.078125 -6.265625 L 9.15625 -6.265625 Z M 10.640625 -10.796875 L 17.609375 -10.796875 L 14.234375 -21.1875 L 14.015625 -21.1875 Z M 10.640625 -10.796875 "/></g></g></g><g fill="#373737" fill-opacity="1"><g transform="translate(273.02367, 43.500001)"><g><path d="M 19.421875 -14.71875 L 14.1875 -14.40625 C 14.039062 -15.0625 13.675781 -15.625 13.09375 -16.09375 C 12.519531 -16.570312 11.738281 -16.8125 10.75 -16.8125 C 9.863281 -16.8125 9.113281 -16.625 8.5 -16.25 C 7.882812 -15.882812 7.582031 -15.394531 7.59375 -14.78125 C 7.582031 -14.289062 7.773438 -13.875 8.171875 -13.53125 C 8.566406 -13.1875 9.242188 -12.914062 10.203125 -12.71875 L 13.9375 -11.96875 C 17.894531 -11.15625 19.878906 -9.296875 19.890625 -6.390625 C 19.890625 -5.035156 19.492188 -3.847656 18.703125 -2.828125 C 17.910156 -1.804688 16.828125 -1.007812 15.453125 -0.4375 C 14.078125 0.125 12.5 0.40625 10.71875 0.40625 C 7.988281 0.40625 5.8125 -0.160156 4.1875 -1.296875 C 2.570312 -2.441406 1.632812 -4 1.375 -5.96875 L 6.984375 -6.265625 C 7.160156 -5.421875 7.570312 -4.785156 8.21875 -4.359375 C 8.875 -3.929688 9.710938 -3.71875 10.734375 -3.71875 C 11.734375 -3.71875 12.535156 -3.910156 13.140625 -4.296875 C 13.753906 -4.691406 14.066406 -5.195312 14.078125 -5.8125 C 14.054688 -6.820312 13.175781 -7.503906 11.4375 -7.859375 L 7.875 -8.5625 C 3.882812 -9.363281 1.898438 -11.328125 1.921875 -14.453125 C 1.910156 -16.441406 2.703125 -18.007812 4.296875 -19.15625 C 5.890625 -20.300781 8.003906 -20.875 10.640625 -20.875 C 13.242188 -20.875 15.296875 -20.320312 16.796875 -19.21875 C 18.296875 -18.113281 19.171875 -16.613281 19.421875 -14.71875 Z M 19.421875 -14.71875 "/></g></g></g><g fill="#373737" fill-opacity="1"><g transform="translate(294.235706, 43.500001)"><g><path d="M 19.421875 -14.71875 L 14.1875 -14.40625 C 14.039062 -15.0625 13.675781 -15.625 13.09375 -16.09375 C 12.519531 -16.570312 11.738281 -16.8125 10.75 -16.8125 C 9.863281 -16.8125 9.113281 -16.625 8.5 -16.25 C 7.882812 -15.882812 7.582031 -15.394531 7.59375 -14.78125 C 7.582031 -14.289062 7.773438 -13.875 8.171875 -13.53125 C 8.566406 -13.1875 9.242188 -12.914062 10.203125 -12.71875 L 13.9375 -11.96875 C 17.894531 -11.15625 19.878906 -9.296875 19.890625 -6.390625 C 19.890625 -5.035156 19.492188 -3.847656 18.703125 -2.828125 C 17.910156 -1.804688 16.828125 -1.007812 15.453125 -0.4375 C 14.078125 0.125 12.5 0.40625 10.71875 0.40625 C 7.988281 0.40625 5.8125 -0.160156 4.1875 -1.296875 C 2.570312 -2.441406 1.632812 -4 1.375 -5.96875 L 6.984375 -6.265625 C 7.160156 -5.421875 7.570312 -4.785156 8.21875 -4.359375 C 8.875 -3.929688 9.710938 -3.71875 10.734375 -3.71875 C 11.734375 -3.71875 12.535156 -3.910156 13.140625 -4.296875 C 13.753906 -4.691406 14.066406 -5.195312 14.078125 -5.8125 C 14.054688 -6.820312 13.175781 -7.503906 11.4375 -7.859375 L 7.875 -8.5625 C 3.882812 -9.363281 1.898438 -11.328125 1.921875 -14.453125 C 1.910156 -16.441406 2.703125 -18.007812 4.296875 -19.15625 C 5.890625 -20.300781 8.003906 -20.875 10.640625 -20.875 C 13.242188 -20.875 15.296875 -20.320312 16.796875 -19.21875 C 18.296875 -18.113281 19.171875 -16.613281 19.421875 -14.71875 Z M 19.421875 -14.71875 "/></g></g></g><g fill="#373737" fill-opacity="1"><g transform="translate(315.447741, 43.500001)"><g><path d="M 2.28125 0 L 2.28125 -20.59375 L 8 -20.59375 L 8 0 Z M 5.15625 -23.25 C 4.3125 -23.25 3.582031 -23.53125 2.96875 -24.09375 C 2.363281 -24.664062 2.0625 -25.351562 2.0625 -26.15625 C 2.0625 -26.945312 2.363281 -27.625 2.96875 -28.1875 C 3.582031 -28.75 4.3125 -29.03125 5.15625 -29.03125 C 6 -29.03125 6.722656 -28.75 7.328125 -28.1875 C 7.941406 -27.625 8.25 -26.945312 8.25 -26.15625 C 8.25 -25.351562 7.941406 -24.664062 7.328125 -24.09375 C 6.722656 -23.53125 6 -23.25 5.15625 -23.25 Z M 5.15625 -23.25 "/></g></g></g><g fill="#373737" fill-opacity="1"><g transform="translate(325.718539, 43.500001)"><g><path d="M 11.5625 8.015625 C 8.789062 8.015625 6.613281 7.46875 5.03125 6.375 C 3.445312 5.289062 2.484375 3.96875 2.140625 2.40625 L 7.4375 1.703125 C 7.664062 2.253906 8.113281 2.757812 8.78125 3.21875 C 9.457031 3.6875 10.425781 3.921875 11.6875 3.921875 C 12.9375 3.921875 13.960938 3.625 14.765625 3.03125 C 15.578125 2.4375 15.984375 1.46875 15.984375 0.125 L 15.984375 -3.640625 L 15.75 -3.640625 C 15.375 -2.796875 14.710938 -2.023438 13.765625 -1.328125 C 12.816406 -0.640625 11.519531 -0.296875 9.875 -0.296875 C 8.320312 -0.296875 6.910156 -0.65625 5.640625 -1.375 C 4.378906 -2.101562 3.375 -3.207031 2.625 -4.6875 C 1.882812 -6.175781 1.515625 -8.0625 1.515625 -10.34375 C 1.515625 -12.6875 1.894531 -14.632812 2.65625 -16.1875 C 3.425781 -17.738281 4.441406 -18.90625 5.703125 -19.6875 C 6.972656 -20.476562 8.359375 -20.875 9.859375 -20.875 C 11.015625 -20.875 11.976562 -20.675781 12.75 -20.28125 C 13.53125 -19.894531 14.160156 -19.414062 14.640625 -18.84375 C 15.128906 -18.269531 15.5 -17.703125 15.75 -17.140625 L 15.953125 -17.140625 L 15.953125 -20.59375 L 21.625 -20.59375 L 21.625 0.203125 C 21.625 1.910156 21.191406 3.34375 20.328125 4.5 C 19.472656 5.664062 18.289062 6.539062 16.78125 7.125 C 15.269531 7.71875 13.53125 8.015625 11.5625 8.015625 Z M 11.6875 -4.59375 C 13.0625 -4.59375 14.125 -5.097656 14.875 -6.109375 C 15.632812 -7.128906 16.015625 -8.546875 16.015625 -10.359375 C 16.015625 -12.171875 15.640625 -13.617188 14.890625 -14.703125 C 14.140625 -15.785156 13.070312 -16.328125 11.6875 -16.328125 C 10.269531 -16.328125 9.191406 -15.769531 8.453125 -14.65625 C 7.710938 -13.550781 7.34375 -12.117188 7.34375 -10.359375 C 7.34375 -8.585938 7.710938 -7.179688 8.453125 -6.140625 C 9.203125 -5.109375 10.28125 -4.59375 11.6875 -4.59375 Z M 11.6875 -4.59375 "/></g></g></g><g fill="#373737" fill-opacity="1"><g transform="translate(349.625658, 43.500001)"><g><path d="M 8 -11.90625 L 8 0 L 2.28125 0 L 2.28125 -20.59375 L 7.71875 -20.59375 L 7.71875 -16.96875 L 7.96875 -16.96875 C 8.425781 -18.164062 9.191406 -19.113281 10.265625 -19.8125 C 11.335938 -20.519531 12.632812 -20.875 14.15625 -20.875 C 16.300781 -20.875 18.019531 -20.179688 19.3125 -18.796875 C 20.613281 -17.410156 21.265625 -15.515625 21.265625 -13.109375 L 21.265625 0 L 15.5625 0 L 15.5625 -12.09375 C 15.5625 -13.351562 15.234375 -14.335938 14.578125 -15.046875 C 13.929688 -15.765625 13.035156 -16.125 11.890625 -16.125 C 10.742188 -16.125 9.804688 -15.753906 9.078125 -15.015625 C 8.359375 -14.273438 8 -13.238281 8 -11.90625 Z M 8 -11.90625 "/></g></g></g><g fill="#373737" fill-opacity="1"><g transform="translate(373.103714, 43.500001)"><g/></g></g><g fill="#373737" fill-opacity="1"><g transform="translate(381.85936, 43.500001)"><g><path d="M 1.34375 -22.671875 L 1.34375 -27.46875 L 23.90625 -27.46875 L 23.90625 -22.671875 L 15.484375 -22.671875 L 15.484375 0 L 9.75 0 L 9.75 -22.671875 Z M 1.34375 -22.671875 "/></g></g></g><g fill="#373737" fill-opacity="1"><g transform="translate(407.093901, 43.500001)"><g><path d="M 8.15625 0.390625 C 6.1875 0.390625 4.550781 -0.125 3.25 -1.15625 C 1.957031 -2.1875 1.3125 -3.71875 1.3125 -5.75 C 1.3125 -7.289062 1.671875 -8.5 2.390625 -9.375 C 3.117188 -10.25 4.070312 -10.890625 5.25 -11.296875 C 6.425781 -11.703125 7.691406 -11.96875 9.046875 -12.09375 C 10.835938 -12.269531 12.117188 -12.457031 12.890625 -12.65625 C 13.660156 -12.851562 14.046875 -13.285156 14.046875 -13.953125 L 14.046875 -14.03125 C 14.046875 -14.875 13.78125 -15.53125 13.25 -16 C 12.71875 -16.46875 11.960938 -16.703125 10.984375 -16.703125 C 9.953125 -16.703125 9.132812 -16.476562 8.53125 -16.03125 C 7.925781 -15.582031 7.523438 -15.015625 7.328125 -14.328125 L 2.03125 -14.75 C 2.425781 -16.625 3.40625 -18.113281 4.96875 -19.21875 C 6.53125 -20.320312 8.546875 -20.875 11.015625 -20.875 C 12.535156 -20.875 13.960938 -20.628906 15.296875 -20.140625 C 16.628906 -19.660156 17.703125 -18.90625 18.515625 -17.875 C 19.335938 -16.851562 19.75 -15.523438 19.75 -13.890625 L 19.75 0 L 14.34375 0 L 14.34375 -2.859375 L 14.171875 -2.859375 C 13.671875 -1.898438 12.921875 -1.117188 11.921875 -0.515625 C 10.929688 0.0859375 9.675781 0.390625 8.15625 0.390625 Z M 9.796875 -3.546875 C 11.046875 -3.546875 12.070312 -3.910156 12.875 -4.640625 C 13.675781 -5.367188 14.078125 -6.273438 14.078125 -7.359375 L 14.078125 -9.546875 C 13.859375 -9.398438 13.515625 -9.265625 13.046875 -9.140625 C 12.578125 -9.023438 12.078125 -8.925781 11.546875 -8.84375 C 11.015625 -8.757812 10.535156 -8.6875 10.109375 -8.625 C 9.109375 -8.476562 8.300781 -8.191406 7.6875 -7.765625 C 7.070312 -7.347656 6.765625 -6.738281 6.765625 -5.9375 C 6.765625 -5.15625 7.046875 -4.5625 7.609375 -4.15625 C 8.179688 -3.75 8.910156 -3.546875 9.796875 -3.546875 Z M 9.796875 -3.546875 "/></g></g></g><g fill="#373737" fill-opacity="1"><g transform="translate(429.003156, 43.500001)"><g><path d="M 19.421875 -14.71875 L 14.1875 -14.40625 C 14.039062 -15.0625 13.675781 -15.625 13.09375 -16.09375 C 12.519531 -16.570312 11.738281 -16.8125 10.75 -16.8125 C 9.863281 -16.8125 9.113281 -16.625 8.5 -16.25 C 7.882812 -15.882812 7.582031 -15.394531 7.59375 -14.78125 C 7.582031 -14.289062 7.773438 -13.875 8.171875 -13.53125 C 8.566406 -13.1875 9.242188 -12.914062 10.203125 -12.71875 L 13.9375 -11.96875 C 17.894531 -11.15625 19.878906 -9.296875 19.890625 -6.390625 C 19.890625 -5.035156 19.492188 -3.847656 18.703125 -2.828125 C 17.910156 -1.804688 16.828125 -1.007812 15.453125 -0.4375 C 14.078125 0.125 12.5 0.40625 10.71875 0.40625 C 7.988281 0.40625 5.8125 -0.160156 4.1875 -1.296875 C 2.570312 -2.441406 1.632812 -4 1.375 -5.96875 L 6.984375 -6.265625 C 7.160156 -5.421875 7.570312 -4.785156 8.21875 -4.359375 C 8.875 -3.929688 9.710938 -3.71875 10.734375 -3.71875 C 11.734375 -3.71875 12.535156 -3.910156 13.140625 -4.296875 C 13.753906 -4.691406 14.066406 -5.195312 14.078125 -5.8125 C 14.054688 -6.820312 13.175781 -7.503906 11.4375 -7.859375 L 7.875 -8.5625 C 3.882812 -9.363281 1.898438 -11.328125 1.921875 -14.453125 C 1.910156 -16.441406 2.703125 -18.007812 4.296875 -19.15625 C 5.890625 -20.300781 8.003906 -20.875 10.640625 -20.875 C 13.242188 -20.875 15.296875 -20.320312 16.796875 -19.21875 C 18.296875 -18.113281 19.171875 -16.613281 19.421875 -14.71875 Z M 19.421875 -14.71875 "/></g></g></g><g fill="#373737" fill-opacity="1"><g transform="translate(450.215192, 43.500001)"><g><path d="M 2.28125 0 L 2.28125 -27.46875 L 8 -27.46875 L 8 -12.78125 L 8.296875 -12.78125 L 14.90625 -20.59375 L 21.453125 -20.59375 L 13.8125 -11.6875 L 21.84375 0 L 15.15625 0 L 9.53125 -8.296875 L 8 -6.546875 L 8 0 Z M 2.28125 0 "/></g></g></g><g fill="#373737" fill-opacity="1"><g transform="translate(472.178097, 43.500001)"><g><path d="M 19.421875 -14.71875 L 14.1875 -14.40625 C 14.039062 -15.0625 13.675781 -15.625 13.09375 -16.09375 C 12.519531 -16.570312 11.738281 -16.8125 10.75 -16.8125 C 9.863281 -16.8125 9.113281 -16.625 8.5 -16.25 C 7.882812 -15.882812 7.582031 -15.394531 7.59375 -14.78125 C 7.582031 -14.289062 7.773438 -13.875 8.171875 -13.53125 C 8.566406 -13.1875 9.242188 -12.914062 10.203125 -12.71875 L 13.9375 -11.96875 C 17.894531 -11.15625 19.878906 -9.296875 19.890625 -6.390625 C 19.890625 -5.035156 19.492188 -3.847656 18.703125 -2.828125 C 17.910156 -1.804688 16.828125 -1.007812 15.453125 -0.4375 C 14.078125 0.125 12.5 0.40625 10.71875 0.40625 C 7.988281 0.40625 5.8125 -0.160156 4.1875 -1.296875 C 2.570312 -2.441406 1.632812 -4 1.375 -5.96875 L 6.984375 -6.265625 C 7.160156 -5.421875 7.570312 -4.785156 8.21875 -4.359375 C 8.875 -3.929688 9.710938 -3.71875 10.734375 -3.71875 C 11.734375 -3.71875 12.535156 -3.910156 13.140625 -4.296875 C 13.753906 -4.691406 14.066406 -5.195312 14.078125 -5.8125 C 14.054688 -6.820312 13.175781 -7.503906 11.4375 -7.859375 L 7.875 -8.5625 C 3.882812 -9.363281 1.898438 -11.328125 1.921875 -14.453125 C 1.910156 -16.441406 2.703125 -18.007812 4.296875 -19.15625 C 5.890625 -20.300781 8.003906 -20.875 10.640625 -20.875 C 13.242188 -20.875 15.296875 -20.320312 16.796875 -19.21875 C 18.296875 -18.113281 19.171875 -16.613281 19.421875 -14.71875 Z M 19.421875 -14.71875 "/></g></g></g></svg>