<svg xmlns="http://www.w3.org/2000/svg" xmlns:xlink="http://www.w3.org/1999/xlink" width="700" zoomAndPan="magnify" viewBox="0 0 525 60" height="80" preserveAspectRatio="xMidYMid meet" version="1.0"><defs><g/><clipPath id="c50ff84731"><path d="M 417.886719 4.984375 L 519.136719 4.984375 L 519.136719 54.472656 L 417.886719 54.472656 Z M 417.886719 4.984375 " clip-rule="nonzero"/></clipPath></defs><g clip-path="url(#c50ff84731)"><path fill="#5e17eb" d="M 463.453125 4.984375 C 463.128906 4.984375 462.808594 4.984375 462.484375 4.992188 C 461.507812 5.011719 460.519531 5.0625 459.53125 5.210938 L 459.625 5.832031 C 460.574219 5.691406 461.535156 5.648438 462.496094 5.632812 C 463.769531 5.609375 465.042969 5.648438 466.316406 5.714844 C 469.578125 5.894531 472.824219 6.273438 476.054688 6.765625 C 479.847656 7.347656 483.617188 8.09375 487.339844 9.019531 C 491.1875 9.972656 494.988281 11.109375 498.691406 12.507812 C 502.132812 13.8125 505.5 15.335938 508.613281 17.265625 C 511.261719 18.910156 513.761719 20.84375 515.617188 23.300781 C 516.429688 24.371094 517.109375 25.539062 517.570312 26.785156 C 518.019531 28.003906 518.257812 29.296875 518.261719 30.589844 C 518.265625 31.996094 517.988281 33.402344 517.519531 34.742188 C 516.957031 36.347656 516.125 37.855469 515.148438 39.269531 C 513.164062 42.152344 510.496094 44.550781 507.5 46.402344 C 504.5 48.253906 501.1875 49.585938 497.78125 50.566406 C 491.402344 52.398438 484.71875 53.023438 478.050781 53.253906 C 468.222656 53.597656 458.355469 53.386719 448.664062 51.898438 C 442.152344 50.898438 435.667969 49.378906 429.847656 46.441406 C 427.789062 45.402344 425.824219 44.183594 424.109375 42.6875 C 422.726562 41.484375 421.507812 40.105469 420.628906 38.542969 C 419.871094 37.199219 419.371094 35.714844 419.226562 34.203125 C 419.085938 32.722656 419.277344 31.214844 419.738281 29.789062 C 420.242188 28.226562 421.066406 26.761719 422.066406 25.425781 C 423.21875 23.882812 424.617188 22.515625 426.136719 21.296875 C 429.914062 18.257812 434.40625 16.140625 439.0625 14.59375 C 445.007812 12.625 451.269531 11.625 457.550781 11.308594 C 465.257812 10.917969 473.003906 11.574219 480.597656 12.996094 L 480.882812 11.484375 C 473.179688 10.070312 465.308594 9.433594 457.472656 9.855469 C 451.085938 10.199219 444.699219 11.242188 438.617188 13.277344 C 433.851562 14.871094 429.222656 17.082031 425.285156 20.261719 C 423.699219 21.539062 422.230469 22.992188 421 24.640625 C 419.929688 26.074219 419.046875 27.667969 418.492188 29.394531 C 417.984375 30.976562 417.777344 32.660156 417.945312 34.328125 C 418.117188 36.035156 418.675781 37.683594 419.515625 39.164062 C 420.496094 40.875 421.8125 42.359375 423.285156 43.625 C 425.109375 45.199219 427.164062 46.46875 429.296875 47.53125 C 435.304688 50.523438 441.914062 52.054688 448.488281 53.035156 C 458.289062 54.5 468.226562 54.679688 478.09375 54.300781 C 484.800781 54.046875 491.566406 53.386719 498.058594 51.5 C 501.527344 50.492188 504.917969 49.113281 508.003906 47.195312 C 511.089844 45.277344 513.839844 42.78125 515.902344 39.773438 C 516.90625 38.308594 517.769531 36.726562 518.363281 35.027344 C 518.855469 33.609375 519.140625 32.105469 519.136719 30.585938 C 519.128906 29.1875 518.867188 27.796875 518.378906 26.488281 C 517.875 25.152344 517.152344 23.914062 516.292969 22.792969 C 514.332031 20.234375 511.75 18.238281 509.042969 16.582031 C 505.859375 14.625 502.445312 13.09375 498.964844 11.789062 C 495.222656 10.390625 491.390625 9.257812 487.515625 8.3125 C 483.765625 7.398438 479.972656 6.65625 476.15625 6.085938 C 472.910156 5.601562 469.640625 5.234375 466.351562 5.066406 C 465.386719 5.015625 464.421875 4.984375 463.453125 4.984375 " fill-opacity="1" fill-rule="nonzero"/></g><g fill="#373737" fill-opacity="1"><g transform="translate(4.96875, 44.25)"><g><path d="M 29.796875 -19.984375 L 23.234375 -19.984375 C 22.984375 -21.671875 22.257812 -23 21.0625 -23.96875 C 19.875 -24.9375 18.390625 -25.421875 16.609375 -25.421875 C 14.222656 -25.421875 12.3125 -24.546875 10.875 -22.796875 C 9.4375 -21.054688 8.71875 -18.582031 8.71875 -15.375 C 8.71875 -12.09375 9.441406 -9.597656 10.890625 -7.890625 C 12.335938 -6.179688 14.226562 -5.328125 16.5625 -5.328125 C 18.289062 -5.328125 19.753906 -5.78125 20.953125 -6.6875 C 22.160156 -7.59375 22.921875 -8.867188 23.234375 -10.515625 L 29.796875 -10.484375 C 29.566406 -8.597656 28.894531 -6.820312 27.78125 -5.15625 C 26.675781 -3.5 25.171875 -2.15625 23.265625 -1.125 C 21.359375 -0.09375 19.085938 0.421875 16.453125 0.421875 C 13.710938 0.421875 11.265625 -0.195312 9.109375 -1.4375 C 6.953125 -2.675781 5.25 -4.472656 4 -6.828125 C 2.75 -9.179688 2.125 -12.03125 2.125 -15.375 C 2.125 -18.726562 2.753906 -21.582031 4.015625 -23.9375 C 5.285156 -26.289062 7 -28.082031 9.15625 -29.3125 C 11.320312 -30.550781 13.753906 -31.171875 16.453125 -31.171875 C 18.828125 -31.171875 20.96875 -30.734375 22.875 -29.859375 C 24.78125 -28.984375 26.34375 -27.710938 27.5625 -26.046875 C 28.78125 -24.378906 29.523438 -22.359375 29.796875 -19.984375 Z M 29.796875 -19.984375 "/></g></g></g><g fill="#373737" fill-opacity="1"><g transform="translate(36.761065, 44.25)"><g><path d="M 12.96875 0.453125 C 10.632812 0.453125 8.617188 -0.0390625 6.921875 -1.03125 C 5.234375 -2.03125 3.925781 -3.421875 3 -5.203125 C 2.082031 -6.992188 1.625 -9.070312 1.625 -11.4375 C 1.625 -13.820312 2.082031 -15.90625 3 -17.6875 C 3.925781 -19.476562 5.234375 -20.867188 6.921875 -21.859375 C 8.617188 -22.859375 10.632812 -23.359375 12.96875 -23.359375 C 15.300781 -23.359375 17.316406 -22.859375 19.015625 -21.859375 C 20.710938 -20.867188 22.019531 -19.476562 22.9375 -17.6875 C 23.863281 -15.90625 24.328125 -13.820312 24.328125 -11.4375 C 24.328125 -9.070312 23.863281 -6.992188 22.9375 -5.203125 C 22.019531 -3.421875 20.710938 -2.03125 19.015625 -1.03125 C 17.316406 -0.0390625 15.300781 0.453125 12.96875 0.453125 Z M 13 -4.5 C 14.582031 -4.5 15.78125 -5.160156 16.59375 -6.484375 C 17.414062 -7.804688 17.828125 -9.472656 17.828125 -11.484375 C 17.828125 -13.492188 17.414062 -15.160156 16.59375 -16.484375 C 15.78125 -17.816406 14.582031 -18.484375 13 -18.484375 C 11.382812 -18.484375 10.164062 -17.816406 9.34375 -16.484375 C 8.53125 -15.160156 8.125 -13.492188 8.125 -11.484375 C 8.125 -9.472656 8.53125 -7.804688 9.34375 -6.484375 C 10.164062 -5.160156 11.382812 -4.5 13 -4.5 Z M 13 -4.5 "/></g></g></g><g fill="#373737" fill-opacity="1"><g transform="translate(62.699269, 44.25)"><g><path d="M 8.953125 -30.75 L 8.953125 0 L 2.546875 0 L 2.546875 -30.75 Z M 8.953125 -30.75 "/></g></g></g><g fill="#373737" fill-opacity="1"><g transform="translate(74.197342, 44.25)"><g><path d="M 8.953125 -30.75 L 8.953125 0 L 2.546875 0 L 2.546875 -30.75 Z M 8.953125 -30.75 "/></g></g></g><g fill="#373737" fill-opacity="1"><g transform="translate(85.695415, 44.25)"><g><path d="M 9.125 0.4375 C 6.925781 0.4375 5.097656 -0.132812 3.640625 -1.28125 C 2.191406 -2.4375 1.46875 -4.15625 1.46875 -6.4375 C 1.46875 -8.164062 1.875 -9.519531 2.6875 -10.5 C 3.5 -11.476562 4.5625 -12.191406 5.875 -12.640625 C 7.195312 -13.097656 8.617188 -13.398438 10.140625 -13.546875 C 12.140625 -13.742188 13.566406 -13.953125 14.421875 -14.171875 C 15.285156 -14.390625 15.71875 -14.867188 15.71875 -15.609375 L 15.71875 -15.703125 C 15.71875 -16.648438 15.421875 -17.382812 14.828125 -17.90625 C 14.234375 -18.425781 13.390625 -18.6875 12.296875 -18.6875 C 11.148438 -18.6875 10.234375 -18.4375 9.546875 -17.9375 C 8.867188 -17.4375 8.421875 -16.800781 8.203125 -16.03125 L 2.28125 -16.515625 C 2.71875 -18.617188 3.8125 -20.285156 5.5625 -21.515625 C 7.3125 -22.742188 9.566406 -23.359375 12.328125 -23.359375 C 14.035156 -23.359375 15.632812 -23.085938 17.125 -22.546875 C 18.625 -22.003906 19.828125 -21.160156 20.734375 -20.015625 C 21.648438 -18.867188 22.109375 -17.382812 22.109375 -15.5625 L 22.109375 0 L 16.046875 0 L 16.046875 -3.203125 L 15.875 -3.203125 C 15.3125 -2.128906 14.472656 -1.253906 13.359375 -0.578125 C 12.242188 0.0976562 10.832031 0.4375 9.125 0.4375 Z M 10.953125 -3.984375 C 12.359375 -3.984375 13.507812 -4.390625 14.40625 -5.203125 C 15.3125 -6.015625 15.765625 -7.03125 15.765625 -8.25 L 15.765625 -10.6875 C 15.515625 -10.519531 15.125 -10.367188 14.59375 -10.234375 C 14.070312 -10.109375 13.515625 -10 12.921875 -9.90625 C 12.328125 -9.8125 11.796875 -9.726562 11.328125 -9.65625 C 10.203125 -9.5 9.296875 -9.179688 8.609375 -8.703125 C 7.921875 -8.234375 7.578125 -7.550781 7.578125 -6.65625 C 7.578125 -5.769531 7.894531 -5.101562 8.53125 -4.65625 C 9.164062 -4.207031 9.972656 -3.984375 10.953125 -3.984375 Z M 10.953125 -3.984375 "/></g></g></g><g fill="#373737" fill-opacity="1"><g transform="translate(110.222632, 44.25)"><g><path d="M 2.671875 0 L 2.671875 -30.75 L 9.0625 -30.75 L 9.0625 -19.1875 L 9.265625 -19.1875 C 9.554688 -19.820312 9.96875 -20.457031 10.5 -21.09375 C 11.03125 -21.738281 11.726562 -22.273438 12.59375 -22.703125 C 13.46875 -23.140625 14.546875 -23.359375 15.828125 -23.359375 C 17.515625 -23.359375 19.0625 -22.921875 20.46875 -22.046875 C 21.882812 -21.171875 23.019531 -19.851562 23.875 -18.09375 C 24.738281 -16.34375 25.171875 -14.144531 25.171875 -11.5 C 25.171875 -8.925781 24.753906 -6.753906 23.921875 -4.984375 C 23.085938 -3.222656 21.960938 -1.890625 20.546875 -0.984375 C 19.140625 -0.078125 17.5625 0.375 15.8125 0.375 C 14.570312 0.375 13.515625 0.171875 12.640625 -0.234375 C 11.773438 -0.648438 11.070312 -1.171875 10.53125 -1.796875 C 9.988281 -2.421875 9.566406 -3.050781 9.265625 -3.6875 L 8.984375 -3.6875 L 8.984375 0 Z M 8.9375 -11.53125 C 8.9375 -9.476562 9.359375 -7.828125 10.203125 -6.578125 C 11.046875 -5.335938 12.238281 -4.71875 13.78125 -4.71875 C 15.351562 -4.71875 16.554688 -5.347656 17.390625 -6.609375 C 18.222656 -7.878906 18.640625 -9.519531 18.640625 -11.53125 C 18.640625 -13.53125 18.222656 -15.148438 17.390625 -16.390625 C 16.566406 -17.640625 15.363281 -18.265625 13.78125 -18.265625 C 12.226562 -18.265625 11.03125 -17.65625 10.1875 -16.4375 C 9.351562 -15.226562 8.9375 -13.59375 8.9375 -11.53125 Z M 8.9375 -11.53125 "/></g></g></g><g fill="#373737" fill-opacity="1"><g transform="translate(137.076478, 44.25)"><g><path d="M 12.96875 0.453125 C 10.632812 0.453125 8.617188 -0.0390625 6.921875 -1.03125 C 5.234375 -2.03125 3.925781 -3.421875 3 -5.203125 C 2.082031 -6.992188 1.625 -9.070312 1.625 -11.4375 C 1.625 -13.820312 2.082031 -15.90625 3 -17.6875 C 3.925781 -19.476562 5.234375 -20.867188 6.921875 -21.859375 C 8.617188 -22.859375 10.632812 -23.359375 12.96875 -23.359375 C 15.300781 -23.359375 17.316406 -22.859375 19.015625 -21.859375 C 20.710938 -20.867188 22.019531 -19.476562 22.9375 -17.6875 C 23.863281 -15.90625 24.328125 -13.820312 24.328125 -11.4375 C 24.328125 -9.070312 23.863281 -6.992188 22.9375 -5.203125 C 22.019531 -3.421875 20.710938 -2.03125 19.015625 -1.03125 C 17.316406 -0.0390625 15.300781 0.453125 12.96875 0.453125 Z M 13 -4.5 C 14.582031 -4.5 15.78125 -5.160156 16.59375 -6.484375 C 17.414062 -7.804688 17.828125 -9.472656 17.828125 -11.484375 C 17.828125 -13.492188 17.414062 -15.160156 16.59375 -16.484375 C 15.78125 -17.816406 14.582031 -18.484375 13 -18.484375 C 11.382812 -18.484375 10.164062 -17.816406 9.34375 -16.484375 C 8.53125 -15.160156 8.125 -13.492188 8.125 -11.484375 C 8.125 -9.472656 8.53125 -7.804688 9.34375 -6.484375 C 10.164062 -5.160156 11.382812 -4.5 13 -4.5 Z M 13 -4.5 "/></g></g></g><g fill="#373737" fill-opacity="1"><g transform="translate(163.014683, 44.25)"><g><path d="M 2.546875 0 L 2.546875 -23.0625 L 8.75 -23.0625 L 8.75 -19.03125 L 9 -19.03125 C 9.414062 -20.46875 10.113281 -21.550781 11.09375 -22.28125 C 12.082031 -23.019531 13.226562 -23.390625 14.53125 -23.390625 C 15.15625 -23.390625 15.734375 -23.3125 16.265625 -23.15625 C 16.796875 -23.007812 17.269531 -22.804688 17.6875 -22.546875 L 15.765625 -17.265625 C 15.460938 -17.410156 15.132812 -17.535156 14.78125 -17.640625 C 14.425781 -17.753906 14.03125 -17.8125 13.59375 -17.8125 C 12.300781 -17.8125 11.207031 -17.367188 10.3125 -16.484375 C 9.414062 -15.609375 8.960938 -14.460938 8.953125 -13.046875 L 8.953125 0 Z M 2.546875 0 "/></g></g></g><g fill="#373737" fill-opacity="1"><g transform="translate(181.132396, 44.25)"><g><path d="M 9.125 0.4375 C 6.925781 0.4375 5.097656 -0.132812 3.640625 -1.28125 C 2.191406 -2.4375 1.46875 -4.15625 1.46875 -6.4375 C 1.46875 -8.164062 1.875 -9.519531 2.6875 -10.5 C 3.5 -11.476562 4.5625 -12.191406 5.875 -12.640625 C 7.195312 -13.097656 8.617188 -13.398438 10.140625 -13.546875 C 12.140625 -13.742188 13.566406 -13.953125 14.421875 -14.171875 C 15.285156 -14.390625 15.71875 -14.867188 15.71875 -15.609375 L 15.71875 -15.703125 C 15.71875 -16.648438 15.421875 -17.382812 14.828125 -17.90625 C 14.234375 -18.425781 13.390625 -18.6875 12.296875 -18.6875 C 11.148438 -18.6875 10.234375 -18.4375 9.546875 -17.9375 C 8.867188 -17.4375 8.421875 -16.800781 8.203125 -16.03125 L 2.28125 -16.515625 C 2.71875 -18.617188 3.8125 -20.285156 5.5625 -21.515625 C 7.3125 -22.742188 9.566406 -23.359375 12.328125 -23.359375 C 14.035156 -23.359375 15.632812 -23.085938 17.125 -22.546875 C 18.625 -22.003906 19.828125 -21.160156 20.734375 -20.015625 C 21.648438 -18.867188 22.109375 -17.382812 22.109375 -15.5625 L 22.109375 0 L 16.046875 0 L 16.046875 -3.203125 L 15.875 -3.203125 C 15.3125 -2.128906 14.472656 -1.253906 13.359375 -0.578125 C 12.242188 0.0976562 10.832031 0.4375 9.125 0.4375 Z M 10.953125 -3.984375 C 12.359375 -3.984375 13.507812 -4.390625 14.40625 -5.203125 C 15.3125 -6.015625 15.765625 -7.03125 15.765625 -8.25 L 15.765625 -10.6875 C 15.515625 -10.519531 15.125 -10.367188 14.59375 -10.234375 C 14.070312 -10.109375 13.515625 -10 12.921875 -9.90625 C 12.328125 -9.8125 11.796875 -9.726562 11.328125 -9.65625 C 10.203125 -9.5 9.296875 -9.179688 8.609375 -8.703125 C 7.921875 -8.234375 7.578125 -7.550781 7.578125 -6.65625 C 7.578125 -5.769531 7.894531 -5.101562 8.53125 -4.65625 C 9.164062 -4.207031 9.972656 -3.984375 10.953125 -3.984375 Z M 10.953125 -3.984375 "/></g></g></g><g fill="#373737" fill-opacity="1"><g transform="translate(205.659613, 44.25)"><g><path d="M 14.8125 -23.0625 L 14.8125 -18.265625 L 10.484375 -18.265625 L 10.484375 -7.09375 C 10.484375 -6.207031 10.679688 -5.609375 11.078125 -5.296875 C 11.484375 -4.984375 12.003906 -4.828125 12.640625 -4.828125 C 12.941406 -4.828125 13.242188 -4.851562 13.546875 -4.90625 C 13.847656 -4.96875 14.078125 -5.015625 14.234375 -5.046875 L 15.234375 -0.28125 C 14.921875 -0.1875 14.472656 -0.0703125 13.890625 0.0625 C 13.304688 0.195312 12.597656 0.28125 11.765625 0.3125 C 9.441406 0.414062 7.578125 -0.0820312 6.171875 -1.1875 C 4.765625 -2.300781 4.066406 -3.988281 4.078125 -6.25 L 4.078125 -18.265625 L 0.9375 -18.265625 L 0.9375 -23.0625 L 4.078125 -23.0625 L 4.078125 -28.59375 L 10.484375 -28.59375 L 10.484375 -23.0625 Z M 14.8125 -23.0625 "/></g></g></g><g fill="#373737" fill-opacity="1"><g transform="translate(222.081152, 44.25)"><g><path d="M 2.546875 0 L 2.546875 -23.0625 L 8.953125 -23.0625 L 8.953125 0 Z M 5.765625 -26.03125 C 4.828125 -26.03125 4.015625 -26.347656 3.328125 -26.984375 C 2.648438 -27.617188 2.3125 -28.382812 2.3125 -29.28125 C 2.3125 -30.164062 2.648438 -30.921875 3.328125 -31.546875 C 4.015625 -32.179688 4.828125 -32.5 5.765625 -32.5 C 6.710938 -32.5 7.523438 -32.179688 8.203125 -31.546875 C 8.890625 -30.921875 9.234375 -30.164062 9.234375 -29.28125 C 9.234375 -28.382812 8.890625 -27.617188 8.203125 -26.984375 C 7.523438 -26.347656 6.710938 -26.03125 5.765625 -26.03125 Z M 5.765625 -26.03125 "/></g></g></g><g fill="#373737" fill-opacity="1"><g transform="translate(233.579213, 44.25)"><g><path d="M 12.96875 0.453125 C 10.632812 0.453125 8.617188 -0.0390625 6.921875 -1.03125 C 5.234375 -2.03125 3.925781 -3.421875 3 -5.203125 C 2.082031 -6.992188 1.625 -9.070312 1.625 -11.4375 C 1.625 -13.820312 2.082031 -15.90625 3 -17.6875 C 3.925781 -19.476562 5.234375 -20.867188 6.921875 -21.859375 C 8.617188 -22.859375 10.632812 -23.359375 12.96875 -23.359375 C 15.300781 -23.359375 17.316406 -22.859375 19.015625 -21.859375 C 20.710938 -20.867188 22.019531 -19.476562 22.9375 -17.6875 C 23.863281 -15.90625 24.328125 -13.820312 24.328125 -11.4375 C 24.328125 -9.070312 23.863281 -6.992188 22.9375 -5.203125 C 22.019531 -3.421875 20.710938 -2.03125 19.015625 -1.03125 C 17.316406 -0.0390625 15.300781 0.453125 12.96875 0.453125 Z M 13 -4.5 C 14.582031 -4.5 15.78125 -5.160156 16.59375 -6.484375 C 17.414062 -7.804688 17.828125 -9.472656 17.828125 -11.484375 C 17.828125 -13.492188 17.414062 -15.160156 16.59375 -16.484375 C 15.78125 -17.816406 14.582031 -18.484375 13 -18.484375 C 11.382812 -18.484375 10.164062 -17.816406 9.34375 -16.484375 C 8.53125 -15.160156 8.125 -13.492188 8.125 -11.484375 C 8.125 -9.472656 8.53125 -7.804688 9.34375 -6.484375 C 10.164062 -5.160156 11.382812 -4.5 13 -4.5 Z M 13 -4.5 "/></g></g></g><g fill="#373737" fill-opacity="1"><g transform="translate(259.51743, 44.25)"><g><path d="M 8.953125 -13.328125 L 8.953125 0 L 2.546875 0 L 2.546875 -23.0625 L 8.65625 -23.0625 L 8.65625 -19 L 8.921875 -19 C 9.441406 -20.332031 10.296875 -21.390625 11.484375 -22.171875 C 12.679688 -22.960938 14.140625 -23.359375 15.859375 -23.359375 C 18.253906 -23.359375 20.175781 -22.582031 21.625 -21.03125 C 23.082031 -19.488281 23.8125 -17.375 23.8125 -14.6875 L 23.8125 0 L 17.421875 0 L 17.421875 -13.546875 C 17.429688 -14.953125 17.066406 -16.050781 16.328125 -16.84375 C 15.597656 -17.644531 14.59375 -18.046875 13.3125 -18.046875 C 12.019531 -18.046875 10.972656 -17.628906 10.171875 -16.796875 C 9.367188 -15.972656 8.960938 -14.816406 8.953125 -13.328125 Z M 8.953125 -13.328125 "/></g></g></g><g fill="#373737" fill-opacity="1"><g transform="translate(285.800891, 44.25)"><g/></g></g><g fill="#373737" fill-opacity="1"><g transform="translate(295.602756, 44.25)"><g><path d="M 2.671875 -30.75 L 10.6875 -30.75 L 19.15625 -10.09375 L 19.515625 -10.09375 L 27.984375 -30.75 L 36 -30.75 L 36 0 L 29.703125 0 L 29.703125 -20.015625 L 29.4375 -20.015625 L 21.484375 -0.15625 L 17.1875 -0.15625 L 9.234375 -20.09375 L 8.984375 -20.09375 L 8.984375 0 L 2.671875 0 Z M 2.671875 -30.75 "/></g></g></g><g fill="#373737" fill-opacity="1"><g transform="translate(334.660157, 44.25)"><g><path d="M 9.125 0.4375 C 6.925781 0.4375 5.097656 -0.132812 3.640625 -1.28125 C 2.191406 -2.4375 1.46875 -4.15625 1.46875 -6.4375 C 1.46875 -8.164062 1.875 -9.519531 2.6875 -10.5 C 3.5 -11.476562 4.5625 -12.191406 5.875 -12.640625 C 7.195312 -13.097656 8.617188 -13.398438 10.140625 -13.546875 C 12.140625 -13.742188 13.566406 -13.953125 14.421875 -14.171875 C 15.285156 -14.390625 15.71875 -14.867188 15.71875 -15.609375 L 15.71875 -15.703125 C 15.71875 -16.648438 15.421875 -17.382812 14.828125 -17.90625 C 14.234375 -18.425781 13.390625 -18.6875 12.296875 -18.6875 C 11.148438 -18.6875 10.234375 -18.4375 9.546875 -17.9375 C 8.867188 -17.4375 8.421875 -16.800781 8.203125 -16.03125 L 2.28125 -16.515625 C 2.71875 -18.617188 3.8125 -20.285156 5.5625 -21.515625 C 7.3125 -22.742188 9.566406 -23.359375 12.328125 -23.359375 C 14.035156 -23.359375 15.632812 -23.085938 17.125 -22.546875 C 18.625 -22.003906 19.828125 -21.160156 20.734375 -20.015625 C 21.648438 -18.867188 22.109375 -17.382812 22.109375 -15.5625 L 22.109375 0 L 16.046875 0 L 16.046875 -3.203125 L 15.875 -3.203125 C 15.3125 -2.128906 14.472656 -1.253906 13.359375 -0.578125 C 12.242188 0.0976562 10.832031 0.4375 9.125 0.4375 Z M 10.953125 -3.984375 C 12.359375 -3.984375 13.507812 -4.390625 14.40625 -5.203125 C 15.3125 -6.015625 15.765625 -7.03125 15.765625 -8.25 L 15.765625 -10.6875 C 15.515625 -10.519531 15.125 -10.367188 14.59375 -10.234375 C 14.070312 -10.109375 13.515625 -10 12.921875 -9.90625 C 12.328125 -9.8125 11.796875 -9.726562 11.328125 -9.65625 C 10.203125 -9.5 9.296875 -9.179688 8.609375 -8.703125 C 7.921875 -8.234375 7.578125 -7.550781 7.578125 -6.65625 C 7.578125 -5.769531 7.894531 -5.101562 8.53125 -4.65625 C 9.164062 -4.207031 9.972656 -3.984375 10.953125 -3.984375 Z M 10.953125 -3.984375 "/></g></g></g><g fill="#373737" fill-opacity="1"><g transform="translate(359.187363, 44.25)"><g><path d="M 11.046875 0.375 C 9.296875 0.375 7.710938 -0.078125 6.296875 -0.984375 C 4.890625 -1.890625 3.769531 -3.222656 2.9375 -4.984375 C 2.113281 -6.753906 1.703125 -8.925781 1.703125 -11.5 C 1.703125 -14.144531 2.128906 -16.34375 2.984375 -18.09375 C 3.835938 -19.851562 4.972656 -21.171875 6.390625 -22.046875 C 7.804688 -22.921875 9.351562 -23.359375 11.03125 -23.359375 C 12.320312 -23.359375 13.398438 -23.140625 14.265625 -22.703125 C 15.128906 -22.273438 15.828125 -21.738281 16.359375 -21.09375 C 16.898438 -20.457031 17.3125 -19.820312 17.59375 -19.1875 L 17.796875 -19.1875 L 17.796875 -30.75 L 24.171875 -30.75 L 24.171875 0 L 17.875 0 L 17.875 -3.6875 L 17.59375 -3.6875 C 17.300781 -3.050781 16.878906 -2.421875 16.328125 -1.796875 C 15.785156 -1.171875 15.078125 -0.648438 14.203125 -0.234375 C 13.335938 0.171875 12.285156 0.375 11.046875 0.375 Z M 13.078125 -4.71875 C 14.617188 -4.71875 15.8125 -5.335938 16.65625 -6.578125 C 17.5 -7.828125 17.921875 -9.476562 17.921875 -11.53125 C 17.921875 -13.59375 17.5 -15.226562 16.65625 -16.4375 C 15.820312 -17.65625 14.628906 -18.265625 13.078125 -18.265625 C 11.492188 -18.265625 10.289062 -17.640625 9.46875 -16.390625 C 8.644531 -15.148438 8.234375 -13.53125 8.234375 -11.53125 C 8.234375 -9.519531 8.644531 -7.878906 9.46875 -6.609375 C 10.300781 -5.347656 11.503906 -4.71875 13.078125 -4.71875 Z M 13.078125 -4.71875 "/></g></g></g><g fill="#373737" fill-opacity="1"><g transform="translate(386.041198, 44.25)"><g><path d="M 13.0625 0.453125 C 10.695312 0.453125 8.660156 -0.03125 6.953125 -1 C 5.242188 -1.96875 3.925781 -3.335938 3 -5.109375 C 2.082031 -6.890625 1.625 -8.992188 1.625 -11.421875 C 1.625 -13.796875 2.082031 -15.878906 3 -17.671875 C 3.925781 -19.460938 5.226562 -20.859375 6.90625 -21.859375 C 8.582031 -22.859375 10.550781 -23.359375 12.8125 -23.359375 C 14.84375 -23.359375 16.675781 -22.925781 18.3125 -22.0625 C 19.945312 -21.207031 21.242188 -19.910156 22.203125 -18.171875 C 23.160156 -16.429688 23.640625 -14.257812 23.640625 -11.65625 L 23.640625 -9.890625 L 7.9375 -9.890625 L 7.9375 -9.875 C 7.9375 -8.15625 8.40625 -6.800781 9.34375 -5.8125 C 10.289062 -4.820312 11.566406 -4.328125 13.171875 -4.328125 C 14.242188 -4.328125 15.164062 -4.550781 15.9375 -5 C 16.71875 -5.445312 17.269531 -6.113281 17.59375 -7 L 23.515625 -6.609375 C 23.066406 -4.460938 21.925781 -2.75 20.09375 -1.46875 C 18.257812 -0.1875 15.914062 0.453125 13.0625 0.453125 Z M 7.9375 -13.859375 L 17.625 -13.859375 C 17.613281 -15.234375 17.171875 -16.363281 16.296875 -17.25 C 15.429688 -18.144531 14.300781 -18.59375 12.90625 -18.59375 C 11.488281 -18.59375 10.320312 -18.128906 9.40625 -17.203125 C 8.5 -16.285156 8.007812 -15.171875 7.9375 -13.859375 Z M 7.9375 -13.859375 "/></g></g></g><g fill="#373737" fill-opacity="1"><g transform="translate(411.303938, 44.25)"><g/></g></g><g fill="#373737" fill-opacity="1"><g transform="translate(421.105802, 44.25)"><g><path d="M 2.671875 0 L 2.671875 -30.75 L 23.390625 -30.75 L 23.390625 -25.390625 L 9.171875 -25.390625 L 9.171875 -18.0625 L 22.328125 -18.0625 L 22.328125 -12.703125 L 9.171875 -12.703125 L 9.171875 -5.359375 L 23.453125 -5.359375 L 23.453125 0 Z M 2.671875 0 "/></g></g></g><g fill="#373737" fill-opacity="1"><g transform="translate(446.998975, 44.25)"><g><path d="M 9.125 0.4375 C 6.925781 0.4375 5.097656 -0.132812 3.640625 -1.28125 C 2.191406 -2.4375 1.46875 -4.15625 1.46875 -6.4375 C 1.46875 -8.164062 1.875 -9.519531 2.6875 -10.5 C 3.5 -11.476562 4.5625 -12.191406 5.875 -12.640625 C 7.195312 -13.097656 8.617188 -13.398438 10.140625 -13.546875 C 12.140625 -13.742188 13.566406 -13.953125 14.421875 -14.171875 C 15.285156 -14.390625 15.71875 -14.867188 15.71875 -15.609375 L 15.71875 -15.703125 C 15.71875 -16.648438 15.421875 -17.382812 14.828125 -17.90625 C 14.234375 -18.425781 13.390625 -18.6875 12.296875 -18.6875 C 11.148438 -18.6875 10.234375 -18.4375 9.546875 -17.9375 C 8.867188 -17.4375 8.421875 -16.800781 8.203125 -16.03125 L 2.28125 -16.515625 C 2.71875 -18.617188 3.8125 -20.285156 5.5625 -21.515625 C 7.3125 -22.742188 9.566406 -23.359375 12.328125 -23.359375 C 14.035156 -23.359375 15.632812 -23.085938 17.125 -22.546875 C 18.625 -22.003906 19.828125 -21.160156 20.734375 -20.015625 C 21.648438 -18.867188 22.109375 -17.382812 22.109375 -15.5625 L 22.109375 0 L 16.046875 0 L 16.046875 -3.203125 L 15.875 -3.203125 C 15.3125 -2.128906 14.472656 -1.253906 13.359375 -0.578125 C 12.242188 0.0976562 10.832031 0.4375 9.125 0.4375 Z M 10.953125 -3.984375 C 12.359375 -3.984375 13.507812 -4.390625 14.40625 -5.203125 C 15.3125 -6.015625 15.765625 -7.03125 15.765625 -8.25 L 15.765625 -10.6875 C 15.515625 -10.519531 15.125 -10.367188 14.59375 -10.234375 C 14.070312 -10.109375 13.515625 -10 12.921875 -9.90625 C 12.328125 -9.8125 11.796875 -9.726562 11.328125 -9.65625 C 10.203125 -9.5 9.296875 -9.179688 8.609375 -8.703125 C 7.921875 -8.234375 7.578125 -7.550781 7.578125 -6.65625 C 7.578125 -5.769531 7.894531 -5.101562 8.53125 -4.65625 C 9.164062 -4.207031 9.972656 -3.984375 10.953125 -3.984375 Z M 10.953125 -3.984375 "/></g></g></g><g fill="#373737" fill-opacity="1"><g transform="translate(471.52618, 44.25)"><g><path d="M 21.734375 -16.484375 L 15.890625 -16.125 C 15.722656 -16.863281 15.3125 -17.5 14.65625 -18.03125 C 14.007812 -18.5625 13.132812 -18.828125 12.03125 -18.828125 C 11.039062 -18.828125 10.203125 -18.617188 9.515625 -18.203125 C 8.828125 -17.785156 8.488281 -17.234375 8.5 -16.546875 C 8.488281 -15.992188 8.703125 -15.523438 9.140625 -15.140625 C 9.585938 -14.765625 10.347656 -14.460938 11.421875 -14.234375 L 15.59375 -13.390625 C 20.03125 -12.484375 22.253906 -10.398438 22.265625 -7.140625 C 22.265625 -5.628906 21.820312 -4.300781 20.9375 -3.15625 C 20.050781 -2.019531 18.835938 -1.132812 17.296875 -0.5 C 15.753906 0.132812 13.988281 0.453125 12 0.453125 C 8.945312 0.453125 6.515625 -0.179688 4.703125 -1.453125 C 2.890625 -2.734375 1.832031 -4.476562 1.53125 -6.6875 L 7.828125 -7.015625 C 8.023438 -6.066406 8.484375 -5.351562 9.203125 -4.875 C 9.929688 -4.394531 10.867188 -4.15625 12.015625 -4.15625 C 13.128906 -4.15625 14.03125 -4.375 14.71875 -4.8125 C 15.40625 -5.257812 15.753906 -5.820312 15.765625 -6.5 C 15.734375 -7.644531 14.75 -8.410156 12.8125 -8.796875 L 8.8125 -9.59375 C 4.34375 -10.488281 2.117188 -12.6875 2.140625 -16.1875 C 2.128906 -18.40625 3.019531 -20.15625 4.8125 -21.4375 C 6.601562 -22.71875 8.972656 -23.359375 11.921875 -23.359375 C 14.835938 -23.359375 17.132812 -22.742188 18.8125 -21.515625 C 20.488281 -20.285156 21.460938 -18.609375 21.734375 -16.484375 Z M 21.734375 -16.484375 "/></g></g></g><g fill="#373737" fill-opacity="1"><g transform="translate(495.272852, 44.25)"><g><path d="M 6.28125 8.984375 C 5.363281 8.984375 4.582031 8.90625 3.9375 8.75 C 3.289062 8.59375 2.789062 8.429688 2.4375 8.265625 L 3.875 3.3125 C 5.007812 3.65625 5.960938 3.742188 6.734375 3.578125 C 7.503906 3.421875 8.117188 2.816406 8.578125 1.765625 L 9 0.65625 L 0.71875 -23.0625 L 7.453125 -23.0625 L 12.21875 -6.125 L 12.46875 -6.125 L 17.28125 -23.0625 L 24.046875 -23.0625 L 15.046875 2.640625 C 14.390625 4.484375 13.347656 6 11.921875 7.1875 C 10.503906 8.382812 8.625 8.984375 6.28125 8.984375 Z M 6.28125 8.984375 "/></g></g></g></svg>