<svg xmlns="http://www.w3.org/2000/svg" xmlns:xlink="http://www.w3.org/1999/xlink" width="700" zoomAndPan="magnify" viewBox="0 0 525 60" height="80" preserveAspectRatio="xMidYMid meet" version="1.0"><defs><g/><clipPath id="8186fc1005"><path d="M 451 38.457031 L 452 38.457031 L 452 40 L 451 40 Z M 451 38.457031 " clip-rule="nonzero"/></clipPath><clipPath id="e4315c23e4"><path d="M 413 38.457031 L 415 38.457031 L 415 39 L 413 39 Z M 413 38.457031 " clip-rule="nonzero"/></clipPath><clipPath id="4d4407077c"><path d="M 328.097656 38.457031 L 484.234375 38.457031 L 484.234375 56.457031 L 328.097656 56.457031 Z M 328.097656 38.457031 " clip-rule="nonzero"/></clipPath></defs><path fill="#5e17eb" d="M 421.792969 51.046875 L 421.722656 51.113281 L 421.792969 51.046875 " fill-opacity="1" fill-rule="nonzero"/><path fill="#5e17eb" d="M 425.007812 45.679688 L 425.390625 45.667969 C 425.140625 45.664062 425.046875 45.667969 425.007812 45.679688 " fill-opacity="1" fill-rule="nonzero"/><path fill="#5e17eb" d="M 402.367188 51.996094 L 402.414062 51.984375 C 402.113281 51.988281 401.707031 51.996094 401.046875 52.003906 L 402.367188 51.996094 " fill-opacity="1" fill-rule="nonzero"/><path fill="#5e17eb" d="M 386 47.855469 L 385.570312 47.902344 C 385.765625 47.882812 385.890625 47.875 386 47.855469 " fill-opacity="1" fill-rule="nonzero"/><path fill="#5e17eb" d="M 396.804688 45.472656 C 396.675781 45.496094 396.460938 45.507812 396.253906 45.519531 C 396.515625 45.519531 396.730469 45.515625 396.804688 45.472656 " fill-opacity="1" fill-rule="nonzero"/><path fill="#5e17eb" d="M 398.757812 52.304688 L 398.207031 52.207031 C 398.21875 52.25 398.410156 52.289062 398.757812 52.304688 " fill-opacity="1" fill-rule="nonzero"/><path fill="#5e17eb" d="M 418.15625 54.367188 L 418.109375 54.335938 L 418.15625 54.367188 " fill-opacity="1" fill-rule="nonzero"/><path fill="#5e17eb" d="M 410.71875 52.480469 C 410.554688 52.46875 410.363281 52.453125 410.167969 52.4375 C 410.398438 52.46875 410.695312 52.511719 410.71875 52.480469 " fill-opacity="1" fill-rule="nonzero"/><path fill="#5e17eb" d="M 409.90625 52.425781 C 409.992188 52.429688 410.078125 52.433594 410.167969 52.4375 C 410.023438 52.417969 409.902344 52.40625 409.90625 52.425781 " fill-opacity="1" fill-rule="nonzero"/><path fill="#5e17eb" d="M 331.167969 40.875 C 330.601562 40.886719 330.121094 40.972656 329.617188 41.042969 L 331.167969 40.875 " fill-opacity="1" fill-rule="nonzero"/><path fill="#5e17eb" d="M 448.339844 46.304688 L 448.214844 46.335938 C 448.332031 46.328125 448.347656 46.3125 448.339844 46.304688 " fill-opacity="1" fill-rule="nonzero"/><path fill="#5e17eb" d="M 330.492188 41.648438 L 330.089844 41.644531 C 330.238281 41.65625 330.367188 41.65625 330.492188 41.648438 " fill-opacity="1" fill-rule="nonzero"/><path fill="#5e17eb" d="M 402.503906 50.480469 C 403.066406 50.386719 404.230469 50.449219 404.21875 50.367188 C 403.621094 50.398438 402.769531 50.355469 402.503906 50.480469 " fill-opacity="1" fill-rule="nonzero"/><path fill="#5e17eb" d="M 330.492188 41.648438 L 330.957031 41.652344 L 330.816406 41.617188 C 330.714844 41.632812 330.605469 41.644531 330.492188 41.648438 " fill-opacity="1" fill-rule="nonzero"/><path fill="#5e17eb" d="M 454.527344 39.285156 L 454.546875 39.289062 L 454.679688 39.277344 Z M 454.527344 39.285156 " fill-opacity="1" fill-rule="nonzero"/><g clip-path="url(#8186fc1005)"><path fill="#5e17eb" d="M 451.0625 39.011719 C 451.304688 39.011719 451.539062 39.011719 451.800781 39.011719 C 451.410156 38.984375 451.207031 38.992188 451.0625 39.011719 " fill-opacity="1" fill-rule="nonzero"/></g><path fill="#5e17eb" d="M 329.617188 41.042969 L 328.726562 41.140625 C 329.046875 41.121094 329.335938 41.082031 329.617188 41.042969 " fill-opacity="1" fill-rule="nonzero"/><g clip-path="url(#e4315c23e4)"><path fill="#5e17eb" d="M 413.75 38.601562 C 413.871094 38.597656 413.980469 38.59375 414.089844 38.589844 C 413.945312 38.589844 413.832031 38.59375 413.75 38.601562 " fill-opacity="1" fill-rule="nonzero"/></g><path fill="#5e17eb" d="M 399.433594 45.507812 C 399.519531 45.515625 399.632812 45.523438 399.738281 45.527344 C 399.765625 45.507812 399.746094 45.492188 399.433594 45.507812 " fill-opacity="1" fill-rule="nonzero"/><path fill="#5e17eb" d="M 373.828125 48.707031 L 373.816406 48.710938 Z M 373.828125 48.707031 " fill-opacity="1" fill-rule="nonzero"/><path fill="#5e17eb" d="M 375.175781 48.484375 C 374.746094 48.503906 374.144531 48.617188 373.828125 48.707031 C 374.253906 48.671875 374.652344 48.617188 375.175781 48.484375 " fill-opacity="1" fill-rule="nonzero"/><path fill="#5e17eb" d="M 370.933594 46.886719 L 370.804688 46.894531 L 371.039062 48.96875 L 371.070312 48.96875 L 371.039062 48.96875 L 370.804688 46.894531 L 370.933594 46.886719 " fill-opacity="1" fill-rule="nonzero"/><path fill="#5e17eb" d="M 398.402344 47.898438 L 398.402344 47.890625 L 398.390625 47.898438 Z M 398.402344 47.898438 " fill-opacity="1" fill-rule="nonzero"/><path fill="#5e17eb" d="M 392.9375 47.957031 C 392.84375 47.941406 392.707031 47.929688 392.5625 47.921875 C 392.65625 47.941406 392.78125 47.953125 392.9375 47.957031 " fill-opacity="1" fill-rule="nonzero"/><path fill="#5e17eb" d="M 384.480469 45.199219 L 384.472656 45.203125 L 384.5 45.199219 Z M 384.480469 45.199219 " fill-opacity="1" fill-rule="nonzero"/><g clip-path="url(#4d4407077c)"><path fill="#5e17eb" d="M 436.175781 42.683594 C 430.984375 42.722656 424.253906 42.769531 419.109375 42.804688 C 417.984375 42.992188 416.351562 43.019531 414.710938 43.089844 L 414.535156 42.859375 L 413.164062 42.96875 C 412.605469 42.910156 414.21875 42.898438 413.226562 42.832031 L 412.710938 42.988281 C 412.605469 42.902344 409.1875 43.035156 411.484375 42.796875 L 406.15625 42.984375 C 404.976562 43.027344 405.476562 43.203125 404.167969 43.207031 C 403.902344 43.152344 404.636719 43.136719 404.523438 43.058594 C 400.601562 43.085938 400.03125 43.75 396.386719 43.898438 L 396.691406 43.847656 C 396.386719 43.898438 395.9375 43.941406 395.566406 43.984375 C 395.195312 44.023438 394.894531 44.054688 394.890625 44.070312 C 395.375 44.265625 395.53125 43.886719 396.652344 43.945312 C 396.566406 44.148438 395.277344 44.15625 395.359375 44.300781 C 394.507812 44.296875 394.015625 44.445312 393.273438 44.515625 C 392.003906 44.5 390.199219 44.746094 389.234375 44.679688 C 388.625 44.796875 387.949219 45.050781 386.625 45.1875 C 385.660156 45.125 386.835938 45.019531 385.535156 45.089844 L 385.335938 45.222656 C 384.277344 45.308594 384.4375 45.261719 384.472656 45.203125 C 383.339844 45.3125 383.542969 45.457031 382.117188 45.527344 L 382.898438 45.335938 C 381.851562 45.484375 381.421875 45.511719 379.957031 45.65625 C 379.980469 45.585938 380.566406 45.53125 381 45.503906 C 380.1875 45.414062 379.644531 45.722656 379.214844 45.746094 C 379.34375 45.785156 380.359375 45.699219 379.875 45.863281 C 379.148438 45.921875 378.347656 46.179688 377.8125 46.105469 L 378.59375 45.910156 C 377.089844 46.160156 377.796875 46.136719 376.0625 46.28125 C 376.152344 46.261719 376.105469 46.242188 376.136719 46.210938 C 375.054688 46.476562 373.605469 46.5 371.984375 46.671875 L 372.289062 46.605469 C 371.636719 46.71875 371.289062 46.859375 370.933594 46.886719 C 371.863281 46.851562 371.617188 46.914062 371.714844 47.011719 C 371.382812 47 371.097656 47.023438 370.824219 47.070312 L 371.019531 48.800781 C 371.785156 48.679688 372.496094 48.398438 373.964844 48.335938 C 373.9375 48.402344 373.46875 48.527344 372.914062 48.519531 C 372.273438 48.777344 372.191406 48.945312 371.0625 49.160156 L 370.78125 46.703125 L 370.847656 46.691406 L 370.78125 46.699219 L 371.0625 49.164062 C 371.792969 49.042969 372.617188 48.929688 372.441406 49.03125 L 372.65625 48.824219 C 373.113281 48.78125 373.472656 48.742188 373.816406 48.710938 C 374 48.574219 372.878906 48.613281 373.925781 48.4375 C 375.113281 48.277344 374.578125 48.566406 374.757812 48.46875 C 376.390625 48.257812 375.421875 48.207031 377.007812 48.148438 C 376.851562 48.171875 376.542969 48.222656 376.40625 48.222656 C 377.546875 48.214844 379.195312 47.984375 379.542969 48.1875 C 379.378906 48.246094 379.351562 48.308594 378.917969 48.324219 L 378.933594 48.289062 C 377.695312 48.53125 379.972656 48.175781 379.59375 48.402344 C 379.5 48.289062 381.101562 48.226562 381.820312 48.207031 L 381.585938 48.089844 C 383.96875 47.578125 381.46875 48.351562 383.839844 48.199219 C 385.339844 48.042969 383.269531 48.1875 384.1875 48.050781 C 385.207031 48.03125 385.589844 48.148438 387.078125 48.035156 C 387.492188 48.078125 388.34375 48.128906 388.421875 48.277344 C 389.324219 48.195312 391.175781 48.28125 391.6875 48.132812 C 390.132812 48.03125 390.144531 48.316406 388.328125 48.160156 L 388.832031 48.007812 C 390.089844 47.980469 391.695312 47.882812 392.5625 47.921875 C 392.386719 47.902344 392.308594 47.863281 392.417969 47.832031 C 394.203125 47.75 394.722656 47.601562 396.464844 47.632812 C 396.691406 47.761719 395.671875 47.746094 394.929688 47.769531 C 396.054688 47.863281 396.101562 47.765625 397.847656 47.796875 C 397.941406 47.910156 396.675781 47.796875 396.476562 47.910156 L 398.402344 47.863281 L 398.402344 47.890625 C 398.683594 47.691406 399.875 47.902344 401.058594 47.839844 C 403.859375 47.835938 404.285156 47.574219 405.835938 47.410156 C 406.253906 47.460938 406.375 47.515625 406.199219 47.5625 C 405.511719 47.476562 405.632812 47.546875 405.394531 47.59375 C 406.339844 47.574219 407.464844 47.78125 406.9375 47.859375 C 408.441406 47.800781 406.394531 47.761719 407.316406 47.699219 L 409.371094 47.699219 C 409.128906 47.601562 408.40625 47.585938 409.46875 47.503906 C 410.367188 47.46875 410.804688 47.484375 411.980469 47.480469 C 411.808594 47.53125 412.351562 47.628906 411.46875 47.632812 C 412.039062 47.660156 412.925781 47.660156 413.265625 47.558594 C 411.980469 47.488281 415.371094 47.441406 414.410156 47.300781 L 415.699219 47.371094 C 415.40625 47.375 415.371094 47.441406 414.941406 47.425781 C 415.308594 47.574219 415.996094 47.367188 416.433594 47.347656 C 416.882812 47.367188 418.046875 47.390625 418.140625 47.449219 C 418.546875 47.402344 419.53125 47.457031 419.710938 47.535156 C 420.316406 47.515625 419.765625 47.4375 419.941406 47.394531 L 421.984375 47.457031 C 422.085938 47.546875 422.253906 47.78125 421.941406 47.804688 C 422.714844 47.753906 422.226562 47.566406 423.394531 47.617188 C 422.714844 47.75 424.933594 47.808594 423.953125 47.960938 C 424.617188 48.101562 426.519531 48.1875 427.566406 48.214844 C 428.222656 48.128906 426.4375 48.074219 426.511719 47.949219 C 429.460938 48.074219 429.664062 47.734375 431.820312 47.972656 L 431.261719 47.890625 C 432.617188 47.929688 432.460938 47.941406 433.257812 47.90625 C 432.867188 48.03125 434.753906 48.46875 436.902344 48.777344 C 437.101562 48.722656 435.71875 48.433594 436.089844 48.359375 L 437.53125 48.566406 C 437.628906 48.605469 437.472656 48.597656 437.28125 48.589844 C 438.070312 48.6875 438.726562 48.9375 439.183594 49.105469 L 439.320312 47.582031 C 438.96875 47.609375 438.703125 47.648438 438.5625 47.742188 L 437.195312 47.6875 L 437.738281 47.714844 C 437.566406 47.824219 436.09375 48.039062 435.789062 48.105469 C 434.296875 48.386719 433.738281 48.386719 432.90625 48.378906 C 433.171875 48.417969 433.847656 48.488281 432.660156 48.65625 C 432.644531 48.394531 430.164062 48.847656 430.179688 48.703125 C 429.703125 48.757812 428.839844 48.773438 428.796875 48.886719 L 428.863281 48.714844 C 428.773438 48.957031 427.023438 49.125 425.6875 49.304688 C 425.960938 48.964844 424.21875 49.464844 423.597656 49.242188 C 423.363281 49.480469 421.226562 49.53125 421 49.734375 C 419.96875 49.832031 420.058594 49.628906 419.789062 49.578125 L 419.316406 49.695312 C 418.785156 49.640625 416.84375 49.777344 415.683594 49.785156 L 414.625 50.046875 L 414.222656 49.984375 C 414.050781 50.042969 413.164062 50.128906 413.71875 50.160156 L 413.136719 50.1875 C 413.105469 50.390625 412.328125 50.296875 411.164062 50.445312 C 410.898438 50.425781 410.964844 50.375 411.21875 50.332031 C 410.636719 50.363281 410.878906 50.246094 410.558594 50.195312 C 410.972656 50.222656 408.488281 50.667969 410.058594 50.679688 C 410.167969 50.753906 409.257812 50.867188 408.683594 50.855469 L 408.332031 50.6875 L 407.652344 50.910156 C 406.757812 50.972656 406.371094 50.878906 405.648438 50.878906 C 406.386719 50.84375 407.28125 50.46875 405.367188 50.539062 C 406.371094 50.484375 406.863281 50.355469 407.382812 50.296875 C 406.984375 50.308594 406.789062 50.296875 407.398438 50.195312 C 405.910156 50.316406 406.90625 50.332031 405.429688 50.40625 C 405.503906 50.242188 405.09375 50.203125 403.800781 50.191406 L 404.769531 50.277344 L 404.585938 50.328125 C 404.949219 50.332031 405.054688 50.355469 405.136719 50.414062 C 404.84375 50.421875 403.429688 50.679688 403.179688 50.585938 C 404.671875 50.800781 400.585938 50.84375 401.539062 50.972656 C 401.375 51.03125 400.335938 51.058594 400.230469 50.972656 C 401.464844 50.835938 399.292969 50.800781 399.496094 50.683594 C 399.035156 50.738281 400.46875 50.792969 399.847656 50.863281 C 399.109375 50.886719 398.570312 50.789062 398.15625 50.746094 L 398.464844 50.710938 L 397.324219 50.644531 C 397.140625 50.722656 398.429688 50.78125 397.378906 50.824219 C 397.105469 50.789062 396.054688 50.839844 396.089844 50.773438 C 396.585938 50.65625 396.226562 50.507812 397.117188 50.476562 C 396.75 50.484375 395.996094 50.507812 395.4375 50.519531 L 395.4375 52.558594 C 396.019531 52.53125 396.386719 52.492188 395.90625 52.410156 L 396.789062 52.417969 C 396.230469 52.347656 394.679688 52.21875 396.453125 52.199219 L 396.4375 52.234375 L 397.671875 52.117188 L 398.207031 52.207031 C 398.195312 52.167969 398.390625 52.128906 398.84375 52.140625 C 398.964844 52.1875 399.394531 52.21875 399.355469 52.285156 C 400.683594 52.3125 400.574219 52.226562 400.753906 52.183594 C 401.492188 52.191406 401.769531 52.246094 401.417969 52.324219 C 402.429688 52.378906 404.199219 52.457031 404.878906 52.597656 C 406.234375 52.632812 404.605469 52.542969 405.402344 52.496094 C 406.550781 52.847656 409.839844 53.011719 412.019531 53.355469 C 411.472656 53.007812 412.617188 53.433594 413.058594 53.277344 C 412.578125 53.261719 415.074219 53.859375 413.167969 53.566406 C 413.558594 53.621094 413.941406 53.703125 414.328125 53.769531 C 415.085938 54.058594 412.402344 53.488281 413.558594 53.910156 C 414.84375 54.160156 415.75 54.070312 417.230469 54.539062 C 416.6875 54.578125 418.398438 54.789062 417.976562 54.875 C 417.648438 54.859375 417.238281 54.730469 416.8125 54.628906 L 417.066406 54.734375 C 419.828125 55.523438 417.925781 54.738281 419.410156 55.039062 C 421.109375 55.515625 420.691406 55.589844 420.765625 55.695312 C 421.011719 55.816406 421.863281 56.054688 422.3125 56.175781 C 421.265625 55.921875 420.46875 55.441406 420.972656 55.484375 C 421.648438 55.902344 423.429688 56.363281 423.914062 56.460938 C 421.617188 55.386719 422.28125 55.835938 420.097656 54.886719 C 419.765625 54.859375 419.769531 55.035156 418.425781 54.570312 C 419.308594 54.722656 418.394531 54.457031 418.15625 54.367188 C 418.390625 54.542969 417.191406 54.148438 416.761719 54.09375 C 416.390625 53.917969 417.648438 54.050781 416.25 53.679688 L 415.929688 53.855469 C 415.386719 53.695312 416.203125 53.730469 415.015625 53.527344 C 415.683594 53.535156 414.867188 53.28125 416.46875 53.613281 C 414.617188 52.953125 413.515625 53.09375 412.015625 52.921875 C 412.171875 52.933594 412.191406 52.902344 412.347656 52.914062 C 412.015625 52.917969 411.441406 52.824219 410.996094 52.773438 C 410.011719 52.570312 411.792969 52.78125 411.546875 52.675781 L 409.945312 52.445312 L 409.90625 52.425781 C 409.480469 52.40625 409.070312 52.378906 408.929688 52.300781 C 409.421875 52.277344 409.621094 52.222656 409.949219 52.195312 L 408.234375 52.160156 C 408.433594 52.097656 406.851562 51.878906 408.066406 51.941406 C 407.226562 51.867188 406.386719 51.792969 405.546875 51.742188 L 405.351562 51.5625 C 404.742188 51.546875 404.722656 51.574219 405.445312 51.652344 C 404.585938 51.527344 401.605469 51.71875 402.078125 51.417969 C 400.089844 51.472656 399.375 51.40625 396.976562 51.464844 C 398.824219 51.316406 394.863281 51.265625 396.816406 51.199219 C 396.15625 51.15625 395.792969 51.199219 395.433594 51.246094 L 395.433594 51.832031 C 395.695312 51.796875 395.957031 51.753906 396.335938 51.742188 C 397.183594 51.8125 396.804688 51.976562 395.890625 52.039062 L 396.964844 51.960938 L 396.941406 51.996094 L 397.878906 51.898438 C 398.867188 51.980469 398.085938 52.058594 399.109375 52.070312 L 399.332031 51.925781 L 400.027344 51.996094 C 399.761719 51.933594 400.371094 51.898438 401.109375 51.871094 L 401.09375 51.90625 L 401.996094 51.859375 C 401.105469 51.96875 402.820312 51.867188 402.414062 51.984375 C 403.183594 51.96875 403.203125 51.976562 404.589844 51.898438 L 404.34375 51.804688 C 406.160156 51.660156 404.425781 51.953125 405.898438 51.914062 L 405.800781 51.800781 C 407.925781 51.914062 409.386719 51.539062 410.957031 51.578125 C 410.0625 51.652344 410.292969 51.773438 410.3125 51.738281 C 411.65625 51.632812 413.851562 51.527344 415.238281 51.292969 C 415.753906 51.425781 415.875 51.46875 417.316406 51.441406 C 418.355469 51.355469 418.507812 51.324219 418.839844 51.203125 C 419.851562 51.191406 421.734375 50.933594 421.792969 51.046875 C 422.015625 50.929688 422.703125 50.988281 423.246094 50.859375 L 423.367188 50.898438 L 423.273438 50.789062 C 425.078125 50.882812 426.269531 50.363281 428.085938 50.398438 L 427.78125 50.460938 L 428.53125 50.335938 C 428.65625 50.375 428.355469 50.4375 428.324219 50.507812 L 431.839844 50.140625 L 431.140625 50.132812 C 431.882812 50.039062 432.363281 49.867188 433.21875 49.835938 C 431.832031 50.171875 434.382812 49.707031 434.628906 49.808594 L 433.878906 49.945312 C 434.90625 49.8125 434.90625 49.808594 434.808594 49.699219 C 436.136719 49.496094 435.75 49.808594 436.964844 49.527344 L 436.089844 49.628906 C 435.820312 49.597656 436.441406 49.425781 437.023438 49.351562 C 437.167969 49.351562 437.585938 49.347656 437.140625 49.421875 C 437.867188 49.292969 438.847656 49.179688 439.53125 49.085938 L 439.664062 47.660156 C 439.339844 47.570312 439.082031 47.503906 438.925781 47.476562 C 438.351562 47.304688 438.5625 47.269531 438.886719 47.3125 C 437.726562 47.113281 437.46875 47.070312 437.207031 47.023438 C 436.949219 46.976562 436.6875 46.917969 435.542969 46.816406 L 435.589844 46.757812 L 434.800781 46.742188 L 433.703125 46.476562 L 434.09375 46.605469 C 433.347656 46.53125 432.878906 46.542969 432.015625 46.417969 L 432.371094 46.355469 C 430.269531 46.226562 429.953125 45.988281 427.945312 45.992188 C 427.808594 45.96875 428.125 45.957031 428.285156 45.949219 C 426.421875 45.988281 426.898438 45.691406 425.019531 45.78125 C 425.136719 45.753906 424.933594 45.703125 425.007812 45.679688 L 424.160156 45.707031 L 424.230469 45.578125 L 423.53125 45.742188 L 423.015625 45.589844 L 422.679688 45.640625 C 421.78125 45.351562 420.492188 45.503906 419.253906 45.296875 L 419.460938 45.46875 C 416.300781 45.742188 412.304688 45.359375 408.554688 45.507812 L 408.621094 45.375 L 407.074219 45.539062 C 406.242188 45.4375 407.574219 45.421875 407.3125 45.355469 C 405.652344 45.433594 406.625 45.550781 404.691406 45.597656 C 403.699219 45.507812 405.035156 45.5 405.5 45.449219 C 403.691406 45.519531 401.019531 45.597656 399.738281 45.527344 L 399.691406 45.574219 C 398.484375 45.640625 396.890625 45.585938 395.558594 45.605469 C 395.589844 45.542969 395.917969 45.535156 396.253906 45.519531 C 395.773438 45.515625 395.117188 45.476562 394.707031 45.542969 L 395.207031 45.425781 C 394.1875 45.410156 392.214844 45.539062 391.984375 45.410156 C 392.109375 45.460938 392.058594 45.558594 391.175781 45.566406 C 390.679688 45.367188 388.765625 45.699219 387.347656 45.625 C 387.515625 45.570312 388.554688 45.539062 388.261719 45.539062 C 387.550781 45.5 386.914062 45.617188 386.285156 45.699219 L 386.476562 45.613281 L 383.167969 45.847656 C 382.667969 45.660156 380.046875 46.03125 380.265625 45.875 C 379.078125 45.933594 381.261719 45.910156 379.769531 46.015625 C 379.363281 45.949219 378.417969 46.136719 378.472656 46.003906 L 378.628906 45.980469 L 377.589844 46.0625 L 378.238281 45.886719 C 377.339844 45.980469 376.6875 46.152344 376.648438 46.253906 C 375.792969 46.242188 374.585938 46.417969 374.1875 46.332031 L 374.5 46.273438 C 373.035156 46.425781 371.863281 46.433594 370.746094 46.484375 L 371.078125 49.382812 C 371.777344 49.347656 372.457031 49.28125 373.167969 49.117188 C 373.308594 49.121094 373.296875 49.152344 373.007812 49.183594 L 374.472656 49.03125 L 374.132812 49.167969 L 376.535156 48.75 L 376.515625 48.820312 C 378.113281 48.671875 380.609375 48.371094 382.664062 48.140625 L 382.363281 48.203125 C 384.597656 47.871094 384.535156 48.042969 386.167969 47.8125 L 386 47.855469 L 387.476562 47.710938 L 387.15625 47.804688 C 388.238281 47.558594 390.296875 47.699219 389.613281 47.640625 C 390.230469 47.519531 391.285156 47.351562 391.460938 47.257812 C 393.074219 47.109375 391.863281 47.304688 392.867188 47.277344 C 394.03125 47.1875 394.230469 47.058594 395.8125 46.996094 L 395.785156 47.0625 C 396.523438 46.996094 396.980469 46.917969 398.011719 46.832031 L 397.703125 46.882812 C 399.375 46.632812 399.808594 46.9375 401.109375 46.570312 C 401.816406 46.578125 403.152344 46.472656 403.097656 46.605469 C 405.179688 46.40625 406.8125 46.304688 408.886719 46.175781 C 409.230469 46.378906 409.335938 46.144531 410.601562 46.234375 L 410.507812 46.117188 C 413.453125 46.011719 416.835938 46.242188 420.085938 46.167969 L 420.175781 46.285156 L 420.828125 46.152344 C 424.332031 46.1875 428.863281 46.242188 431.652344 46.269531 C 432.570312 46.21875 433.960938 46.089844 435.414062 46.148438 L 435.265625 46.164062 C 437.796875 46.121094 440.476562 46.109375 443.242188 46.210938 C 443.066406 46.253906 443.34375 46.296875 443.035156 46.320312 C 443.6875 46.203125 444.652344 46.335938 445.246094 46.347656 L 444.554688 46.25 C 445.34375 46.152344 446.46875 46.269531 446.867188 46.363281 L 448.113281 46.25 L 448.339844 46.304688 L 448.558594 46.242188 L 449.21875 46.40625 C 449.527344 46.378906 451.171875 46.363281 451.6875 46.222656 C 451.804688 46.273438 452.96875 46.328125 452.070312 46.34375 L 456.609375 46.445312 L 455.902344 46.382812 C 455.8125 46.265625 457.179688 46.210938 457.886719 46.273438 C 456.957031 46.355469 457.808594 46.433594 458.203125 46.527344 C 458.820312 46.472656 457.667969 46.417969 457.992188 46.359375 C 458.773438 46.292969 460.414062 46.269531 460.824219 46.328125 L 460.359375 46.371094 C 461.414062 46.339844 461.898438 46.546875 462.9375 46.550781 C 463.871094 46.46875 464.554688 46.5625 464.367188 46.363281 C 465.71875 46.339844 464.886719 46.503906 465.320312 46.53125 C 465.957031 46.441406 467.84375 46.527344 468.082031 46.628906 C 468.824219 46.351562 471.710938 46.78125 471.992188 46.542969 L 473.097656 46.691406 C 473.128906 46.625 473.351562 46.484375 474.25 46.46875 C 475.09375 46.550781 474.890625 46.664062 475.148438 46.734375 L 475.71875 46.496094 C 478.128906 46.65625 480.917969 46.714844 483.765625 46.765625 L 484.238281 43.667969 C 481.390625 42.804688 478.441406 42.101562 475.765625 41.476562 C 473.375 41.0625 470.351562 40.6875 467.554688 40.332031 L 467.867188 40.339844 C 466.945312 40.191406 466.019531 40.089844 465.097656 39.960938 L 467.101562 40.292969 C 466.492188 40.25 466.015625 40.246094 465.429688 40.179688 C 462.386719 39.757812 458.3125 39.332031 454.546875 39.289062 C 452.105469 39.46875 452.941406 38.964844 450.605469 39.085938 C 450.808594 39.070312 450.882812 39.03125 451.0625 39.011719 C 448.550781 39.015625 447.195312 39.027344 444.683594 39.132812 C 444.976562 38.863281 443.050781 39.105469 443.28125 38.960938 L 443.070312 39.074219 C 442.515625 38.992188 441.203125 38.941406 441.394531 38.863281 L 440.289062 38.980469 L 440.195312 38.863281 C 438.730469 38.816406 435.585938 38.863281 434.820312 38.617188 C 431.1875 38.730469 425.460938 38.617188 420.914062 38.554688 C 420.273438 38.644531 418.941406 38.648438 417.90625 38.652344 L 416.796875 38.507812 C 415.742188 38.546875 414.617188 38.726562 413.636719 38.636719 L 413.75 38.601562 C 412.679688 38.632812 411.65625 38.5625 410.652344 38.691406 C 409.480469 38.683594 408.335938 38.609375 408.695312 38.480469 C 408.582031 38.707031 406.203125 38.460938 406.203125 38.460938 C 406.203125 38.460938 391.105469 38.378906 374.179688 38.789062 C 357.253906 39.171875 338.5 39.988281 331.167969 40.875 C 330.679688 41 329.3125 41.125 329.84375 41.242188 C 328.789062 41.320312 328.292969 41.136719 328.097656 41.257812 C 329.535156 41.28125 327.660156 41.570312 329.070312 41.660156 L 328.167969 41.71875 C 327.988281 41.804688 329.390625 41.582031 329.175781 41.738281 L 329.421875 41.515625 C 330.152344 41.523438 330.554688 41.554688 330.816406 41.617188 C 331.496094 41.511719 331.925781 41.207031 333.570312 41.273438 L 333.117188 41.304688 C 334.449219 41.25 333.9375 41.414062 334.21875 41.4375 L 333.921875 41.449219 L 335.050781 41.511719 C 334.195312 41.472656 332.796875 41.695312 333.53125 41.652344 C 335.125 41.65625 333.121094 41.617188 334.308594 41.550781 C 335.050781 41.511719 334.847656 41.636719 334.816406 41.703125 L 336.144531 41.644531 C 336.101562 41.746094 335.261719 41.671875 335.808594 41.757812 L 337.476562 41.59375 C 337.796875 41.832031 339.300781 41.414062 340.074219 41.625 C 338.871094 41.722656 340.183594 41.703125 339.996094 41.789062 L 342.949219 41.675781 C 343.226562 41.703125 342.171875 41.777344 342.621094 41.753906 C 343.179688 41.800781 343.535156 41.660156 343.832031 41.652344 C 344.089844 41.710938 346.035156 41.578125 345.960938 41.75 C 347.964844 41.796875 346.792969 41.511719 348.664062 41.546875 C 348.914062 41.640625 347.183594 41.617188 348.015625 41.695312 L 349.953125 41.597656 C 349.777344 41.648438 349.578125 41.769531 348.851562 41.769531 C 354.089844 41.746094 356.929688 42.1875 361.710938 41.925781 C 362.386719 42.023438 361.226562 42.019531 360.75 42.109375 C 364.207031 41.855469 365.628906 42.238281 368.578125 42.152344 L 368.628906 42.054688 C 372.75 42.257812 377.695312 41.964844 382.34375 42.011719 L 381.789062 41.953125 C 382.425781 41.84375 383.460938 41.816406 384.222656 41.757812 C 384.339844 41.804688 383.671875 41.976562 385.019531 41.914062 C 384.742188 41.882812 384.171875 41.855469 384.339844 41.804688 C 388.335938 41.984375 396.757812 41.804688 403.320312 41.890625 C 412.191406 41.75 421.8125 41.960938 430.519531 42.003906 C 429.195312 42 429.761719 41.761719 430.761719 41.832031 C 433.492188 42.28125 435.507812 41.828125 438.300781 42.15625 C 443.375 42.132812 447.898438 42.570312 452.605469 42.445312 L 452.6875 42.5625 C 453.386719 42.648438 453.578125 42.574219 454.316406 42.597656 L 454.296875 42.625 C 456.035156 42.746094 458.140625 42.757812 459.128906 42.878906 L 459.203125 42.753906 C 460.234375 42.8125 459.726562 42.894531 460.785156 42.898438 L 460.753906 42.960938 L 461.992188 42.929688 C 461.851562 43.152344 464.882812 43.203125 465.691406 43.414062 C 467.019531 43.496094 469.53125 43.734375 471.515625 44.082031 C 471.867188 44.257812 474.300781 44.65625 475.824219 45.03125 C 477.914062 45.441406 480.621094 46.039062 483.296875 46.832031 L 483.808594 43.464844 C 482.578125 43.441406 481.34375 43.421875 480.152344 43.398438 L 480.222656 43.550781 L 479.1875 43.546875 C 479.203125 43.511719 479.066406 43.496094 479.21875 43.480469 C 478.421875 43.300781 476.839844 43.5 476.007812 43.386719 C 476.53125 43.527344 476.734375 43.417969 477.320312 43.429688 C 478.167969 43.507812 477.355469 43.640625 476.214844 43.554688 L 476.234375 43.523438 L 475.457031 43.589844 C 475.367188 43.472656 474.660156 43.410156 474.570312 43.292969 C 471.171875 43.277344 468.855469 43.449219 465.34375 43.351562 C 465.707031 43.226562 462.828125 43.351562 463.53125 43.132812 C 461.421875 43.191406 463.878906 43.320312 462.910156 43.46875 C 462.324219 43.457031 461.703125 43.507812 461.601562 43.425781 C 461.878906 43.375 461.125 43.28125 461.605469 43.269531 L 460.195312 43.265625 C 460.0625 43.246094 460.371094 43.222656 460.527344 43.207031 C 457.660156 43.300781 455.445312 42.996094 452.871094 43.097656 C 452.679688 43.175781 453.894531 43.128906 453.703125 43.210938 C 451.113281 43.34375 451.417969 43.035156 449.003906 43.121094 L 449.503906 43.015625 C 448.726562 43.082031 448.382812 43.175781 447.101562 43.066406 C 446.878906 42.929688 448.191406 42.976562 448.808594 42.917969 C 447.929688 42.902344 445.703125 42.910156 446.378906 43.039062 C 445.324219 43.066406 444.941406 42.945312 444.375 42.902344 C 444.351562 42.933594 445.355469 43.003906 444.738281 43.054688 C 443.304688 42.964844 441.082031 42.9375 439.332031 42.90625 C 439.347656 42.871094 439.222656 42.820312 439.375 42.804688 C 437.960938 42.964844 438.117188 42.664062 436.175781 42.683594 " fill-opacity="1" fill-rule="nonzero"/></g><path fill="#5e17eb" d="M 399.113281 47.914062 L 398.402344 47.898438 C 398.402344 47.925781 398.375 47.960938 398.046875 47.996094 L 399.113281 47.914062 " fill-opacity="1" fill-rule="nonzero"/><path fill="#5e17eb" d="M 376.136719 46.210938 C 376.226562 46.191406 376.3125 46.175781 376.390625 46.148438 C 376.21875 46.175781 376.164062 46.191406 376.136719 46.210938 " fill-opacity="1" fill-rule="nonzero"/><path fill="#5e17eb" d="M 384.246094 45.125 C 383.667969 45.214844 384.1875 45.195312 384.480469 45.199219 C 384.488281 45.171875 384.472656 45.140625 384.246094 45.125 " fill-opacity="1" fill-rule="nonzero"/><path fill="#5e17eb" d="M 418.140625 47.449219 C 418.019531 47.457031 417.945312 47.476562 417.964844 47.503906 C 418.128906 47.480469 418.167969 47.460938 418.140625 47.449219 " fill-opacity="1" fill-rule="nonzero"/><path fill="#5e17eb" d="M 408.300781 50.273438 L 408.511719 50.285156 C 408.472656 50.273438 408.398438 50.273438 408.300781 50.273438 " fill-opacity="1" fill-rule="nonzero"/><path fill="#5e17eb" d="M 411.21875 50.332031 C 411.355469 50.328125 411.539062 50.3125 411.804688 50.28125 C 411.546875 50.289062 411.363281 50.3125 411.21875 50.332031 " fill-opacity="1" fill-rule="nonzero"/><path fill="#5e17eb" d="M 405.394531 47.59375 C 405.199219 47.601562 405.007812 47.613281 404.839844 47.640625 C 405.144531 47.636719 405.292969 47.617188 405.394531 47.59375 " fill-opacity="1" fill-rule="nonzero"/><path fill="#5e17eb" d="M 412.40625 50.214844 L 413.136719 50.1875 L 413.148438 50.160156 Z M 412.40625 50.214844 " fill-opacity="1" fill-rule="nonzero"/><path fill="#5e17eb" d="M 407.382812 50.296875 C 407.667969 50.289062 408.050781 50.277344 408.300781 50.273438 C 407.9375 50.253906 407.648438 50.265625 407.382812 50.296875 " fill-opacity="1" fill-rule="nonzero"/><path fill="#5e17eb" d="M 437.28125 48.589844 L 437.203125 48.578125 C 436.640625 48.542969 436.992188 48.578125 437.28125 48.589844 " fill-opacity="1" fill-rule="nonzero"/><path fill="#5e17eb" d="M 415.589844 49.785156 L 415.683594 49.785156 L 415.894531 49.734375 Z M 415.589844 49.785156 " fill-opacity="1" fill-rule="nonzero"/><path fill="#5e17eb" d="M 404.21875 50.367188 C 404.355469 50.355469 404.484375 50.347656 404.585938 50.328125 C 404.46875 50.328125 404.335938 50.328125 404.167969 50.328125 L 404.21875 50.367188 " fill-opacity="1" fill-rule="nonzero"/><path fill="#5e17eb" d="M 430.460938 48.5625 C 430.261719 48.636719 430.1875 48.675781 430.179688 48.703125 C 430.421875 48.671875 430.574219 48.632812 430.460938 48.5625 " fill-opacity="1" fill-rule="nonzero"/><g fill="#373737" fill-opacity="1"><g transform="translate(38.111938, 30.336468)"><g><path d="M 26.625 -17.84375 L 20.75 -17.84375 C 20.519531 -19.351562 19.875 -20.539062 18.8125 -21.40625 C 17.75 -22.269531 16.421875 -22.703125 14.828125 -22.703125 C 12.703125 -22.703125 11 -21.921875 9.71875 -20.359375 C 8.4375 -18.804688 7.796875 -16.597656 7.796875 -13.734375 C 7.796875 -10.796875 8.441406 -8.566406 9.734375 -7.046875 C 11.023438 -5.523438 12.710938 -4.765625 14.796875 -4.765625 C 16.335938 -4.765625 17.644531 -5.164062 18.71875 -5.96875 C 19.789062 -6.78125 20.46875 -7.921875 20.75 -9.390625 L 26.625 -9.359375 C 26.414062 -7.679688 25.8125 -6.097656 24.8125 -4.609375 C 23.820312 -3.128906 22.472656 -1.925781 20.765625 -1 C 19.066406 -0.0820312 17.046875 0.375 14.703125 0.375 C 12.253906 0.375 10.066406 -0.175781 8.140625 -1.28125 C 6.210938 -2.394531 4.691406 -4 3.578125 -6.09375 C 2.460938 -8.195312 1.90625 -10.742188 1.90625 -13.734375 C 1.90625 -16.722656 2.46875 -19.269531 3.59375 -21.375 C 4.71875 -23.476562 6.242188 -25.082031 8.171875 -26.1875 C 10.109375 -27.289062 12.285156 -27.84375 14.703125 -27.84375 C 16.816406 -27.84375 18.722656 -27.453125 20.421875 -26.671875 C 22.128906 -25.890625 23.523438 -24.753906 24.609375 -23.265625 C 25.703125 -21.773438 26.375 -19.96875 26.625 -17.84375 Z M 26.625 -17.84375 "/></g></g></g><g fill="#373737" fill-opacity="1"><g transform="translate(66.509207, 30.336468)"><g><path d="M 2.28125 0 L 2.28125 -20.59375 L 7.8125 -20.59375 L 7.8125 -17 L 8.03125 -17 C 8.40625 -18.28125 9.03125 -19.25 9.90625 -19.90625 C 10.789062 -20.5625 11.816406 -20.890625 12.984375 -20.890625 C 13.535156 -20.890625 14.046875 -20.820312 14.515625 -20.6875 C 14.992188 -20.550781 15.421875 -20.367188 15.796875 -20.140625 L 14.078125 -15.421875 C 13.804688 -15.554688 13.515625 -15.671875 13.203125 -15.765625 C 12.890625 -15.859375 12.535156 -15.90625 12.140625 -15.90625 C 10.984375 -15.90625 10.003906 -15.507812 9.203125 -14.71875 C 8.398438 -13.9375 8 -12.914062 8 -11.65625 L 8 0 Z M 2.28125 0 "/></g></g></g><g fill="#373737" fill-opacity="1"><g transform="translate(82.692161, 30.336468)"><g><path d="M 11.671875 0.40625 C 9.554688 0.40625 7.734375 -0.0234375 6.203125 -0.890625 C 4.679688 -1.753906 3.507812 -2.976562 2.6875 -4.5625 C 1.863281 -6.15625 1.453125 -8.035156 1.453125 -10.203125 C 1.453125 -12.328125 1.863281 -14.1875 2.6875 -15.78125 C 3.507812 -17.382812 4.664062 -18.632812 6.15625 -19.53125 C 7.65625 -20.425781 9.414062 -20.875 11.4375 -20.875 C 13.25 -20.875 14.882812 -20.488281 16.34375 -19.71875 C 17.8125 -18.945312 18.972656 -17.785156 19.828125 -16.234375 C 20.691406 -14.679688 21.125 -12.738281 21.125 -10.40625 L 21.125 -8.84375 L 7.09375 -8.84375 L 7.09375 -8.828125 C 7.09375 -7.285156 7.507812 -6.070312 8.34375 -5.1875 C 9.1875 -4.300781 10.328125 -3.859375 11.765625 -3.859375 C 12.722656 -3.859375 13.546875 -4.054688 14.234375 -4.453125 C 14.929688 -4.859375 15.425781 -5.457031 15.71875 -6.25 L 21 -5.90625 C 20.59375 -3.988281 19.570312 -2.457031 17.9375 -1.3125 C 16.300781 -0.164062 14.210938 0.40625 11.671875 0.40625 Z M 7.09375 -12.375 L 15.75 -12.375 C 15.738281 -13.601562 15.34375 -14.613281 14.5625 -15.40625 C 13.78125 -16.207031 12.769531 -16.609375 11.53125 -16.609375 C 10.257812 -16.609375 9.21875 -16.195312 8.40625 -15.375 C 7.59375 -14.550781 7.15625 -13.550781 7.09375 -12.375 Z M 7.09375 -12.375 "/></g></g></g><g fill="#373737" fill-opacity="1"><g transform="translate(105.257127, 30.336468)"><g><path d="M 8.15625 0.390625 C 6.1875 0.390625 4.550781 -0.125 3.25 -1.15625 C 1.957031 -2.1875 1.3125 -3.71875 1.3125 -5.75 C 1.3125 -7.289062 1.671875 -8.5 2.390625 -9.375 C 3.117188 -10.25 4.070312 -10.890625 5.25 -11.296875 C 6.425781 -11.703125 7.691406 -11.96875 9.046875 -12.09375 C 10.835938 -12.269531 12.117188 -12.457031 12.890625 -12.65625 C 13.660156 -12.851562 14.046875 -13.285156 14.046875 -13.953125 L 14.046875 -14.03125 C 14.046875 -14.875 13.78125 -15.53125 13.25 -16 C 12.71875 -16.46875 11.960938 -16.703125 10.984375 -16.703125 C 9.953125 -16.703125 9.132812 -16.476562 8.53125 -16.03125 C 7.925781 -15.582031 7.523438 -15.015625 7.328125 -14.328125 L 2.03125 -14.75 C 2.425781 -16.625 3.40625 -18.113281 4.96875 -19.21875 C 6.53125 -20.320312 8.546875 -20.875 11.015625 -20.875 C 12.535156 -20.875 13.960938 -20.628906 15.296875 -20.140625 C 16.628906 -19.660156 17.703125 -18.90625 18.515625 -17.875 C 19.335938 -16.851562 19.75 -15.523438 19.75 -13.890625 L 19.75 0 L 14.34375 0 L 14.34375 -2.859375 L 14.171875 -2.859375 C 13.671875 -1.898438 12.921875 -1.117188 11.921875 -0.515625 C 10.929688 0.0859375 9.675781 0.390625 8.15625 0.390625 Z M 9.796875 -3.546875 C 11.046875 -3.546875 12.070312 -3.910156 12.875 -4.640625 C 13.675781 -5.367188 14.078125 -6.273438 14.078125 -7.359375 L 14.078125 -9.546875 C 13.859375 -9.398438 13.515625 -9.265625 13.046875 -9.140625 C 12.578125 -9.023438 12.078125 -8.925781 11.546875 -8.84375 C 11.015625 -8.757812 10.535156 -8.6875 10.109375 -8.625 C 9.109375 -8.476562 8.300781 -8.191406 7.6875 -7.765625 C 7.070312 -7.347656 6.765625 -6.738281 6.765625 -5.9375 C 6.765625 -5.15625 7.046875 -4.5625 7.609375 -4.15625 C 8.179688 -3.75 8.910156 -3.546875 9.796875 -3.546875 Z M 9.796875 -3.546875 "/></g></g></g><g fill="#373737" fill-opacity="1"><g transform="translate(127.165125, 30.336468)"><g><path d="M 13.234375 -20.59375 L 13.234375 -16.3125 L 9.359375 -16.3125 L 9.359375 -6.328125 C 9.359375 -5.546875 9.535156 -5.015625 9.890625 -4.734375 C 10.253906 -4.453125 10.722656 -4.3125 11.296875 -4.3125 C 11.554688 -4.3125 11.820312 -4.335938 12.09375 -4.390625 C 12.363281 -4.441406 12.570312 -4.476562 12.71875 -4.5 L 13.609375 -0.25 C 13.328125 -0.164062 12.925781 -0.0664062 12.40625 0.046875 C 11.882812 0.171875 11.253906 0.25 10.515625 0.28125 C 8.441406 0.375 6.773438 -0.0703125 5.515625 -1.0625 C 4.265625 -2.050781 3.640625 -3.554688 3.640625 -5.578125 L 3.640625 -16.3125 L 0.828125 -16.3125 L 0.828125 -20.59375 L 3.640625 -20.59375 L 3.640625 -25.53125 L 9.359375 -25.53125 L 9.359375 -20.59375 Z M 13.234375 -20.59375 "/></g></g></g><g fill="#373737" fill-opacity="1"><g transform="translate(141.833026, 30.336468)"><g><path d="M 11.671875 0.40625 C 9.554688 0.40625 7.734375 -0.0234375 6.203125 -0.890625 C 4.679688 -1.753906 3.507812 -2.976562 2.6875 -4.5625 C 1.863281 -6.15625 1.453125 -8.035156 1.453125 -10.203125 C 1.453125 -12.328125 1.863281 -14.1875 2.6875 -15.78125 C 3.507812 -17.382812 4.664062 -18.632812 6.15625 -19.53125 C 7.65625 -20.425781 9.414062 -20.875 11.4375 -20.875 C 13.25 -20.875 14.882812 -20.488281 16.34375 -19.71875 C 17.8125 -18.945312 18.972656 -17.785156 19.828125 -16.234375 C 20.691406 -14.679688 21.125 -12.738281 21.125 -10.40625 L 21.125 -8.84375 L 7.09375 -8.84375 L 7.09375 -8.828125 C 7.09375 -7.285156 7.507812 -6.070312 8.34375 -5.1875 C 9.1875 -4.300781 10.328125 -3.859375 11.765625 -3.859375 C 12.722656 -3.859375 13.546875 -4.054688 14.234375 -4.453125 C 14.929688 -4.859375 15.425781 -5.457031 15.71875 -6.25 L 21 -5.90625 C 20.59375 -3.988281 19.570312 -2.457031 17.9375 -1.3125 C 16.300781 -0.164062 14.210938 0.40625 11.671875 0.40625 Z M 7.09375 -12.375 L 15.75 -12.375 C 15.738281 -13.601562 15.34375 -14.613281 14.5625 -15.40625 C 13.78125 -16.207031 12.769531 -16.609375 11.53125 -16.609375 C 10.257812 -16.609375 9.21875 -16.195312 8.40625 -15.375 C 7.59375 -14.550781 7.15625 -13.550781 7.09375 -12.375 Z M 7.09375 -12.375 "/></g></g></g><g fill="#373737" fill-opacity="1"><g transform="translate(164.397992, 30.336468)"><g/></g></g><g fill="#373737" fill-opacity="1"><g transform="translate(173.153143, 30.336468)"><g><path d="M 2.390625 -27.46875 L 9.546875 -27.46875 L 17.109375 -9.015625 L 17.4375 -9.015625 L 25 -27.46875 L 32.15625 -27.46875 L 32.15625 0 L 26.53125 0 L 26.53125 -17.875 L 26.296875 -17.875 L 19.1875 -0.140625 L 15.359375 -0.140625 L 8.25 -17.9375 L 8.015625 -17.9375 L 8.015625 0 L 2.390625 0 Z M 2.390625 -27.46875 "/></g></g></g><g fill="#373737" fill-opacity="1"><g transform="translate(208.039683, 30.336468)"><g><path d="M 15.484375 -8.765625 L 15.484375 -20.59375 L 21.203125 -20.59375 L 21.203125 0 L 15.71875 0 L 15.71875 -3.734375 L 15.5 -3.734375 C 15.039062 -2.535156 14.269531 -1.566406 13.1875 -0.828125 C 12.113281 -0.0976562 10.800781 0.265625 9.25 0.265625 C 7.175781 0.265625 5.5 -0.421875 4.21875 -1.796875 C 2.9375 -3.179688 2.289062 -5.078125 2.28125 -7.484375 L 2.28125 -20.59375 L 8 -20.59375 L 8 -8.5 C 8 -7.28125 8.320312 -6.316406 8.96875 -5.609375 C 9.613281 -4.910156 10.476562 -4.5625 11.5625 -4.5625 C 12.59375 -4.5625 13.503906 -4.914062 14.296875 -5.625 C 15.097656 -6.34375 15.492188 -7.390625 15.484375 -8.765625 Z M 15.484375 -8.765625 "/></g></g></g><g fill="#373737" fill-opacity="1"><g transform="translate(231.516369, 30.336468)"><g><path d="M 8 -27.46875 L 8 0 L 2.28125 0 L 2.28125 -27.46875 Z M 8 -27.46875 "/></g></g></g><g fill="#373737" fill-opacity="1"><g transform="translate(241.786572, 30.336468)"><g><path d="M 13.234375 -20.59375 L 13.234375 -16.3125 L 9.359375 -16.3125 L 9.359375 -6.328125 C 9.359375 -5.546875 9.535156 -5.015625 9.890625 -4.734375 C 10.253906 -4.453125 10.722656 -4.3125 11.296875 -4.3125 C 11.554688 -4.3125 11.820312 -4.335938 12.09375 -4.390625 C 12.363281 -4.441406 12.570312 -4.476562 12.71875 -4.5 L 13.609375 -0.25 C 13.328125 -0.164062 12.925781 -0.0664062 12.40625 0.046875 C 11.882812 0.171875 11.253906 0.25 10.515625 0.28125 C 8.441406 0.375 6.773438 -0.0703125 5.515625 -1.0625 C 4.265625 -2.050781 3.640625 -3.554688 3.640625 -5.578125 L 3.640625 -16.3125 L 0.828125 -16.3125 L 0.828125 -20.59375 L 3.640625 -20.59375 L 3.640625 -25.53125 L 9.359375 -25.53125 L 9.359375 -20.59375 Z M 13.234375 -20.59375 "/></g></g></g><g fill="#373737" fill-opacity="1"><g transform="translate(256.454484, 30.336468)"><g><path d="M 2.28125 0 L 2.28125 -20.59375 L 8 -20.59375 L 8 0 Z M 5.15625 -23.25 C 4.3125 -23.25 3.582031 -23.53125 2.96875 -24.09375 C 2.363281 -24.664062 2.0625 -25.351562 2.0625 -26.15625 C 2.0625 -26.945312 2.363281 -27.625 2.96875 -28.1875 C 3.582031 -28.75 4.3125 -29.03125 5.15625 -29.03125 C 6 -29.03125 6.722656 -28.75 7.328125 -28.1875 C 7.941406 -27.625 8.25 -26.945312 8.25 -26.15625 C 8.25 -25.351562 7.941406 -24.664062 7.328125 -24.09375 C 6.722656 -23.53125 6 -23.25 5.15625 -23.25 Z M 5.15625 -23.25 "/></g></g></g><g fill="#373737" fill-opacity="1"><g transform="translate(266.724687, 30.336468)"><g><path d="M 2.28125 7.71875 L 2.28125 -20.59375 L 7.90625 -20.59375 L 7.90625 -17.140625 L 8.171875 -17.140625 C 8.429688 -17.703125 8.796875 -18.269531 9.265625 -18.84375 C 9.742188 -19.414062 10.367188 -19.894531 11.140625 -20.28125 C 11.921875 -20.675781 12.882812 -20.875 14.03125 -20.875 C 15.539062 -20.875 16.925781 -20.476562 18.1875 -19.6875 C 19.445312 -18.90625 20.457031 -17.726562 21.21875 -16.15625 C 21.988281 -14.59375 22.375 -12.628906 22.375 -10.265625 C 22.375 -7.972656 22 -6.035156 21.25 -4.453125 C 20.507812 -2.878906 19.507812 -1.6875 18.25 -0.875 C 16.988281 -0.0703125 15.578125 0.328125 14.015625 0.328125 C 12.910156 0.328125 11.96875 0.144531 11.1875 -0.21875 C 10.414062 -0.582031 9.785156 -1.039062 9.296875 -1.59375 C 8.804688 -2.15625 8.429688 -2.722656 8.171875 -3.296875 L 8 -3.296875 L 8 7.71875 Z M 7.875 -10.296875 C 7.875 -8.460938 8.25 -6.988281 9 -5.875 C 9.757812 -4.769531 10.828125 -4.21875 12.203125 -4.21875 C 13.609375 -4.21875 14.679688 -4.78125 15.421875 -5.90625 C 16.160156 -7.039062 16.53125 -8.503906 16.53125 -10.296875 C 16.53125 -12.085938 16.160156 -13.539062 15.421875 -14.65625 C 14.691406 -15.769531 13.617188 -16.328125 12.203125 -16.328125 C 10.816406 -16.328125 9.75 -15.78125 9 -14.6875 C 8.25 -13.601562 7.875 -12.140625 7.875 -10.296875 Z M 7.875 -10.296875 "/></g></g></g><g fill="#373737" fill-opacity="1"><g transform="translate(290.603599, 30.336468)"><g><path d="M 8 -27.46875 L 8 0 L 2.28125 0 L 2.28125 -27.46875 Z M 8 -27.46875 "/></g></g></g><g fill="#373737" fill-opacity="1"><g transform="translate(300.873803, 30.336468)"><g><path d="M 11.671875 0.40625 C 9.554688 0.40625 7.734375 -0.0234375 6.203125 -0.890625 C 4.679688 -1.753906 3.507812 -2.976562 2.6875 -4.5625 C 1.863281 -6.15625 1.453125 -8.035156 1.453125 -10.203125 C 1.453125 -12.328125 1.863281 -14.1875 2.6875 -15.78125 C 3.507812 -17.382812 4.664062 -18.632812 6.15625 -19.53125 C 7.65625 -20.425781 9.414062 -20.875 11.4375 -20.875 C 13.25 -20.875 14.882812 -20.488281 16.34375 -19.71875 C 17.8125 -18.945312 18.972656 -17.785156 19.828125 -16.234375 C 20.691406 -14.679688 21.125 -12.738281 21.125 -10.40625 L 21.125 -8.84375 L 7.09375 -8.84375 L 7.09375 -8.828125 C 7.09375 -7.285156 7.507812 -6.070312 8.34375 -5.1875 C 9.1875 -4.300781 10.328125 -3.859375 11.765625 -3.859375 C 12.722656 -3.859375 13.546875 -4.054688 14.234375 -4.453125 C 14.929688 -4.859375 15.425781 -5.457031 15.71875 -6.25 L 21 -5.90625 C 20.59375 -3.988281 19.570312 -2.457031 17.9375 -1.3125 C 16.300781 -0.164062 14.210938 0.40625 11.671875 0.40625 Z M 7.09375 -12.375 L 15.75 -12.375 C 15.738281 -13.601562 15.34375 -14.613281 14.5625 -15.40625 C 13.78125 -16.207031 12.769531 -16.609375 11.53125 -16.609375 C 10.257812 -16.609375 9.21875 -16.195312 8.40625 -15.375 C 7.59375 -14.550781 7.15625 -13.550781 7.09375 -12.375 Z M 7.09375 -12.375 "/></g></g></g><g fill="#373737" fill-opacity="1"><g transform="translate(323.438779, 30.336468)"><g/></g></g><g fill="#373737" fill-opacity="1"><g transform="translate(332.193919, 30.336468)"><g><path d="M 2.390625 0 L 2.390625 -27.46875 L 13.21875 -27.46875 C 15.300781 -27.46875 17.078125 -27.070312 18.546875 -26.28125 C 20.015625 -25.488281 21.132812 -24.390625 21.90625 -22.984375 C 22.675781 -21.585938 23.0625 -19.976562 23.0625 -18.15625 C 23.0625 -16.332031 22.664062 -14.722656 21.875 -13.328125 C 21.09375 -11.941406 19.957031 -10.859375 18.46875 -10.078125 C 16.976562 -9.296875 15.179688 -8.90625 13.078125 -8.90625 L 8.1875 -8.90625 L 8.1875 0 Z M 8.1875 -13.5625 L 12.140625 -13.5625 C 13.796875 -13.5625 15.03125 -13.988281 15.84375 -14.84375 C 16.664062 -15.695312 17.078125 -16.800781 17.078125 -18.15625 C 17.078125 -19.519531 16.664062 -20.617188 15.84375 -21.453125 C 15.03125 -22.296875 13.785156 -22.71875 12.109375 -22.71875 L 8.1875 -22.71875 Z M 8.1875 -13.5625 "/></g></g></g><g fill="#373737" fill-opacity="1"><g transform="translate(356.649351, 30.336468)"><g><path d="M 2.28125 0 L 2.28125 -20.59375 L 7.8125 -20.59375 L 7.8125 -17 L 8.03125 -17 C 8.40625 -18.28125 9.03125 -19.25 9.90625 -19.90625 C 10.789062 -20.5625 11.816406 -20.890625 12.984375 -20.890625 C 13.535156 -20.890625 14.046875 -20.820312 14.515625 -20.6875 C 14.992188 -20.550781 15.421875 -20.367188 15.796875 -20.140625 L 14.078125 -15.421875 C 13.804688 -15.554688 13.515625 -15.671875 13.203125 -15.765625 C 12.890625 -15.859375 12.535156 -15.90625 12.140625 -15.90625 C 10.984375 -15.90625 10.003906 -15.507812 9.203125 -14.71875 C 8.398438 -13.9375 8 -12.914062 8 -11.65625 L 8 0 Z M 2.28125 0 "/></g></g></g><g fill="#373737" fill-opacity="1"><g transform="translate(372.832306, 30.336468)"><g><path d="M 11.59375 0.40625 C 9.507812 0.40625 7.707031 -0.0351562 6.1875 -0.921875 C 4.675781 -1.816406 3.507812 -3.0625 2.6875 -4.65625 C 1.863281 -6.25 1.453125 -8.101562 1.453125 -10.21875 C 1.453125 -12.34375 1.863281 -14.203125 2.6875 -15.796875 C 3.507812 -17.398438 4.675781 -18.644531 6.1875 -19.53125 C 7.707031 -20.425781 9.507812 -20.875 11.59375 -20.875 C 13.675781 -20.875 15.472656 -20.425781 16.984375 -19.53125 C 18.503906 -18.644531 19.671875 -17.398438 20.484375 -15.796875 C 21.304688 -14.203125 21.71875 -12.34375 21.71875 -10.21875 C 21.71875 -8.101562 21.304688 -6.25 20.484375 -4.65625 C 19.671875 -3.0625 18.503906 -1.816406 16.984375 -0.921875 C 15.472656 -0.0351562 13.675781 0.40625 11.59375 0.40625 Z M 11.609375 -4.015625 C 13.023438 -4.015625 14.097656 -4.601562 14.828125 -5.78125 C 15.554688 -6.96875 15.921875 -8.460938 15.921875 -10.265625 C 15.921875 -12.054688 15.554688 -13.546875 14.828125 -14.734375 C 14.097656 -15.921875 13.023438 -16.515625 11.609375 -16.515625 C 10.171875 -16.515625 9.082031 -15.921875 8.34375 -14.734375 C 7.613281 -13.546875 7.25 -12.054688 7.25 -10.265625 C 7.25 -8.460938 7.613281 -6.96875 8.34375 -5.78125 C 9.082031 -4.601562 10.171875 -4.015625 11.609375 -4.015625 Z M 11.609375 -4.015625 "/></g></g></g><g fill="#373737" fill-opacity="1"><g transform="translate(396.000604, 30.336468)"><g><path d="M 2.28125 -20.59375 L 8 -20.59375 L 8 0.953125 C 8 3.335938 7.300781 5.066406 5.90625 6.140625 C 4.507812 7.210938 2.570312 7.71875 0.09375 7.65625 C -0.0625 7.65625 -0.21875 7.648438 -0.375 7.640625 C -0.539062 7.640625 -0.738281 7.632812 -0.96875 7.625 L -0.96875 3.171875 C -0.8125 3.171875 -0.675781 3.171875 -0.5625 3.171875 C -0.445312 3.179688 -0.332031 3.1875 -0.21875 3.1875 C 0.707031 3.1875 1.351562 2.992188 1.71875 2.609375 C 2.09375 2.222656 2.28125 1.640625 2.28125 0.859375 Z M 5.125 -23.25 C 4.28125 -23.25 3.550781 -23.53125 2.9375 -24.09375 C 2.332031 -24.664062 2.03125 -25.351562 2.03125 -26.15625 C 2.03125 -26.945312 2.332031 -27.625 2.9375 -28.1875 C 3.550781 -28.75 4.28125 -29.03125 5.125 -29.03125 C 5.96875 -29.03125 6.691406 -28.75 7.296875 -28.1875 C 7.910156 -27.625 8.21875 -26.945312 8.21875 -26.15625 C 8.21875 -25.351562 7.910156 -24.664062 7.296875 -24.09375 C 6.691406 -23.53125 5.96875 -23.25 5.125 -23.25 Z M 5.125 -23.25 "/></g></g></g><g fill="#373737" fill-opacity="1"><g transform="translate(406.270808, 30.336468)"><g><path d="M 11.671875 0.40625 C 9.554688 0.40625 7.734375 -0.0234375 6.203125 -0.890625 C 4.679688 -1.753906 3.507812 -2.976562 2.6875 -4.5625 C 1.863281 -6.15625 1.453125 -8.035156 1.453125 -10.203125 C 1.453125 -12.328125 1.863281 -14.1875 2.6875 -15.78125 C 3.507812 -17.382812 4.664062 -18.632812 6.15625 -19.53125 C 7.65625 -20.425781 9.414062 -20.875 11.4375 -20.875 C 13.25 -20.875 14.882812 -20.488281 16.34375 -19.71875 C 17.8125 -18.945312 18.972656 -17.785156 19.828125 -16.234375 C 20.691406 -14.679688 21.125 -12.738281 21.125 -10.40625 L 21.125 -8.84375 L 7.09375 -8.84375 L 7.09375 -8.828125 C 7.09375 -7.285156 7.507812 -6.070312 8.34375 -5.1875 C 9.1875 -4.300781 10.328125 -3.859375 11.765625 -3.859375 C 12.722656 -3.859375 13.546875 -4.054688 14.234375 -4.453125 C 14.929688 -4.859375 15.425781 -5.457031 15.71875 -6.25 L 21 -5.90625 C 20.59375 -3.988281 19.570312 -2.457031 17.9375 -1.3125 C 16.300781 -0.164062 14.210938 0.40625 11.671875 0.40625 Z M 7.09375 -12.375 L 15.75 -12.375 C 15.738281 -13.601562 15.34375 -14.613281 14.5625 -15.40625 C 13.78125 -16.207031 12.769531 -16.609375 11.53125 -16.609375 C 10.257812 -16.609375 9.21875 -16.195312 8.40625 -15.375 C 7.59375 -14.550781 7.15625 -13.550781 7.09375 -12.375 Z M 7.09375 -12.375 "/></g></g></g><g fill="#373737" fill-opacity="1"><g transform="translate(428.835784, 30.336468)"><g><path d="M 11.59375 0.40625 C 9.476562 0.40625 7.660156 -0.0390625 6.140625 -0.9375 C 4.628906 -1.84375 3.46875 -3.09375 2.65625 -4.6875 C 1.851562 -6.289062 1.453125 -8.132812 1.453125 -10.21875 C 1.453125 -12.332031 1.859375 -14.1875 2.671875 -15.78125 C 3.492188 -17.375 4.660156 -18.617188 6.171875 -19.515625 C 7.679688 -20.421875 9.476562 -20.875 11.5625 -20.875 C 13.351562 -20.875 14.925781 -20.546875 16.28125 -19.890625 C 17.632812 -19.234375 18.703125 -18.316406 19.484375 -17.140625 C 20.273438 -15.960938 20.707031 -14.578125 20.78125 -12.984375 L 15.390625 -12.984375 C 15.242188 -14.015625 14.84375 -14.84375 14.1875 -15.46875 C 13.539062 -16.101562 12.695312 -16.421875 11.65625 -16.421875 C 10.332031 -16.421875 9.265625 -15.882812 8.453125 -14.8125 C 7.648438 -13.75 7.25 -12.242188 7.25 -10.296875 C 7.25 -8.328125 7.648438 -6.804688 8.453125 -5.734375 C 9.253906 -4.660156 10.320312 -4.125 11.65625 -4.125 C 12.632812 -4.125 13.457031 -4.421875 14.125 -5.015625 C 14.800781 -5.609375 15.222656 -6.453125 15.390625 -7.546875 L 20.78125 -7.546875 C 20.695312 -5.972656 20.269531 -4.585938 19.5 -3.390625 C 18.738281 -2.191406 17.6875 -1.257812 16.34375 -0.59375 C 15.007812 0.0703125 13.425781 0.40625 11.59375 0.40625 Z M 11.59375 0.40625 "/></g></g></g><g fill="#373737" fill-opacity="1"><g transform="translate(451.011915, 30.336468)"><g><path d="M 13.234375 -20.59375 L 13.234375 -16.3125 L 9.359375 -16.3125 L 9.359375 -6.328125 C 9.359375 -5.546875 9.535156 -5.015625 9.890625 -4.734375 C 10.253906 -4.453125 10.722656 -4.3125 11.296875 -4.3125 C 11.554688 -4.3125 11.820312 -4.335938 12.09375 -4.390625 C 12.363281 -4.441406 12.570312 -4.476562 12.71875 -4.5 L 13.609375 -0.25 C 13.328125 -0.164062 12.925781 -0.0664062 12.40625 0.046875 C 11.882812 0.171875 11.253906 0.25 10.515625 0.28125 C 8.441406 0.375 6.773438 -0.0703125 5.515625 -1.0625 C 4.265625 -2.050781 3.640625 -3.554688 3.640625 -5.578125 L 3.640625 -16.3125 L 0.828125 -16.3125 L 0.828125 -20.59375 L 3.640625 -20.59375 L 3.640625 -25.53125 L 9.359375 -25.53125 L 9.359375 -20.59375 Z M 13.234375 -20.59375 "/></g></g></g><g fill="#373737" fill-opacity="1"><g transform="translate(465.679827, 30.336468)"><g><path d="M 19.421875 -14.71875 L 14.1875 -14.40625 C 14.039062 -15.0625 13.675781 -15.625 13.09375 -16.09375 C 12.519531 -16.570312 11.738281 -16.8125 10.75 -16.8125 C 9.863281 -16.8125 9.113281 -16.625 8.5 -16.25 C 7.882812 -15.882812 7.582031 -15.394531 7.59375 -14.78125 C 7.582031 -14.289062 7.773438 -13.875 8.171875 -13.53125 C 8.566406 -13.1875 9.242188 -12.914062 10.203125 -12.71875 L 13.9375 -11.96875 C 17.894531 -11.15625 19.878906 -9.296875 19.890625 -6.390625 C 19.890625 -5.035156 19.492188 -3.847656 18.703125 -2.828125 C 17.910156 -1.804688 16.828125 -1.007812 15.453125 -0.4375 C 14.078125 0.125 12.5 0.40625 10.71875 0.40625 C 7.988281 0.40625 5.8125 -0.160156 4.1875 -1.296875 C 2.570312 -2.441406 1.632812 -4 1.375 -5.96875 L 6.984375 -6.265625 C 7.160156 -5.421875 7.570312 -4.785156 8.21875 -4.359375 C 8.875 -3.929688 9.710938 -3.71875 10.734375 -3.71875 C 11.734375 -3.71875 12.535156 -3.910156 13.140625 -4.296875 C 13.753906 -4.691406 14.066406 -5.195312 14.078125 -5.8125 C 14.054688 -6.820312 13.175781 -7.503906 11.4375 -7.859375 L 7.875 -8.5625 C 3.882812 -9.363281 1.898438 -11.328125 1.921875 -14.453125 C 1.910156 -16.441406 2.703125 -18.007812 4.296875 -19.15625 C 5.890625 -20.300781 8.003906 -20.875 10.640625 -20.875 C 13.242188 -20.875 15.296875 -20.320312 16.796875 -19.21875 C 18.296875 -18.113281 19.171875 -16.613281 19.421875 -14.71875 Z M 19.421875 -14.71875 "/></g></g></g></svg>